<?xml version="1.0" encoding="UTF-8"?>
<svg width="33px" height="37px" viewBox="0 0 33 37" version="1.1" xmlns="http://www.w3.org/2000/svg" xmlns:xlink="http://www.w3.org/1999/xlink">
    <title>Grupo</title>
    <g id="Página-1" stroke="none" stroke-width="1" fill="none" fill-rule="evenodd">
        <g id="1_HOME-AMIE-WORLD" transform="translate(-741, -1258)" fill="#454545">
            <g id="Grupo" transform="translate(43, 869)">
                <g id="Grupo-Copia" transform="translate(386.6463, 0)">
                    <g id="Grupo" transform="translate(312.1735, 389.7068)">
                        <g id="Fill-1">
                            <path d="M7.59205506,12.0770614 L2.14727446,12.0770614 L2.14727446,29.9621427 C2.14727446,31.3295568 4.02952121,33.1859649 5.41257392,33.3166296 L25.9062004,33.3301811 C27.4187583,33.4023604 29.4781476,31.4051597 29.4781476,29.9621427 L29.4781476,12.0770614 L24.033367,12.0770614 L24.033367,15.0134499 C24.033367,15.107597 23.677513,15.6178453 23.5408764,15.6954453 C23.1239781,15.9320966 22.3744739,15.874182 22.0641179,15.4880365 C22.0106328,15.4212777 21.7914153,14.94555 21.7914153,14.9066073 L21.7914153,12.0770614 L9.83400676,12.0770614 L9.83400676,14.9066073 C9.83400676,14.9670897 9.55203345,15.4888924 9.47701172,15.5640674 C9.15781279,15.8835967 8.47063655,15.9145511 8.08454563,15.6954453 C7.94790909,15.6178453 7.59205506,15.107597 7.59205506,15.0134499 L7.59205506,12.0770614 Z M21.7914153,9.83479314 L21.7914153,7.3254897 C21.7914153,6.88613693 21.2634106,5.63498007 21.0229417,5.21103317 C18.752322,1.20607591 12.7805352,1.23588913 10.5634006,5.2787905 C10.339619,5.68661828 9.83400676,6.91024428 9.83400676,7.3254897 L9.83400676,9.83479314 L21.7914153,9.83479314 Z M24.033367,9.83479314 L30.8127072,9.83479314 C31.0290721,9.83479314 31.714109,10.4022429 31.6158391,10.740031 L31.5836054,30.3594146 C31.0617337,33.3433046 28.7118135,35.376167 25.6932585,35.5730199 C19.2060181,35.9958256 12.260375,35.2473568 5.72535464,35.5663155 C2.78367553,35.3078391 0.403375772,33.1183503 0.00815672744,30.1795367 L0.0095829961,10.740031 C-0.0886869144,10.4022429 0.596207295,9.83479314 0.812714877,9.83479314 L7.59205506,9.83479314 L7.59205506,7.53903227 C7.59205506,3.31211627 12.1464161,-0.166045615 16.1915993,0.0061293177 C19.9342709,0.16546602 24.033367,3.64548231 24.033367,7.53903227 L24.033367,9.83479314 Z"></path>
                        </g>
                        <path d="M14.2824479,29.5850706 L14.2824479,17.3429724 L16.3227976,17.3429724 L16.3227976,29.5850706 L14.2824479,29.5850706 Z M9.18157364,24.4841964 L9.18157364,22.4438467 L21.4236718,22.4438467 L21.4236718,24.4841964 L9.18157364,24.4841964 Z" id="Forma" fill-rule="nonzero"></path>
                    </g>
                </g>
            </g>
        </g>
    </g>
</svg>