<?xml version="1.0" encoding="UTF-8"?>
<svg width="200px" height="28px" viewBox="0 0 200 28" version="1.1" xmlns="http://www.w3.org/2000/svg" xmlns:xlink="http://www.w3.org/1999/xlink">
    <title>LOGO ROSA AMIE W Copia</title>
    <g id="Símbolos" stroke="none" stroke-width="1" fill="none" fill-rule="evenodd">
        <g id="header" transform="translate(-40, -23)">
            <g id="LOGO-ROSA-AMIE-W-Copia" transform="translate(40, 23)">
                <path d="M9.70967101,12.1419308 C7.98646389,12.1419308 6.57143032,12.7430086 5.46376881,13.9447647 C4.35650805,15.1469203 3.8026773,16.6306438 3.8026773,18.3967342 C3.8026773,20.1628245 4.35650805,21.6473468 5.46376881,22.8487036 C6.57143032,24.0508591 7.98646389,24.6515375 9.70967101,24.6515375 C11.4320766,24.6515375 12.8719564,24.0508591 14.0289097,22.8487036 C15.1854622,21.6473468 15.7641392,20.1692147 15.7641392,18.415106 C15.7641392,16.661796 15.1854622,15.1772737 14.0289097,13.9631366 C12.8719564,12.7489994 11.4320766,12.1419308 9.70967101,12.1419308 L9.70967101,12.1419308 Z M9.70967101,8.83021193 C10.9399607,8.83021193 12.1149476,9.02071964 13.2354329,9.40093628 C14.3551168,9.78115292 15.376618,10.3390969 16.2995356,11.0747681 C17.2224533,11.8108388 17.954616,12.810505 18.4964243,14.0733674 C19.0370305,15.3370286 19.3083354,16.7776183 19.3083354,18.3967342 L19.3083354,27.5950214 L15.6166647,27.5950214 L15.6166647,25.2402343 C15.5669722,25.3137215 15.4748007,25.4187604 15.3397493,25.5533539 C15.2042972,25.6879473 14.9522281,25.9092079 14.5827404,26.2155379 C14.2136535,26.5222673 13.807698,26.7982438 13.3644731,27.0434676 C12.9216489,27.2886914 12.3614062,27.5095525 11.6849473,27.7056516 C11.007286,27.9013514 10.3123928,28 9.59906516,28 L9.56179579,28 C6.70648167,28 4.39898711,27.06144 2.63931212,25.1851188 C0.879637123,23.3087976 -7.10542736e-15,21.033888 -7.10542736e-15,18.3599905 C-7.10542736e-15,17.182597 0.196766208,16.0363556 0.590699371,14.919669 C0.984231788,13.8037811 1.56250804,12.785743 2.32592887,11.8659542 C3.08854821,10.9461655 4.10363742,10.2100948 5.37159727,9.65814165 C6.63915637,9.10618851 8.06060187,8.83021193 9.63553303,8.83021193 L9.70967101,8.83021193 Z" id="Fill-1" fill="#000000"></path>
                <path d="M36.1800159,11.8474626 C36.1800159,11.7496127 36.4998111,11.4185207 37.1402029,10.8541866 C38.5921051,9.6029064 40.0804752,8.92874076 41.6073168,8.8304915 L42.050141,8.8304915 C43.5268894,8.8304915 44.8060701,9.22308915 45.8896869,10.007885 C46.9725022,10.7930803 47.7727916,11.7803656 48.289353,12.9697407 C48.8063151,14.1599146 49.0643955,15.4411489 49.0643955,16.8146415 L49.0643955,19.6107515 L49.0643955,27.6320445 L45.3727248,27.6320445 L45.3727248,20.8620317 L45.3727248,18.5072446 L45.3727248,18.1026653 L45.3727248,17.6976867 C45.3727248,16.9620154 45.3478785,16.3425658 45.2989875,15.8397373 C45.249295,15.3373082 45.1382884,14.7789648 44.9667692,14.1655061 C44.7940478,13.5528461 44.4990988,13.043228 44.0807202,12.6386487 C43.6619408,12.2336701 43.1205331,11.9576935 42.4560965,11.810719 C42.1611476,11.7372317 41.8525733,11.7004881 41.5331789,11.7004881 C40.4259181,11.7004881 39.4901765,12.1545914 38.7271565,13.0619992 C37.9641364,13.9694069 37.5830271,15.2202877 37.5830271,16.8146415 C37.5577801,16.8146415 37.5461585,17.7160585 37.5461585,19.5188924 L37.5461585,24.9094218 L37.5461585,27.6320445 L33.854087,27.6320445 L33.854087,19.5744073 L33.854087,16.7411543 C33.854087,15.2450497 33.4974232,14.0309126 32.7832941,13.0983434 C32.069165,12.166573 31.134225,11.7004881 29.9776725,11.7004881 L29.9039353,11.7004881 C28.4512316,11.7248507 27.4421536,12.2708131 26.8763004,13.3375763 C26.3100465,14.404739 26.0275207,16.1280949 26.0275207,18.5072446 L26.0275207,20.8620317 L26.0275207,27.6320445 L22.5570617,27.6320445 L22.5570617,18.1026653 C22.5570617,16.4344249 22.7658503,14.975064 23.1846297,13.7241832 C23.6026076,12.472903 24.1752734,11.5163706 24.9010242,10.8541866 C25.6271756,10.1916032 26.3653495,9.69516485 27.1167479,9.36407284 C27.8669441,9.03298083 28.6608217,8.84327189 29.497579,8.79374788 C29.6943452,8.76938526 29.9039353,8.75700425 30.1255477,8.75700425 C30.8388753,8.75700425 31.5405813,8.86124432 32.2298641,9.06972445 C32.9183455,9.27820458 33.4721762,9.50545591 33.8909556,9.75028028 C34.3093343,9.99590343 34.7088779,10.296642 35.0907887,10.6516973 C35.4722987,11.0075513 35.7243679,11.2587658 35.8477976,11.4061397 C35.9708266,11.5531142 36.0814324,11.6885065 36.1800159,11.810719 L36.1800159,11.8474626 Z" id="Fill-3" fill="#000000"></path>
                <polygon id="Fill-5" fill="#000000" points="52.7928546 27.595261 56.4845253 27.595261 56.4845253 13.6167081 52.7928546 13.6167081"></polygon>
                <path d="M68.9261208,12.3993758 C67.5479559,12.3993758 66.3661564,12.7488396 65.3819246,13.4481667 C64.3972921,14.1470943 63.7208331,15.1100169 63.3517462,16.3361357 L74.3902904,16.3361357 C74.0212035,15.1100169 73.3619765,14.1470943 72.4150141,13.4481667 C71.4672502,12.7488396 70.3042858,12.3993758 68.9261208,12.3993758 M63.1301337,19.3535062 C63.3517462,20.8500101 63.9913365,22.0945007 65.0497063,23.0881761 C66.1076753,24.0814522 67.3996799,24.5782899 68.9261208,24.5782899 C70.8705396,24.5782899 72.3841567,23.8422192 73.4673727,22.3704773 L75.9780454,24.8722389 C75.0919963,25.8539327 74.0396378,26.614366 72.8213704,27.1535387 C71.603103,27.6927115 70.3042858,27.9630966 68.9261208,27.9630966 C66.2924191,27.9630966 64.0530514,27.0313262 62.2068153,25.1669867 C60.3609799,23.3030465 59.4380623,21.0457099 59.4380623,18.3969738 C59.4380623,15.7478383 60.3609799,13.4913005 62.2068153,11.6265615 C64.0530514,9.76302074 66.2924191,8.83045156 68.9261208,8.83045156 C71.5594217,8.83045156 73.7811567,9.76302074 75.5901234,11.6265615 C77.3994909,13.4913005 78.3035735,15.7478383 78.3035735,18.3969738 C78.3035735,18.6421975 78.2907497,18.9613079 78.2667049,19.3535062 C76.2481481,19.329543 74.1189854,19.3167626 71.8796177,19.3167626 C69.7384326,19.3167626 66.8218044,19.329543 63.1301337,19.3535062" id="Fill-7" fill="#000000"></path>
                <polygon id="Fill-8" fill="#000000" points="113.019437 9.23527046 116.711509 9.23527046 119.886618 23.8420595 119.960355 23.8420595 123.83677 9.23527046 128.193278 9.23527046 132.549385 23.8420595 132.623523 23.8420595 135.318539 9.23527046 138.641524 9.23527046 134.949452 27.5951012 130.223857 27.5951012 126.015224 13.0250558 125.867349 13.0250558 122.064672 27.5951012 117.154333 27.5951012"></polygon>
                <path d="M153.482625,13.9815084 C152.424255,12.8041148 151.033667,12.2154181 149.310861,12.2154181 C147.588054,12.2154181 146.185043,12.8041148 145.102228,13.9815084 C144.019012,15.1589019 143.477604,16.6306438 143.477604,18.3967342 C143.477604,20.1628245 144.019012,21.6345664 145.102228,22.8119599 C146.185043,23.9893535 147.588054,24.5780502 149.310861,24.5780502 C151.033667,24.5780502 152.424255,23.9893535 153.482625,22.8119599 C154.540995,21.6345664 155.07038,20.1628245 155.07038,18.3967342 C155.07038,16.6306438 154.540995,15.1589019 153.482625,13.9815084 M142.536653,11.6450931 C144.419357,9.76877191 146.677159,8.83061132 149.310861,8.83061132 C151.944162,8.83061132 154.202765,9.76877191 156.085469,11.6450931 C157.968173,13.5218137 158.909926,15.7723607 158.909926,18.3967342 C158.909926,21.0219064 157.968173,23.272054 156.085469,25.1483752 C154.202765,27.0250958 151.944162,27.9632564 149.310861,27.9632564 C146.677159,27.9632564 144.419357,27.0250958 142.536653,25.1483752 C140.653548,23.272054 139.712196,21.0219064 139.712196,18.3967342 C139.712196,15.7723607 140.653548,13.5218137 142.536653,11.6450931" id="Fill-9" fill="#000000"></path>
                <path d="M171.461766,8.79374788 L171.461766,13.0248561 C169.714114,13.0248561 168.292668,13.515703 167.19743,14.4965981 C166.102192,15.4778925 165.554773,16.7659163 165.554773,18.3598707 L165.554773,27.5581579 L161.863102,27.5581579 L161.863102,18.3598707 C161.863102,15.4167862 162.742739,13.0863618 164.502815,11.3693961 C166.262089,9.65243041 168.582007,8.79374788 171.461766,8.79374788" id="Fill-10" fill="#000000"></path>
                <polygon id="Fill-11" fill="#000000" points="174.157103 27.595261 177.848774 27.595261 177.848774 2.84217094e-14 174.157103 2.84217094e-14"></polygon>
                <path d="M190.400935,24.6885208 C192.123741,24.6885208 193.563621,24.0814522 194.720574,22.867315 C195.877127,21.6527785 196.455804,20.1694543 196.455804,18.4149462 C196.455804,16.6616363 195.877127,15.1839036 194.720574,13.9813486 C193.563621,12.7799918 192.123741,12.1785147 190.400935,12.1785147 C188.678128,12.1785147 187.263095,12.7799918 186.155433,13.9813486 C185.048173,15.1839036 184.494342,16.6676271 184.494342,18.4337174 C184.494342,20.1998077 185.048173,21.68433 186.155433,22.8856868 C187.263095,24.0878424 188.678128,24.6885208 190.400935,24.6885208 M190.400935,27.9998402 C187.545621,27.9998402 185.232516,27.1112037 183.460418,25.332333 C181.688319,23.554261 180.80227,21.2545894 180.80227,18.4337174 C180.80227,15.6372081 181.577313,13.3439266 183.128199,11.5530743 C184.678685,9.76302074 186.942899,8.85521357 189.921242,8.83045156 L189.994979,8.83045156 C190.807291,8.83045156 191.576322,8.92231063 192.302474,9.10642814 C193.028225,9.29054565 193.625336,9.51739759 194.093006,9.78698397 C194.560276,10.0573691 194.972643,10.3333457 195.329708,10.6149137 C195.685971,10.8972805 195.938842,11.1245318 196.086717,11.2954695 L196.307929,11.5902173 L196.307929,0 L200,0 L200,18.4337174 C200,20.0524338 199.723085,21.4938223 199.169254,22.7570841 C198.615423,24.0203459 197.870837,25.026003 196.935897,25.7740552 C196.000156,26.5225069 194.979055,27.0800515 193.871394,27.4478871 C192.763732,27.8161221 191.606779,27.9998402 190.400935,27.9998402" id="Fill-12" fill="#000000"></path>
                <path d="M57.377347,9.47793813 C57.377347,9.49630995 57.3737403,9.51428237 57.3701336,9.5322548 C57.1573375,10.5415063 56.4937024,11.3255034 55.69181,11.9169959 C55.5106729,12.0475955 55.3263298,12.1710062 55.1347733,12.2872279 C54.9889018,12.3742943 54.8081654,12.5196712 54.6446611,12.5560155 C54.4711381,12.5959542 54.2403085,12.407044 54.0984445,12.3199776 C53.9281275,12.2221278 53.7614173,12.1130951 53.597913,12.0004679 C52.8845854,11.4996363 52.2566166,10.8534277 51.9408289,10.015114 C51.7881447,9.61213224 51.713606,9.18398914 51.85547,8.76662949 C51.9905214,8.38201959 52.2674368,8.04413799 52.6220968,7.85203274 C53.3033648,7.48180078 54.1337101,7.72862209 54.5845492,8.32011457 C54.9925085,7.7937222 55.7022294,7.51814502 56.3410182,7.75378348 C57.0331063,8.01178763 57.4731252,8.73387973 57.377347,9.47434365 L57.377347,9.47793813 Z" id="Fill-13" fill="#FF6A9F"></path>
                <path d="M108.244143,15.3018992 L108.244143,15.3169971 C108.244143,15.3915427 108.229703,15.4660884 108.215263,15.5406341 C107.353531,19.691602 104.66772,22.9164106 101.422017,25.3499969 C100.689311,25.8873863 99.9426319,26.3950519 99.1670728,26.8729935 C98.5778341,27.2310959 97.8455944,27.828405 97.1846224,27.9774963 C96.4812624,28.1416856 95.5473308,27.3655612 94.9729978,27.006987 C94.2836119,26.6040629 93.6086658,26.156317 92.9476937,25.6934732 C90.0606572,23.6330871 87.5187795,20.9753919 86.2406207,17.5264745 C85.6229682,15.8694844 85.3211289,14.107281 85.8959277,12.3903713 C86.4413811,10.8079268 87.5616332,9.41939548 88.9981644,8.62817326 C91.7557082,7.10517662 95.1164646,8.12050771 96.9405425,10.554094 C98.5922739,8.38943834 101.464871,7.2547398 104.050068,8.22477731 C106.850931,9.28493017 108.631689,12.2563777 108.244143,15.3018992" id="Fill-1" fill="#FF6A9F"></path>
            </g>
        </g>
    </g>
</svg>