<?xml version="1.0" encoding="UTF-8"?>
<svg width="132px" height="40px" viewBox="0 0 132 40" version="1.1" xmlns="http://www.w3.org/2000/svg" xmlns:xlink="http://www.w3.org/1999/xlink">
    <title>bbva-2</title>
    <g id="Página-1" stroke="none" stroke-width="1" fill="none" fill-rule="evenodd">
        <g id="bbva-2" transform="translate(-0, 0)" fill="#454545" fill-rule="nonzero">
            <path d="M112.884853,0 L113.315953,0 C113.829215,0.329772457 114.023977,0.949344952 114.306568,1.46252419 C118.199581,8.84010033 122.098391,16.2143454 125.99628,23.589923 C127.879996,27.1830437 129.802322,30.7569777 131.666667,34.3598251 L131.666667,34.4301099 C131.555713,34.6331032 131.467226,34.9521497 131.180748,34.9237693 C129.287281,34.9297651 127.390915,34.9336291 125.498502,34.9219705 C125.044275,34.9404244 124.921725,34.4389704 124.750089,34.1159933 C124.405696,33.4544498 124.034356,32.8095614 123.723698,32.1306299 C123.192251,31.2185259 122.773736,30.2467964 122.242289,29.3356917 C121.834118,28.434247 121.306493,27.5980907 120.895686,26.6984447 C120.641888,26.1540204 120.308104,25.6524998 120.056414,25.1073426 C119.683229,24.2975014 119.199881,23.5472191 118.837237,22.7316485 C118.290373,21.7736429 117.83786,20.7658049 117.291193,19.8075994 C116.907203,18.9490585 116.396049,18.1579377 116.008171,17.3012621 C115.737177,16.7120687 115.374534,16.170509 115.105319,15.5795168 C114.754271,14.8125793 114.287395,14.1070661 113.952819,13.3326005 C113.785795,13.0330072 113.67102,12.616428 113.319972,12.4964441 C113.094243,12.4779236 112.777918,12.4204299 112.650558,12.6653276 C112.060406,13.6243325 111.628252,14.6709437 111.05925,15.6426066 C110.652067,16.5433184 110.12062,17.3792083 109.711658,18.2787876 C109.468666,18.8016269 109.149245,19.2836276 108.904276,19.8046015 C108.718145,20.1959981 108.528983,20.5860623 108.309183,20.9598044 C107.920316,21.6231467 107.642602,22.3461145 107.249057,23.0065921 C106.905785,23.5861256 106.661738,24.2192887 106.319191,24.7988221 C105.959446,25.3968095 105.708746,26.0523572 105.354799,26.6524765 C104.949725,27.3353386 104.664038,28.0816903 104.257909,28.7636864 C103.915625,29.3432865 103.672698,29.9754503 103.329031,30.5549837 C102.969286,31.1529711 102.718585,31.8085188 102.364639,32.408638 C101.983482,33.0513945 101.70379,33.7480472 101.344903,34.4017961 C101.222352,34.5959288 101.10481,34.8397606 100.863662,34.8962549 C100.49331,34.9626091 100.114195,34.9235694 99.7399556,34.9284993 C98.2922155,34.9274334 96.8442119,34.92277 95.3965377,34.9334293 C95.1343065,34.9284993 94.8197609,34.93243 94.64035,34.7041874 C94.5844776,34.4553591 94.6045732,34.1860783 94.7386537,33.9666963 C100.644587,22.7717542 106.562776,11.5841403 112.474178,0.391196741 C112.565037,0.219715063 112.72791,0.106459876 112.885183,0 L112.884853,0 Z M0,5.37649022 C0.405338233,4.94452161 1.01973664,5.08582411 1.54347423,5.07123418 C6.81675861,5.07409887 12.0887252,5.07123418 17.3623391,5.07230011 C18.9132585,5.0194699 20.483483,5.25650634 21.9391954,5.80592724 C24.3891462,6.69464736 26.4975375,8.69060348 27.2904903,11.2292518 C27.6415374,12.1921208 27.7177031,13.2284057 27.7882683,14.243039 C27.7236988,15.3297558 27.5934398,16.4341937 27.1873109,17.4517583 C26.7000748,18.6428698 25.9969922,19.790278 24.9486605,20.5561496 C24.6959171,20.802846 24.3041516,20.9074405 24.1199309,21.2176931 C25.5148954,21.7269417 26.7147677,22.6916095 27.6193993,23.8691969 C29.1067376,25.8360398 29.5205753,28.4389771 29.2678978,30.8537109 C29.1348056,32.4458124 28.682358,34.0262552 27.8605466,35.3972426 C27.3119036,36.249721 26.6347806,37.0311818 25.8129692,37.6243725 C24.0188599,38.9707768 21.7984603,39.5911488 19.605931,39.8467058 C19.1565801,39.9083965 18.6953695,39.8750862 18.2544521,40 L0.402307421,40 C0.253797606,39.8790168 0.115829749,39.744443 0,39.5901495 L0,5.3764236 M5.91851801,10.3784389 C5.74971493,10.5871615 5.79596777,10.8720983 5.78648001,11.1219259 C5.80163407,13.7141372 5.76335359,16.3071481 5.8055873,18.89856 C5.96279423,19.0968232 6.20394149,19.2324629 6.45951805,19.2186724 C9.86839151,19.2214705 13.2781874,19.2146752 16.6865338,19.2225364 C17.1611195,19.2431222 17.6280623,19.1425916 18.0959275,19.076304 C19.1568436,18.9201451 20.2169033,18.4957046 20.9568827,17.6861299 C21.4631602,17.1768147 21.6937655,16.4703022 21.8643475,15.78744 C21.9057906,15.2344216 22.0805235,14.6790714 21.9281923,14.1268525 C21.8548598,13.1923639 21.4795661,12.284124 20.8535716,11.590336 C19.9767443,10.7864907 18.8028974,10.4020892 17.6455224,10.2605202 C17.2751703,10.2235458 16.8988883,10.2792407 16.5313693,10.2050918 C16.0742437,10.1054273 15.6063126,10.1532609 15.143389,10.1475982 C12.3451583,10.144467 9.54705949,10.1503962 6.75001485,10.1436009 C6.45866152,10.1436009 6.16730819,10.2246117 5.91845213,10.3786387 M6.10840501,24.4216158 C5.99461776,24.4577908 5.88570617,24.5260104 5.8509836,24.6498583 C5.64541545,25.0519142 5.68784683,25.5143951 5.68988933,25.9512936 C5.69377668,28.6187198 5.68705618,31.2861459 5.69272248,33.9531057 C5.69838878,34.3346424 5.90863493,34.8751362 6.36319092,34.8283018 C9.96485041,34.8301006 13.5673006,34.8262366 17.1686965,34.8293677 C17.5305492,34.8418258 17.8921383,34.8293677 18.2491153,34.7630135 C19.5163902,34.653689 20.8282709,34.397066 21.8961052,33.6585756 C22.7544181,33.0438664 23.2262366,32.0274344 23.4095348,31.003874 C23.652461,29.8224225 23.5618661,28.5862088 23.2224151,27.4331378 C22.9184114,26.5434184 22.3184423,25.7327777 21.4773918,25.3015419 C20.3663355,24.6829021 19.0912858,24.4976966 17.8458854,24.3901708 C14.0504516,24.3911701 10.2550178,24.3911701 6.4592545,24.3901708 C6.34145875,24.3874116 6.22372361,24.3978684 6.10820735,24.4213493 L6.10840501,24.4216158 Z M35.1478059,5.0996146 C35.5490591,5.03326038 35.9590095,5.08009473 36.36415,5.07230011 C41.9586347,5.07123418 47.5537782,5.0751648 53.1495805,5.07023487 C55.67853,5.20107792 58.248132,6.09552742 60.0749872,7.92006849 C61.4640217,9.30844384 62.3012508,11.2136626 62.5017456,13.1677809 C62.4978582,13.9414471 62.533635,14.7172451 62.4806617,15.4898453 C62.2405027,17.1483676 61.5960597,18.8185485 60.3614648,19.9794142 C60.0124602,20.3492257 59.6333451,20.6927886 59.1896605,20.9423498 C59.0980772,21.0203626 58.9039735,21.0594023 58.9610318,21.2176265 C60.3807698,21.802956 61.6627376,22.7814142 62.5452312,24.0565343 C62.9243463,24.5825047 63.1971194,25.1755622 63.45968,25.7678868 C63.9813751,26.9590649 64.0788882,28.2770888 64.1551197,29.5611361 C64.0905502,30.5541843 64.0315812,31.556093 63.7973521,32.5278225 C63.4558586,34.2214539 62.5848953,35.7911708 61.3685511,36.9989374 C60.8718273,37.4137845 60.3702278,37.8293644 59.812756,38.1590702 C58.2404891,39.1325985 56.4108007,39.5825547 54.5991655,39.8243212 C54.0939422,39.9112612 53.5730377,39.8644269 53.0742055,40 L35.2339205,40 C34.9562058,39.8361131 34.6872542,39.5776248 34.7227674,39.2213373 C34.7248758,28.0983455 34.7248758,16.9746875 34.7227674,5.85169566 C34.7112371,5.54437438 34.8926247,5.25544041 35.1482012,5.0996146 M41.1246341,10.1805088 C40.9393592,10.2244784 40.7378761,10.292698 40.6384523,10.4711749 C40.4658277,10.7181378 40.5149137,11.0341198 40.5082591,11.3179906 C40.5170221,13.6926854 40.5110922,16.0673802 40.510038,18.4410757 C40.4938298,18.7505288 40.6974213,19.017811 40.9305962,19.1942227 C41.6241911,19.2559134 42.3235181,19.2012844 43.0199461,19.2187391 C45.9792052,19.2168737 48.93741,19.2226031 51.8969325,19.2168737 C52.8895895,19.1036851 53.9167714,18.9727755 54.7877347,18.438211 C55.6849211,18.0304923 56.2519466,17.1474349 56.556675,16.2331991 C56.7862261,15.4938426 56.7072273,14.7123818 56.7111147,13.9503742 C56.645491,13.4098805 56.4748431,12.8781807 56.2316533,12.392316 C55.5362136,11.1853488 54.1965945,10.5201411 52.8673196,10.3239431 C52.3445704,10.1912347 51.8015278,10.3005593 51.276736,10.1912347 C50.8754828,10.1123558 50.4665208,10.1513955 50.0624344,10.1475315 C47.1996343,10.1444004 44.336966,10.1503962 41.474693,10.1436009 C41.3560301,10.1444004 41.2394756,10.1561256 41.1246341,10.1805754 M40.9305962,24.4234145 C40.6433279,24.4867042 40.4977171,24.7931594 40.5131347,25.0701016 C40.5110922,27.868171 40.5149137,30.6651744 40.5110922,33.462311 C40.5149137,33.8185985 40.4763038,34.1902088 40.6132174,34.5287751 C40.6819378,34.7679435 40.9712486,34.8223059 41.1853821,34.8272359 C44.8506228,34.8322324 48.5166541,34.8233719 52.1832784,34.8322324 C52.6676813,34.8566822 53.1412128,34.7307025 53.6235074,34.7083179 C54.8588929,34.552159 56.1274856,34.192274 57.0802808,33.3433931 C57.8317906,32.5775215 58.1993095,31.505328 58.2804167,30.4459256 C58.3766121,29.9210212 58.3990137,29.3833921 58.2920129,28.8584876 C58.1983212,27.6702409 57.7875802,26.4018494 56.813174,25.6596282 C55.6346491,24.7394631 54.1066584,24.5268098 52.6676813,24.3901708 C49.0021771,24.3912367 45.3357505,24.3912367 41.6704439,24.3901708 C41.4236304,24.3961666 41.1726659,24.3696516 40.9305303,24.4234811 L40.9305962,24.4234145 Z M64.3668154,5.81265593 C64.192346,5.45556899 64.5377269,5.02619859 64.9130205,5.07016825 C66.714575,5.06910232 68.5174473,5.0790288 70.320056,5.06623763 C70.5295774,5.05557832 70.7609074,5.08575749 70.8728498,5.29268138 C71.3001285,5.95602368 71.6455752,6.67106363 71.9889136,7.38237283 C72.2058802,7.83699248 72.483529,8.25856825 72.7008251,8.71325452 C73.1010241,9.59024939 73.6191613,10.4047541 74.015473,11.2838808 C74.5458652,12.1959181 74.9654351,13.1677143 75.4961567,14.0790854 C75.9511739,15.0643389 76.5233386,15.9874353 76.9726895,16.9755535 C77.3634008,17.6664102 77.7182694,18.3756541 78.0723473,19.0867635 C78.5217641,19.8233219 78.8363098,20.6313644 79.2799944,21.3717202 C79.5895985,21.9161445 79.8191496,22.5024733 80.1393615,23.0409018 C80.5454904,23.7229645 80.8298597,24.4703821 81.2360544,25.151179 C81.638296,25.8343077 81.9113985,26.5874547 82.3442776,27.2517296 C82.5383155,27.6205418 83.1730072,27.6216078 83.3678357,27.2517296 C83.7989359,26.5863887 84.0727632,25.8343077 84.4750706,25.151179 C84.8338266,24.5541909 85.0865041,23.8993761 85.4396596,23.2984574 C85.8448661,22.6155952 86.1301578,21.8693102 86.5364185,21.186448 C86.9376717,20.4770708 87.2501089,19.7189939 87.6735003,19.0215418 C88.1673909,17.9745975 88.7634727,16.9826153 89.2507087,15.9328064 C89.6501171,15.246813 89.9865373,14.5277758 90.3512231,13.8235951 C90.7776453,13.1280083 91.0726224,12.3620702 91.4903474,11.6625528 C91.8511459,11.036185 92.1154855,10.3600516 92.4809619,9.73654845 C92.8512482,9.11797526 93.1099873,8.44004304 93.4811301,7.82146985 C93.9770632,6.97751885 94.2972752,6.02737444 94.8838033,5.23811903 C95.0168955,5.03019583 95.2780725,5.07703018 95.4883845,5.06530494 C97.2583131,5.08196011 99.029296,5.06843611 100.799225,5.07023487 C101.039581,5.04292038 101.242119,5.20507516 101.355906,5.4070025 C101.468573,5.74343703 101.226701,6.049759 101.07404,6.32696773 C95.4460849,16.9629622 89.8343378,27.6076174 84.2082273,38.2449443 C83.8860388,38.8525917 83.6139245,39.5130693 83.1154217,40 L82.6910421,40 C82.0514748,39.5950794 81.8362871,38.8057574 81.4708106,38.179656 C75.7674803,27.3924326 70.0762732,16.5958822 64.3671448,5.81265593 L64.3668154,5.81265593 Z" id="Shape"></path>
        </g>
    </g>
</svg>