<?xml version="1.0" encoding="UTF-8"?>
<svg width="35px" height="35px" viewBox="0 0 35 35" version="1.1" xmlns="http://www.w3.org/2000/svg" xmlns:xlink="http://www.w3.org/1999/xlink">
    <title>Artboard Copy 2</title>
    <g id="Artboard-Copy-2" stroke="none" stroke-width="1" fill="none" fill-rule="evenodd">
        <g id="Group-8-Copy" transform="translate(2, 4)" fill="#FFFFFF">
            <path d="M10.0507812,18.3335778 L26.4592266,18.3335778 C26.8655566,18.3335778 27.2219961,18.0624278 27.3319492,17.6685056 L30.9650039,4.83492778 C31.0430488,4.55827778 30.9895859,4.26109444 30.8176328,4.03119444 C30.645498,3.80202778 30.3777598,3.66666667 30.0920391,3.66666667 L7.95410352,3.66666667 L7.30485937,0.718055556 C7.21264648,0.298161111 6.84367383,0 6.41796875,0 L0.908203125,0 C0.406330078,0 0,0.410116667 0,0.916666667 C0,1.42346111 0.406330078,1.83333333 0.908203125,1.83333333 L5.68904492,1.83333333 L8.96874805,16.7291667 C8.00375195,17.1526667 7.32617187,18.1220722 7.32617187,19.2502444 C7.32617187,20.7665944 8.54849219,22.0002444 10.0507812,22.0002444 L26.4592266,22.0002444 C26.9613418,22.0002444 27.3674297,21.5903722 27.3674297,21.0835778 C27.3674297,20.5770278 26.9613418,20.1669111 26.4592266,20.1669111 L10.0507812,20.1669111 C9.55054297,20.1669111 9.14257812,19.7560611 9.14257812,19.2502444 C9.14257812,18.7444278 9.55054297,18.3335778 10.0507812,18.3335778" id="Fill-1"></path>
            <path d="M9,24.5002506 C9,25.8789172 10.1214502,27.0002506 11.5001111,27.0002506 C12.8784943,27.0002506 14,25.8789172 14,24.5002506 C14,23.1218061 12.8784943,22.0002506 11.5001111,22.0002506 C10.1214502,22.0002506 9,23.1218061 9,24.5002506" id="Fill-4"></path>
            <path d="M22,24.5002506 C22,25.8789172 23.1215,27.0002506 24.5,27.0002506 C25.8786667,27.0002506 27,25.8789172 27,24.5002506 C27,23.1218061 25.8786667,22.0002506 24.5,22.0002506 C23.1215,22.0002506 22,23.1218061 22,24.5002506" id="Fill-6"></path>
        </g>
    </g>
</svg>