<?xml version="1.0" encoding="UTF-8"?>
<svg width="34px" height="25px" viewBox="0 0 34 25" version="1.1" xmlns="http://www.w3.org/2000/svg" xmlns:xlink="http://www.w3.org/1999/xlink">
    <title>Group</title>
    <g id="Page-1" stroke="none" stroke-width="1" fill="none" fill-rule="evenodd">
        <g id="Registro" transform="translate(-750, -528)" fill="#CC3333" fill-rule="nonzero">
            <g id="Group" transform="translate(750, 528)">
                <path d="M1.62783134,0 C1.7494114,0.131023947 1.82610956,0.220214952 1.90958987,0.302795559 C6.37703344,4.72327535 10.8446765,9.14355781 15.3134166,13.5628536 C16.2463615,14.4855464 17.3043772,14.4839677 18.2401148,13.5585124 C22.7087552,9.13911805 27.1763982,4.71873686 31.6437421,0.298059763 C31.7261253,0.216465777 31.8005295,0.126880123 31.9160256,0 L1.62783134,0 Z" id="Fill-3-path"></path>
                <path d="M0.163784105,1.53292104 C0.115112185,1.57100481 0.066340536,1.60908859 0.0175688871,1.64717235 C0.0116843619,1.77602572 0.00071324119,1.90497777 0.00071324119,2.0339298 C0,10.1577109 0,14.390337 0,22.5142167 C0,23.8042304 0.766198795,24.558506 2.08054001,24.5586047 C11.8753641,24.5595913 21.6701884,24.5595913 31.4650125,24.5587033 C32.7785558,24.558506 33.5462356,23.8031451 33.5466125,22.5146113 C33.5466125,14.3908302 33.5466125,10.1581054 33.5459364,2.03432445 C33.5459364,1.9056684 33.5344666,1.77711101 33.5284823,1.64845497 C33.4804088,1.61165382 33.4325348,1.57475399 33.384561,1.53785417 C33.3106555,1.66404365 33.2601884,1.81332019 33.1595531,1.91306809 C28.7384876,6.29447749 24.3170229,10.6754922 19.8811962,15.0421022 C19.4924193,15.4247159 19.0436004,15.7848344 18.5571804,16.0261632 C16.9191909,16.8390445 15.1087552,16.4791231 13.7364666,15.1226109 C9.28358463,10.7207783 4.83289697,6.3168739 0.385600379,1.90951624 C0.285264419,1.80996566 0.236592499,1.65950518 0.163784105,1.53292104 L0.163784105,1.53292104 Z" id="Fill-3-path"></path>
            </g>
        </g>
    </g>
</svg>