<?xml version="1.0" encoding="UTF-8"?>
<svg width="69px" height="69px" viewBox="0 0 69 69" version="1.1" xmlns="http://www.w3.org/2000/svg" xmlns:xlink="http://www.w3.org/1999/xlink">
    <title>Bitmap Copia 5</title>
    <g id="Página-1" stroke="none" stroke-width="1" fill="none" fill-rule="evenodd">
        <g id="Bitmap-Copia-5" transform="translate(-8, -8)">
            <g id="Grupo" transform="translate(8.3647, 8.3647)">
                <circle id="Óvalo-2" fill="#FFEEC2" cx="34.0164292" cy="34.0164292" r="34.0164292"></circle>
                <g transform="translate(9.2172, 10.6565)" fill="#454545">
                    <path d="M5.48004892,34.1529104 C2.40050876,34.5995821 1.23910137,38.8474476 3.07917548,41.2096215 C6.13401504,45.1310264 10.5865963,41.9599719 10.9170566,37.8616433 C11.1677796,34.7521485 8.03080458,33.7829459 5.48004892,34.1529104 L5.48004892,34.1529104 Z M21.8537827,3.20374329 C18.0388604,3.08316857 12.0671929,2.87304137 8.8942461,5.34270243 C7.76929007,6.21823242 7.30177744,7.24741943 7.16340617,8.67141291 C7.89866841,8.3193832 8.61594479,7.92033542 9.37422894,7.61374845 C12.5325472,6.33698942 15.9791189,5.8762607 19.3463131,5.52435218 L21.8537827,3.20374329 Z M6.94289944,32.3371399 C11.6063949,32.5987689 13.8873626,35.8690703 12.0766654,40.3732328 C11.6018385,41.5545015 10.8243694,42.4409378 10.0566127,43.422622 C10.3417487,44.3291742 11.0109428,45.0635288 11.7659895,45.6026613 C16.0689284,48.6748324 26.6389826,48.7144585 31.5478054,47.2140001 C32.0721533,47.0536781 34.1206237,46.4087548 33.73081,45.6209596 C31.9693941,44.3289318 29.5283522,44.5885007 27.4531429,44.4836795 C26.1098384,43.0748336 28.0304892,42.7784258 28.8165915,41.9979014 C29.9025782,40.9197574 30.3001857,39.1290714 30.3694913,37.6403675 C30.3958705,37.0727574 30.0097739,36.545137 30.6945558,36.0827117 C32.115919,35.1228401 32.0575248,37.7264057 32.4540533,38.425012 C33.5400399,40.3385752 36.2895994,38.0145732 36.6059108,36.4746099 C36.8934449,35.074489 36.4304886,32.8683958 36.159022,31.4434329 C35.3749581,27.3291084 34.0105502,23.3542629 32.889671,19.3325204 C32.8737235,19.0914922 32.9459068,18.920991 33.0696495,18.723709 C33.4707344,18.0842388 34.3239839,17.2566964 34.8207535,16.5865675 C37.9595272,12.3525166 41.4270824,6.72476741 35.2929425,3.18350612 C30.7495926,0.560551581 26.4390997,1.88396514 22.5764549,4.9933387 C21.6554586,5.73472174 20.9603648,6.67774933 19.9792957,7.28038056 C16.5493908,7.49753623 7.86773272,8.67383652 6.16590998,12.0738012 C5.13639895,14.1304787 6.8197562,17.4152006 9.10863764,17.7020351 C12.9482605,18.1833646 17.6061205,14.1148464 20.4152731,11.844891 C22.1362808,11.8316823 21.4090522,13.2802755 20.938422,14.277592 C18.1876635,20.1066222 11.9265434,22.0708389 8.80119922,27.6861065 C7.99051624,29.1428188 7.37336119,30.7253165 6.94289944,32.3371399 L6.94289944,32.3371399 Z M31.685697,40.3750505 C31.5021213,41.2988104 30.9958791,42.0772747 30.4692529,42.8298064 C32.1598045,42.9039689 35.0036099,43.4424956 35.5211232,45.3718123 C36.0791647,47.4518776 33.5610234,48.4472552 32.0150782,48.9141642 C26.2943734,50.6421998 12.9188836,50.789919 9.06151467,45.3217647 C8.8609123,45.0373537 8.6826124,44.7459143 8.58572853,44.4069722 C7.07407636,44.781905 6.11566946,45.0567426 4.59418501,44.4785899 C0.762595802,43.0224836 -0.726394178,38.5888482 1.37327594,35.0257744 C2.23024255,33.5714857 3.48733475,32.8429478 5.07404794,32.4030622 C5.92861644,29.1395469 7.43055624,25.944741 9.64701459,23.4058858 C11.813712,20.9238643 14.8473283,19.3975944 16.993282,16.8766739 L14.1614672,18.3682862 C12.2428548,19.2178835 9.9955807,19.9316374 7.91149833,19.2467245 C4.96757161,18.2792184 3.0900869,13.8694556 4.64442553,11.0941771 C4.82728185,10.7674741 5.43580368,10.2045901 5.48352618,10.0451164 C5.60103385,9.65200649 5.36925598,8.75345219 5.41074338,8.18414563 C5.95223788,0.74583675 19.1520657,0.944572969 24.3281584,1.63808966 C28.2857686,-0.538314291 32.2228749,-0.603994188 36.1765282,1.62076083 C44.2103354,6.14116154 39.1434768,14.4529403 34.7847818,19.548949 C35.8315593,23.1106898 36.9794173,26.6604337 37.7251114,30.3071222 C38.2741599,32.9917576 39.1732135,36.4714592 37.3634755,38.8029743 C35.9844391,40.5794822 33.7846477,41.6140012 31.685697,40.3750505 L31.685697,40.3750505 Z" id="Fill-1"></path>
                    <path d="M28.5505877,4.02246216 C30.9308357,3.54263474 31.0610595,7.18448121 28.7955324,6.96969193 C27.0063649,6.79994366 26.9979088,4.33549712 28.5505877,4.02246216" id="Fill-3"></path>
                    <path d="M49.145551,16.7239283 C47.7613897,16.7550774 46.6281665,17.6978645 45.4416743,18.2844848 C44.0210845,17.7385693 42.405095,16.4002758 40.7852834,16.9983133 C39.8295445,17.3510052 39.1370458,18.5338015 39.1217578,19.5732625 C39.0787603,22.4935817 43.3480541,25.6565163 45.5030652,27.0722482 C47.5001798,25.7539348 51.3676859,22.6397714 51.6539776,20.0663114 C51.8408973,18.3847575 50.9301863,16.68372 49.145551,16.7239283 M48.6734145,15.005765 C50.079194,14.8506401 51.4576224,15.3677644 52.359495,16.5091114 C54.9559471,19.7946567 52.2570176,23.5872743 49.8255087,25.9001245 C49.2611665,26.4368566 46.3362613,28.8772815 45.7972398,28.9614212 C45.6131866,28.9902124 45.4212505,28.9833869 45.2397055,28.9404483 C44.7975478,28.8358321 42.9211845,27.4260571 42.4484508,27.0525163 C39.872542,25.0180222 36.0891199,21.2448884 37.8852212,17.5447252 C39.4294288,14.3632997 42.7800093,14.7137579 45.3535294,16.2996307 C46.3784227,15.7179744 47.4878778,15.1366904 48.6734145,15.005765" id="Fill-5"></path>
                </g>
            </g>
        </g>
    </g>
</svg>