<?xml version="1.0" encoding="UTF-8"?>
<svg width="41px" height="41px" viewBox="0 0 41 41" version="1.1" xmlns="http://www.w3.org/2000/svg" xmlns:xlink="http://www.w3.org/1999/xlink">
    <title>Group 56</title>
    <g id="Page-1" stroke="none" stroke-width="1" fill="none" fill-rule="evenodd">
        <g id="1_-ZAR-DE-LAS-LLANTAS" transform="translate(-1615, -4382)" fill="#FFFFFF">
            <g id="Group-43" transform="translate(4, 4260)">
                <g id="Group-56" transform="translate(1611, 122)">
                    <g id="Artboard" transform="translate(13, 6)" fill-rule="nonzero">
                        <path d="M3.40350694,30 L9.94750106,30 L9.94750106,14.8735097 L14.5133348,14.8735097 L15,9.80662984 L9.94750106,9.80662984 L9.94750106,6.92207036 C9.94750106,5.72840942 10.2073708,5.25588834 11.4578959,5.25588834 L15,5.25588834 L15,0 L10.4688156,0 C5.59901306,0 3.40350694,1.98022682 3.40350694,5.76911893 L3.40350694,9.80662984 L0,9.80662984 L0,14.936028 L3.40350694,14.936028 L3.40350694,30 Z" id="Fill-13"></path>
                    </g>
                    <path d="M20.5001126,1.8638049 C10.2295591,1.85923395 1.8634351,10.2230007 1.85886048,20.4996499 C1.8542896,30.7703625 10.2177663,39.136536 20.4943365,39.1411909 C30.7648899,39.1457619 39.131014,30.7820754 39.1356688,20.5053459 C39.1402397,10.2347135 30.7766828,1.86837959 20.5001126,1.8638049 M0,19.3014911 C0.10573478,18.512078 0.173122651,17.7153646 0.323060666,16.9344554 C1.56917473,10.4432983 5.10222457,5.59185788 10.8837028,2.41166261 C14.1343654,0.623610041 17.6605963,-0.190672695 21.3579441,0.0375671459 C29.0516335,0.512659004 34.8186715,4.16361398 38.5814017,10.8850166 C40.3933332,14.1216902 41.1898739,17.6592071 40.9619585,21.3567728 C40.4866333,29.0667868 36.8222573,34.831347 30.0856362,38.6037625 C27.5875518,40.0027243 24.8683709,40.7392691 22.0075151,40.934376 C21.903465,40.9414358 21.8013403,40.9774568 21.6982529,41 L19.2962764,41 C19.1932692,40.9774568 19.0911445,40.9412754 18.9870944,40.934376 C16.4716014,40.7690325 14.0589552,40.1685491 11.8026648,39.0563111 C5.51593797,35.9573035 1.66833117,30.9620198 0.323221113,24.0694173 C0.171036836,23.2894708 0.105654556,22.4925969 0,21.7035048 C0,20.9028603 0,20.1021356 0,19.3014911" id="Fill-1"></path>
                </g>
            </g>
        </g>
    </g>
</svg>