<?xml version="1.0" encoding="UTF-8"?>
<svg width="100px" height="100px" viewBox="0 0 100 100" version="1.1" xmlns="http://www.w3.org/2000/svg" xmlns:xlink="http://www.w3.org/1999/xlink">
    <title>icon_garantias copy 3</title>
    <g id="icon_garantias-copy-3" stroke="none" stroke-width="1" fill="none" fill-rule="evenodd">
        <g id="Group-8" transform="translate(16, 16)" fill="#CC3333">
            <path d="M42.5720874,53.0158584 C46.2919435,56.7164152 49.8491779,60.2552491 53.4317372,63.8190881 C54.0221676,62.3245459 54.6252604,60.7744172 55.2460806,59.2314842 C56.5828699,55.90942 55.8737746,56.645178 59.2246117,55.2988668 C60.7667131,54.6791391 62.3202106,54.0874746 63.6568191,53.565788 C60.7431972,50.671327 57.8310224,47.7781251 54.9358514,44.902013 C54.527398,46.1468652 54.0914491,47.5372498 53.6151614,48.9137829 C52.750861,51.4110425 50.7225229,52.9057646 48.0654053,52.9991285 C46.9858439,53.0370857 45.9039309,53.0129801 44.8229223,53.0154986 C44.110571,53.0171177 43.3984005,53.0158584 42.5720874,53.0158584 M26.3173439,53.098069 C26.01833,53.0719847 25.6968855,53.0225144 25.3750793,53.019816 C24.1741395,53.0101019 22.9730189,53.0172975 21.7720792,53.0154986 C18.1761339,53.0106415 16.2802085,51.640045 15.1744178,48.2555583 C14.7891185,47.0765466 14.3922422,45.9011328 14.0188818,44.7786072 L5.24075234,53.5260319 C7.14282813,54.2680861 9.1058644,55.083896 11.1068879,55.7942892 C12.1808417,56.1754802 12.8579192,56.7820757 13.2453891,57.8734801 C13.9628054,59.8945658 14.8023236,61.8726574 15.5617068,63.7948026 C19.1252725,60.2505719 22.6834114,56.7122777 26.3173439,53.098069 M23.727518,7.93584155 C22.8858291,7.93584155 22.0439594,7.91893171 21.2029941,7.93979917 C19.9477868,7.97110037 19.1931068,8.51797182 18.7833872,9.70903625 C18.3076422,11.0920454 17.8479965,12.4809909 17.4077062,13.8755131 C16.9871331,15.2070731 16.2145448,16.2711339 15.0803541,17.0862242 C13.9360335,17.9086901 12.7955116,18.7361929 11.6573412,19.5669338 C10.4169671,20.4723299 10.1644424,21.2616957 10.6387403,22.7513807 C11.0824676,24.1448235 11.5345158,25.5357479 11.9825844,26.9277516 C12.360648,28.1020861 12.3626378,29.275701 11.9824036,30.4507551 C11.5321642,31.842399 11.0830102,33.2344027 10.6389212,34.6280254 C10.1655277,36.1142925 10.4157009,36.9097746 11.6529998,37.817869 C12.7407014,38.6160495 13.8253278,39.4189072 14.9331083,40.1888446 C16.1899435,41.0623998 17.0225878,42.2191049 17.4724654,43.6724517 C17.8697035,44.955261 18.2931708,46.2301551 18.7207987,47.5034302 C19.1960011,48.9189997 19.8701843,49.4075862 21.383343,49.4234167 C22.7657171,49.4379879 24.148272,49.4338504 25.530827,49.4255754 C26.9918889,49.4167607 28.3080566,49.8276338 29.4838524,50.6986705 C30.4955794,51.4481003 31.5219587,52.1781017 32.5425494,52.9160184 C34.1217336,54.0577924 34.870806,54.0628294 36.4239417,52.9424625 C37.4694955,52.1881757 38.5221041,51.4434231 39.5577088,50.6758243 C40.7090842,49.8222371 42.0004698,49.4253955 43.4271623,49.4270145 C44.8397453,49.4288134 46.2525091,49.4397868 47.6647303,49.4225172 C49.1257922,49.4048878 49.8021461,48.9134231 50.264867,47.5446254 C50.6950273,46.2722498 51.1183138,44.9971759 51.5142857,43.7140068 C51.9721224,42.2297185 52.8192381,41.0489079 54.1084529,40.1636597 C55.1216271,39.4678378 56.1047733,38.7286619 57.0996774,38.0065757 C58.6661992,36.8700185 58.885259,36.1835509 58.2798146,34.3232885 C57.8639446,33.0460559 57.4500645,31.7681036 57.0314812,30.4917704 C56.6365947,29.2877538 56.6402126,28.0866154 57.0327475,26.8827786 C57.4862429,25.4923939 57.9399191,24.1020092 58.3820184,22.7080267 C58.8326195,21.2868805 58.5683368,20.4582983 57.3818684,19.5874415 C56.2460497,18.7538223 55.1024526,17.9302771 53.956323,17.1106895 C52.8214088,16.2990171 52.0319976,15.2464695 51.6090729,13.9145497 C51.1754756,12.54917 50.7246936,11.1890071 50.2646861,9.83226222 C49.8101053,8.49206738 49.0688113,7.95167204 47.6607507,7.93728068 C46.2783766,7.92324911 44.8949172,7.90382079 43.5134476,7.94177798 C41.9729743,7.98387269 40.6275021,7.51543412 39.407207,6.60194293 C38.375401,5.82966689 37.3215262,5.08635346 36.2738017,4.33494489 C34.8908849,3.3435605 34.1262559,3.33816374 32.7639608,4.31317797 C31.6426134,5.11585574 30.5250648,5.92393026 29.4078779,6.73254446 C28.2785713,7.54997337 27.0280672,7.97757647 25.6207301,7.93674101 C24.9901418,7.91839203 24.358649,7.93368284 23.727518,7.93584155 M57.6237205,42.0787892 C58.8794704,43.3243609 60.0711847,44.5040921 61.2603664,45.6865217 C63.5777695,47.9912971 65.8986094,50.2924746 68.208415,52.6048054 C69.4945547,53.8924718 69.1874007,55.2828564 67.4765274,55.9509751 C64.9623142,56.9328252 62.4506335,57.9215112 59.9226726,58.8677427 C59.3338703,59.0881103 59.0221939,59.4243283 58.8020488,60.0080776 C57.8952389,62.411074 56.9303628,64.7926631 55.9880982,67.1825274 C55.1550921,69.295358 53.8805294,69.5704128 52.2868739,67.9848454 C48.2267607,63.945732 44.1648385,59.9082376 40.1025545,55.8712829 C39.8929011,55.6629681 39.6722133,55.4656266 39.390384,55.2011855 C36.1518807,58.0931281 32.8753901,58.1193923 29.6189785,55.1941697 C29.3215926,55.4760604 29.0824538,55.6937296 28.853445,55.9212929 C24.7915228,59.9586073 20.732314,63.9986202 16.6689446,68.0346754 C15.1501783,69.5432491 13.8331061,69.2690938 13.0525586,67.2866848 C12.0782761,64.8131708 11.1300421,62.3290432 10.1146972,59.8722592 C9.95659787,59.4892693 9.55881712,59.0893696 9.17460323,58.932144 C6.62113659,57.8882312 4.0381846,56.9160952 1.47115108,55.9045629 C-0.189072564,55.2504759 -0.479041892,53.8773608 0.779783158,52.6208157 C4.06911707,49.3374283 7.36695289,46.0626757 10.667683,42.7904416 C10.8791453,42.5806876 11.1430663,42.4232822 11.4845897,42.1642378 C10.6875811,41.5759912 10.0474055,41.1050342 9.40903882,40.6319184 C7.05202052,38.8848081 6.26007684,36.4501507 7.15133004,33.661646 C7.56955155,32.3531122 8.07062144,31.0661653 8.40291942,29.7369439 C8.56771172,29.0785395 8.57422382,28.31202 8.40852706,27.6552345 C8.06628004,26.2981299 7.54766366,24.9858183 7.12491985,23.6476022 C6.26568448,20.9270967 7.08856063,18.4429691 9.39800443,16.7557627 C10.5363556,15.9241224 11.7239094,15.1527458 12.8076313,14.2565242 C13.3105101,13.8406141 13.7473635,13.2428332 13.9893965,12.6383964 C14.5217607,11.3102543 14.900186,9.9216685 15.3612788,8.56438393 C16.2608531,5.91583513 18.384702,4.38333582 21.2067928,4.34933625 C22.6197375,4.33224651 24.0375663,4.41175874 25.4443608,4.31659592 C26.1248752,4.27054358 26.8607424,4.04351997 27.4379677,3.68535515 C28.6332998,2.94348085 29.7327593,2.05013756 30.8830494,1.23504725 C33.1964728,-0.403948079 35.7694757,-0.41330246 38.0971896,1.21687816 C39.251821,2.02549236 40.3485672,2.92261339 41.5422712,3.66700618 C42.1196774,4.02696992 42.8510224,4.26964412 43.5297279,4.31569646 C44.9663694,4.41301799 46.4144071,4.32918835 47.8573799,4.35059549 C50.6253841,4.39197063 52.7427209,5.92860745 53.6339741,8.5361409 C54.0684759,9.80779692 54.5009878,11.0814317 54.8833928,12.3690981 C55.1424296,13.2412142 55.6073212,13.9091529 56.3695987,14.4249031 C57.4869664,15.1811687 58.5694221,15.9894231 59.6540485,16.7926406 C61.9179076,18.4694132 62.7255889,20.9346521 61.8860707,23.6216978 C61.503123,24.8469417 61.1203563,26.0745242 60.6706596,27.2763822 C60.3048967,28.2539149 60.329498,29.1755012 60.6845883,30.1494361 C61.1549066,31.4394411 61.5734899,32.7501336 61.9598745,34.0676621 C62.6620959,36.4620236 61.8725038,38.8607025 59.9011465,40.397879 C59.1942219,40.9492478 58.4585355,41.4644583 57.6237205,42.0787892" id="Fill-1"></path>
            <path d="M43.9485137,25.7054781 C42.5816078,25.5039419 41.1187143,25.1803005 39.6420822,25.0992556 C38.0293457,25.0110387 37.1006117,24.2862972 36.5107649,22.852772 C35.9635995,21.5227045 35.2299546,20.2663304 34.5014388,18.8249159 C33.8971206,20.0144101 33.3873244,21.0204776 32.87533,22.0256486 C31.3093049,25.0996142 31.8790017,24.7176995 28.2913774,25.2272778 C27.1735993,25.3859607 26.0589353,25.5663392 25.0604089,25.7189258 C26.163166,26.8727387 27.1790948,28.0674327 28.3388216,29.1086435 C29.3329517,30.001571 29.6225628,30.9500823 29.3320357,32.216856 C28.9876531,33.7170817 28.7801076,35.2474304 28.4817038,36.9443512 C30.1600195,36.084774 31.7002159,35.3320612 33.2024935,34.5128272 C34.0890956,34.0294271 34.8958302,34.0213584 35.7835314,34.5006346 C37.2929531,35.3155654 38.8344317,36.0734779 40.5175102,36.9348482 C40.2092145,35.1959705 39.9696121,33.6143413 39.6380522,32.0513596 C39.3989994,30.9244421 39.6420822,30.061996 40.5263029,29.2484996 C41.7190026,28.1511671 42.7853064,26.9224056 43.9485137,25.7054781 M24.2591697,39.8592753 C24.6400056,37.6897126 24.9939137,35.3324199 25.4908872,33.0045328 C25.7024627,32.0138853 25.5084727,31.368037 24.7403895,30.6857901 C23.0516324,29.1855644 21.4617936,27.5786535 19.8219461,26.0249955 C19.2185438,25.4535578 18.8034528,24.8351428 19.0958117,23.9698279 C19.3943988,23.0864034 20.0784013,22.7837405 20.9695829,22.6675523 C23.4103032,22.3494693 25.8409485,21.9584101 28.2818519,21.6415822 C28.8711492,21.5650199 29.1787122,21.3179408 29.428756,20.8060316 C30.4908467,18.6328827 31.6040452,16.4839398 32.6806072,14.3176044 C33.0508186,13.572781 33.5340533,13.0181977 34.454361,13.0004467 C35.4160678,12.9819786 35.9326417,13.5379963 36.3200722,14.3183217 C37.3959015,16.4850156 38.5100159,18.6337793 39.5721066,20.8067488 C39.8223336,21.3188373 40.1286143,21.5643027 40.7190107,21.6401478 C43.2203643,21.9616375 45.7134747,22.3444488 48.2118974,22.6881721 C49.0400643,22.8022086 49.6332084,23.1735445 49.9035854,23.9719795 C50.1679174,24.7528428 49.8627358,25.3669546 49.3047627,25.9012767 C47.4775197,27.6507332 45.6554059,29.4053895 43.8125925,31.1390674 C43.452273,31.4781288 43.3077422,31.7784609 43.4077597,32.2989766 C43.8631508,34.6668482 44.253329,37.0465538 44.6729995,39.4210595 C44.8792627,40.5877823 44.6189607,41.3360125 43.8472139,41.7686699 C43.1240104,42.1742526 42.4484343,41.9919018 41.7708431,41.6408271 C39.568443,40.4999239 37.3515714,39.3850197 35.1632763,38.2188349 C34.6723478,37.9572322 34.3169743,37.9731902 33.834289,38.2283379 C31.5884747,39.4156804 29.3278226,40.5773827 27.0541645,41.7129068 C25.5758837,42.451096 24.1853473,41.5997667 24.2591697,39.8592753" id="Fill-4"></path>
        </g>
    </g>
</svg>