<?xml version="1.0" encoding="UTF-8"?>
<svg width="100px" height="100px" viewBox="0 0 100 100" version="1.1" xmlns="http://www.w3.org/2000/svg" xmlns:xlink="http://www.w3.org/1999/xlink">
    <title>icon_garantias copy 4</title>
    <g id="icon_garantias-copy-4" stroke="none" stroke-width="1" fill="none" fill-rule="evenodd">
        <path d="M61.7338786,21.3549178 C65.2256761,23.8370924 67.6235046,27.145227 68.7560053,31.2661998 C70.4729453,37.5126718 69.0824489,43.1643666 65.0641296,48.236792 C71.2208458,51.6816323 77.9386401,64.547622 78.8416251,71.5229524 C79.3968461,77.709703 78.7291517,80.7779845 72.9596123,81.532734 C70.9815757,81.7914933 62.583522,81.952891 53.5331097,81.991169 L52.3230286,81.9955409 C52.1208729,81.9961472 51.9185216,81.9966921 51.7160381,81.9971754 L50.5000559,81.999333 L48.0707205,81.9991553 C38.7882789,81.9868884 30.0295321,81.8405859 27.9552572,81.532734 C22.3214226,80.6965929 21.3152106,77.4980419 22.3694313,71.5229524 C23.245851,64.6165713 31.0663719,51.6463226 37.1232883,48.2585026 C35.9384202,46.7571355 35.0248217,45.2224891 34.3490196,43.6821635 C33.9922853,43.5222008 33.6367839,43.3539515 33.2841148,43.179575 C31.9920181,42.5407003 30.8266007,41.8596397 29.7979164,41.1723588 L27.4846154,41.1724138 C26.8771022,41.1724138 26.3846154,40.679927 26.3846154,40.0724138 L26.3846154,29.0310345 C26.3846154,28.4235213 26.8771022,27.9310345 27.4846154,27.9310345 L30.7653846,27.9310345 C31.3728978,27.9310345 31.8653846,28.4235213 31.8653846,29.0310345 L31.8640694,38.5775803 C32.2349197,38.8191002 32.6257694,39.0599419 33.0358631,39.2979385 C31.919906,32.5794285 34.7931478,26.2598497 38.8024144,22.6926295 C45.1678247,17.0292443 54.7364027,16.380787 61.7338786,21.3549178 Z M39.5230314,51.7042973 C33.989765,54.5588934 26.7241176,66.7823903 26.3464578,73.0028572 C26.230623,74.9124424 26.752837,76.1699916 28.4427329,77.0210025 C29.2550123,77.4300208 38.4911614,77.6013776 48.2546234,77.6649033 L49.5304598,77.6725885 C52.298439,77.6879608 55.0811127,77.6951718 57.7002451,77.6971519 L60.6396028,77.6972819 C67.0916661,77.6930705 71.9561565,77.6607879 72.0444669,77.6528592 C74.4836178,77.4338671 74.724224,75.3805342 74.7505501,75.0281532 C75.30627,67.5551472 68.1808998,54.330812 62.7366635,51.6973785 C62.0227477,51.3521549 61.5024483,51.3612208 60.7851819,51.7839826 C54.3616149,55.569275 47.8935328,55.5742851 41.4735557,51.7806425 C40.7443229,51.3497691 40.2134931,51.348099 39.5230314,51.7042973 Z M51.1309244,22.0620656 C43.2955608,22.0608727 36.8289147,28.5182484 36.8451278,36.3271734 C36.8489937,38.1622258 37.2114659,39.9223308 37.865835,41.5408131 C40.912521,42.6325146 44.1451351,43.2009945 47.5154732,43.0913729 C48.0380773,41.9577819 49.1779287,41.1724138 50.5,41.1724138 C52.3161672,41.1724138 53.7884615,42.6545057 53.7884615,44.4827586 C53.7884615,46.3110116 52.3161672,47.7931034 50.5,47.7931034 C49.3906797,47.7931034 48.4096515,47.2401642 47.8140586,46.3931399 C45.2939803,46.4938005 42.8448284,46.2573139 40.4842234,45.736609 C43.0979433,48.6563801 46.886325,50.5189549 51.0698958,50.5443268 C58.8803693,50.5915654 65.3912911,44.1403928 65.4131793,36.3324221 C65.4348489,28.5306545 58.9622195,22.0632585 51.1309244,22.0620656 Z M74.6115385,27.9310345 C75.2190517,27.9310345 75.7115385,28.4235213 75.7115385,29.0310345 L75.7115385,40.0724138 C75.7115385,40.679927 75.2190517,41.1724138 74.6115385,41.1724138 L71.3307692,41.1724138 C70.723256,41.1724138 70.2307692,40.679927 70.2307692,40.0724138 L70.2307692,29.0310345 C70.2307692,28.4235213 70.723256,27.9310345 71.3307692,27.9310345 L74.6115385,27.9310345 Z" id="Combined-Shape" fill="#CC3333"></path>
    </g>
</svg>