<?xml version="1.0" encoding="UTF-8"?>
<svg width="100px" height="100px" viewBox="0 0 100 100" version="1.1" xmlns="http://www.w3.org/2000/svg" xmlns:xlink="http://www.w3.org/1999/xlink">
    <title>icon_garantia copia</title>
    <defs>
        <path d="M0,0 L100,0 L100,100 L0,100 L0,0 Z" id="path-1"></path>
    </defs>
    <g id="icon_garantia-copia" stroke="none" fill="none" xlink:href="#path-1" fill-rule="evenodd">
        <use fill="#FFFFFF" xlink:href="#path-1"></use>
        <path d="M77.3910048,44.9706954 L77.3910048,78.8820126 C77.3191104,79.0451959 76.8169067,79.8117323 76.7194615,79.9039432 C76.5670383,80.0485427 75.6801642,80.5030487 75.5226308,80.5195086 L55.5840868,80.5195086 L55.5840868,44.9706954 L77.3910048,44.9706954 Z M80.4248438,33.8637929 L80.4248438,42.6293168 L55.5840868,42.6293168 L55.5840868,31.9873627 L78.6882762,31.9873627 C79.1751495,31.9873627 80.4248438,33.3376067 80.4248438,33.8637929 L80.4248438,33.8637929 Z M64.8748552,25.2009223 C64.343929,26.7800122 62.8641021,27.7927394 61.4329096,28.7725468 C61.1280632,28.981039 60.8390758,29.178735 60.5606611,29.3812096 L51.8661935,29.3812096 C52.9817906,27.1263783 54.1847887,25.0678271 55.444527,23.2584755 L55.5872586,23.053169 C56.3832074,21.9059307 57.4736062,20.3346283 58.6679699,19.7287973 C60.2866517,18.9075714 62.1543208,19.1493375 63.5423414,20.3583447 C64.9548553,21.5889446 65.465341,23.4443132 64.8748552,25.2009223 L64.8748552,25.2009223 Z M53.2531568,31.9873627 L53.2531568,80.6518959 L46.8413372,80.6518959 L46.7467114,80.5568531 L46.7467114,31.9873627 L53.2531568,31.9873627 Z M44.2837988,31.9873627 L44.2837988,42.6293168 L19.4430418,42.6293168 L19.4430418,33.9963572 C19.4430418,33.3767211 20.6439254,31.9873627 21.1794331,31.9873627 L44.2837988,31.9873627 Z M44.4156052,44.9706954 L44.4156052,80.6518959 L24.6088676,80.6518959 C24.4670171,80.6518959 23.7595266,80.3271223 23.5272794,80.1552666 C23.2937988,79.982703 22.632652,79.0813015 22.6086872,78.9078529 L22.6086872,44.9706954 L44.4156052,44.9706954 Z M48.1285645,29.3812096 L39.4356828,29.3812096 C39.2663433,29.2666982 39.0880169,29.14847 38.904228,29.026525 C37.8279262,28.3132621 36.6081879,27.5047794 35.896116,26.5970063 C34.110914,24.3211134 34.8520609,21.7135444 36.5068661,20.3139207 C38.7729502,18.3969601 41.4039689,19.3450866 43.0064392,21.1349695 C45.0610691,23.4298002 46.690676,26.5715199 48.1285645,29.3812096 L48.1285645,29.3812096 Z M82.8519854,33.4770735 C82.618681,31.7463046 80.5577075,29.5135969 78.6882762,29.5135969 L64.6457798,29.5135969 C67.4725699,27.2580577 67.8864915,23.8775806 67.000146,21.4317789 C66.1481618,19.080666 63.8149411,16.6987571 59.8126419,17.0629991 C56.2362467,17.3895426 53.8908674,21.1827564 52.1782647,23.9522697 L51.9883083,24.2593444 C51.6454001,24.812256 51.328395,25.4260515 51.0217865,26.0198473 C50.684517,26.6731112 50.3661023,27.2900925 50.0156169,27.8339777 C49.9969385,27.8630037 49.9838988,27.8907909 49.9743834,27.9161002 C48.5835435,25.1685335 46.7239801,21.7514199 44.5930505,19.4321648 C42.302473,16.9392843 38.9828185,16.3005334 36.1345305,17.8051112 C33.3507362,19.2757072 32.0192796,22.2940661 32.7422767,25.4948999 C33.1454494,27.2798272 34.2892403,28.510604 35.4154101,29.5135969 L21.3114157,29.5135969 C19.4419845,29.5135969 17.381011,31.7463046 17.1478828,33.4770735 C16.9156356,35.2002318 17.0053274,37.1640943 17.0918474,39.063356 C17.1667374,40.7019139 17.2439182,42.3962232 17.1112307,43.9094733 C17.0659443,44.1498235 17.2187199,44.4471639 17.3790727,44.6475147 C17.4756368,44.7680437 17.6694698,44.9706954 17.8819812,44.9706954 L20.1459507,44.9706954 L20.1459507,78.7754656 C20.1459507,79.6598763 20.6782867,80.7055233 21.5699185,81.5729431 C22.4934447,82.4713359 23.5935351,83 24.525167,83 C24.5514225,83 24.5773257,83 24.6032288,82.9987611 L75.6517941,82.9918585 L75.671706,82.9918585 C76.5233378,82.9918585 77.5668642,82.4589467 78.4680115,81.5626778 C79.3356785,80.6995057 79.8539175,79.7071322 79.8539175,78.9078529 L79.8539175,44.9706954 L82.117887,44.9706954 C82.3302222,44.9706954 82.5240552,44.7682207 82.6206193,44.6475147 C82.7809721,44.4473409 82.9337477,44.1498235 82.8884613,43.9094733 C82.75595,42.3962232 82.833307,40.7020909 82.9080208,39.063356 C82.994717,37.1642713 83.0844088,35.2002318 82.8519854,33.4770735 L82.8519854,33.4770735 Z" id="Fill-1" fill="#454545"></path>
    </g>
</svg>