<?xml version="1.0" encoding="UTF-8"?>
<svg width="100px" height="100px" viewBox="0 0 100 100" version="1.1" xmlns="http://www.w3.org/2000/svg" xmlns:xlink="http://www.w3.org/1999/xlink">
    <title>icon_garantias copy</title>
    <g id="icon_garantias-copy" stroke="none" stroke-width="1" fill="none" fill-rule="evenodd">
        <g id="Group-10" transform="translate(17, 17)" fill="#CC3333">
            <g id="Group-3">
                <path d="M55.2875629,23.5548282 L60.1571336,23.5548282 C59.3617928,22.7566502 58.5192784,21.9110418 57.7324569,21.1212564 C56.9770421,21.8731484 56.1757252,22.6708178 55.2875629,23.5548282 M52.4765959,15.7784105 C49.8834417,18.3701682 47.2853286,20.9668852 44.7144262,23.5363901 C46.2514492,23.5363901 47.8937547,23.5474529 49.5355517,23.5217668 C49.7299683,23.518715 49.9549016,23.3488303 50.1087565,23.1981467 C51.1338624,22.1934623 52.1416755,21.1711028 53.1591522,20.1582801 C53.7846168,19.535709 54.4170748,18.9201315 55.0145658,18.3326563 C54.0941067,17.4061747 53.2342995,16.5408567 52.4765959,15.7784105 M49.6666462,12.9117346 C49.5631438,12.7852113 49.5041449,12.6989974 49.4315407,12.6263895 C46.7108523,9.90403929 43.9947413,7.17698421 41.2634992,4.46518822 C40.3617315,3.56986066 39.2724135,3.60215908 38.3527173,4.52088392 C32.158723,10.7085752 25.9679075,16.8993183 19.7777278,23.0906973 C19.6685036,23.199927 19.5802595,23.3300108 19.4398828,23.5024386 C19.6465061,23.5188421 19.7694629,23.537153 19.8925468,23.5372802 C26.1104458,23.5388229 32.3282177,23.5440196 38.5459896,23.521131 C38.8344993,23.5201137 39.1862039,23.3300108 39.4002021,23.118418 C42.1370389,20.4124713 44.8530227,17.685289 47.5771443,14.9663721 C48.2638965,14.2809843 48.9606939,13.6053878 49.6666462,12.9117346 M32.465797,61.1923964 C41.2652793,61.1923964 50.0648888,61.1923964 58.8644982,61.1920286 C60.4769229,61.1919014 61.1853087,60.4862953 61.1853087,58.8796395 C61.1853087,49.1506931 61.1853087,39.4218738 61.1853087,29.6929274 C61.1853087,28.0402399 60.4896382,27.3467139 58.8305484,27.3467139 C41.2736714,27.3463325 23.7169215,27.3463325 6.1600445,27.3467139 C4.50222631,27.3467139 3.80816275,28.0402399 3.80816275,29.6948348 C3.80816275,39.4025456 3.80816275,49.1103836 3.80816275,58.8180944 C3.80816275,60.5122358 4.49129117,61.1923964 6.1939943,61.1923964 C14.9512619,61.1923964 23.7085294,61.1923964 32.465797,61.1923964 M0,60.0500123 C0,49.5155126 0,38.981013 0,28.4465134 C0.0247947958,28.4130706 0.0630677883,28.383061 0.0726042482,28.3456762 C0.908633902,25.0828996 2.90111826,23.5393147 6.28096681,23.5388061 C8.58637421,23.5385518 10.8919088,23.5244371 13.1970619,23.5494875 C13.7222029,23.5552096 14.0945063,23.4112655 14.4724044,23.0320769 C21.4745819,16.0070426 28.4907462,8.99586866 35.5064019,1.98418608 C38.1603351,-0.668353748 41.5231452,-0.659706926 44.1918282,2.00008097 C45.0156511,2.82127475 45.8366768,3.64513887 46.6592282,4.46760424 C52.1480331,9.95553875 57.6322605,15.4477967 63.1289488,20.9277202 C64.3618224,22.1568405 65.1260107,23.6157374 64.9504127,25.3475178 C64.8205897,26.627629 64.9443093,27.8718812 64.9527014,29.1345716 C65.0195838,39.2213438 65.0019095,49.308879 64.9816923,59.3961599 C64.9767333,61.9009408 63.2932302,64.0397577 60.8873721,64.7589698 C60.606873,64.8428949 60.3243395,64.9198262 60.0426961,65.0000636 L4.95069423,65.0000636 C4.81197053,64.9569566 4.67502696,64.9059658 4.53414166,64.8718872 C2.44095228,64.3664295 1.02841184,63.0972541 0.291561368,61.0792384 C0.169621834,60.7451913 0.0960003633,60.3935963 0,60.0500123" id="Fill-1"></path>
            </g>
            <path d="M11.052679,40.5700697 L16.3535676,40.5700697 L16.3535676,36.6082413 L11.052679,36.6082413 L11.052679,40.5700697 Z M13.7251984,44.6817795 C12.6834905,44.6817795 11.6416521,44.6931629 10.6000749,44.6794757 C8.4348901,44.6510172 7.11809305,43.2734908 7.11326004,41.0422096 C7.10973326,39.3764393 7.10620647,37.7105335 7.11430502,36.0447632 C7.12462413,33.9586204 8.48948996,32.5297332 10.5121665,32.5127936 C12.6388179,32.4949054 14.7658612,32.4968026 16.8925126,32.512116 C18.9571187,32.5271583 20.2923334,33.9331433 20.3047425,36.0883996 C20.3145391,37.7766656 20.3158453,39.4650672 20.3040894,41.1533333 C20.2895904,43.2427285 18.9893823,44.6251335 16.9802904,44.6743261 C15.8958693,44.7008873 14.8102726,44.6790692 13.7251984,44.6790692 C13.7251984,44.6800178 13.7251984,44.6808309 13.7251984,44.6817795 L13.7251984,44.6817795 Z" id="Fill-4"></path>
            <polygon id="Fill-6" points="7.109375 54.84375 16.25 54.84375 16.25 50.78125 7.109375 50.78125"></polygon>
            <polygon id="Fill-7" points="20.3125 54.84375 29.453125 54.84375 29.453125 50.78125 20.3125 50.78125"></polygon>
            <polygon id="Fill-8" points="33.515625 54.84375 42.65625 54.84375 42.65625 50.78125 33.515625 50.78125"></polygon>
            <polygon id="Fill-9" points="46.71875 54.84375 55.859375 54.84375 55.859375 50.78125 46.71875 50.78125"></polygon>
        </g>
    </g>
</svg>