<?xml version="1.0" encoding="utf-8"?>
<!-- Generator: Adobe Illustrator 23.1.1, SVG Export Plug-In . SVG Version: 6.00 Build 0)  -->
<svg version="1.1" id="Layer_1" xmlns="http://www.w3.org/2000/svg" xmlns:xlink="http://www.w3.org/1999/xlink" x="0px" y="0px"
	 viewBox="0 0 26 26" style="enable-background:new 0 0 26 26;" xml:space="preserve">
<title>Artboard</title>
<g id="Artboard">
	<g id="twitter-icon" transform="translate(4.000000, 5.000000)">
		<path id="Shape" d="M17.1,16.1c-0.1,0-0.2,0-0.2,0c-1.5,0-3,0-4.5,0c-0.2,0-0.2,0-0.2-0.2c-1.4-1.9-2.8-3.7-4.2-5.6
			c-0.1-0.1-0.1-0.2-0.2-0.2c-0.3,0.3-0.7,0.7-0.9,1c-1.5,1.6-3,3.3-4.5,4.8c-0.1,0.1-0.2,0.2-0.3,0.2c-0.4,0-0.8,0-1.2,0
			c2.1-2.3,4.2-4.6,6.3-6.8C5.1,6.5,2.9,3.7,0.9,0.9c0.1,0,0.1,0,0.2,0c1.5,0,3,0,4.6,0c0.1,0,0.2,0,0.2,0.1
			c1.3,1.7,2.6,3.5,3.9,5.2c0,0.1,0.1,0.1,0.2,0.2c0-0.1,0.1-0.2,0.1-0.2c1.6-1.7,3.3-3.5,4.8-5.2c0.1-0.1,0.2-0.2,0.3-0.2
			c0.3,0,0.7,0,1,0c0.1,0,0.1,0,0.2,0c-2,2.1-3.9,4.2-5.9,6.3C12.7,10.2,14.9,13.1,17.1,16.1z M15,15.1c-0.1-0.1-0.1-0.2-0.1-0.2
			c-1.1-1.5-2.2-2.9-3.3-4.4C9.4,7.7,7.4,4.8,5.3,2.1C5.2,2,5.1,1.9,5.1,1.9c-0.7,0-1.3,0-1.9,0c-0.1,0-0.1,0-0.2,0
			C3,2,3,2.1,3.1,2.1c2.3,3,4.5,6,6.8,9c1,1.3,1.9,2.5,2.8,3.8c0,0.1,0.1,0.1,0.2,0.1C13.6,15.1,14.2,15.1,15,15.1z"/>
	</g>
</g>
</svg>
