<?xml version="1.0" encoding="UTF-8"?>
<svg width="35px" height="35px" viewBox="0 0 35 35" version="1.1" xmlns="http://www.w3.org/2000/svg" xmlns:xlink="http://www.w3.org/1999/xlink">
    <title>iconsheader copia</title>
    <g id="iconsheader-copia" stroke="none" fill="none" fill-rule="evenodd" stroke-width="1">
        <g id="Grupo" transform="translate(4, 1)" fill="#454545">
            <path d="M24.6262469,27.6704243 C18.1040651,31.9864795 9.07600765,31.9864795 2.55382591,27.6685663 C1.99952197,22.9994976 5.08463573,18.2737609 9.78567013,16.6294609 C13.4327598,15.3521092 17.4270088,15.9810307 20.4747214,18.3081332 C23.4409187,20.5720649 24.9849141,24.0622542 24.6262469,27.6704243 M8.70775037,11.5507106 C7.41884987,9.70482129 7.23376223,7.12410641 8.24838777,5.12679287 C9.17286699,3.30784408 10.9441462,2.23115274 13.2361642,2.0964502 C17.3339855,1.86420444 19.3737856,4.77749525 19.5742173,7.59138488 C19.774649,10.4127064 18.1328352,13.5870414 14.057071,13.8908189 C11.768889,14.0617517 9.88061146,13.228454 8.70775037,11.5507106 M26.8319546,25.9443738 C26.7255052,24.6437976 26.4723283,23.4816398 26.0446128,22.3343457 C24.7192702,18.7633349 21.7530729,15.9271497 18.0350169,14.6367923 L19.5512012,13.5247996 C22.0052907,11.033267 22.5279476,7.42881284 20.8842158,4.3418022 C19.2452791,1.26686834 15.9232915,-0.409946047 12.4306014,0.0861308967 C9.12491682,0.549693434 6.52889477,2.77739476 5.65716073,5.89877778 C4.78254968,9.03223757 5.86430545,12.2316552 8.50348266,14.265199 L9.09806473,14.650727 C4.14768946,16.3665587 0.664589318,20.8526178 0.335651171,25.933226 C0.234955819,26.8798597 0.0421961472,27.7521748 0,28.4340484 C3.80820228,31.3696348 8.54855581,33 13.5679793,33 C13.9276056,33 14.2891498,32.9925681 14.6516531,32.9749175 C19.222263,32.7621803 23.4677708,31.2191395 26.9336089,28.6328507 C27.0697874,27.5654492 26.9767641,26.9105162 26.8319546,25.9443738" id="Fill-1"></path>
        </g>
    </g>
</svg>