<?xml version="1.0" encoding="UTF-8"?>
<svg width="25px" height="25px" viewBox="0 0 25 25" version="1.1" xmlns="http://www.w3.org/2000/svg" xmlns:xlink="http://www.w3.org/1999/xlink">
    <title>icon share copy 5</title>
    <g id="icon-share-copy-5" stroke="none" fill="none" fill-rule="evenodd">
        <path d="M12.7426718,8.12686032 C12.7426718,8.03222975 12.7426718,7.9490626 12.7426718,7.86589545 C12.7427326,6.64274803 12.740177,5.41954328 12.7438279,4.19639586 C12.7457142,3.56029042 13.1288202,3.11619734 13.76445,3.01600701 C14.186682,2.94946183 14.5352865,3.09447415 14.8336297,3.37521342 C15.8757315,4.35596673 16.9208149,5.33379687 17.9650464,6.31248676 C19.488343,7.74014168 21.0123698,9.1671088 22.5350578,10.5953369 C23.1520069,11.1739533 23.1553536,11.8020916 22.5427857,12.3766385 C19.9762312,14.7839004 17.4094332,17.1909903 14.8405665,19.5960168 C14.2224004,20.1748051 13.2771095,20.0802892 12.8962549,19.3884715 C12.7931157,19.2011592 12.7516166,18.9648406 12.7492435,18.7503027 C12.7356741,17.5415991 12.7426718,16.3326664 12.7426718,15.1237909 L12.7426718,14.8372053 C12.3411894,14.8558334 11.9637424,14.8612212 11.588851,14.8929175 C9.80439007,15.0436042 8.1181396,15.4961229 6.57829208,16.3782335 C4.77472453,17.411432 3.46640786,18.8424113 2.69490202,20.7001166 C2.67561286,20.7466581 2.66837181,20.8075862 2.63253169,20.8361301 C2.54758634,20.903879 2.44864569,21 2.3554857,21 C2.28842999,21 2.17780631,20.8705204 2.1614379,20.7859203 C1.97457029,19.8223048 1.9533948,18.8510662 2.07996094,17.8804007 C2.36844656,15.6679024 3.26797892,13.6922384 4.76036414,11.968254 C6.446858,10.0201022 8.55631402,8.70220961 11.2209573,8.25473482 C11.4670919,8.21340917 11.7164516,8.18566769 11.9655678,8.16480425 C12.2132845,8.14399814 12.4625833,8.13981399 12.7426718,8.12686032" id="Fill-1" fill="#454545"></path>
    </g>
</svg>