<?xml version="1.0" encoding="UTF-8"?>
<svg width="35px" height="35px" viewBox="0 0 35 35" version="1.1" xmlns="http://www.w3.org/2000/svg" xmlns:xlink="http://www.w3.org/1999/xlink">
    <title>iconsheader</title>
    <g id="iconsheader" stroke="none" fill="none" fill-rule="evenodd" stroke-width="1">
        <g id="Grupo" transform="translate(2, 2)" fill="#454545">
            <path d="M2.42816194,12.6935405 C2.42816194,7.16587112 6.95129604,2.62207414 12.442515,2.62207414 C17.9337339,2.62207414 22.4281619,7.11822687 22.4281619,12.6458963 C22.4281619,18.1727782 17.9624399,22.6220741 12.471221,22.6220741 C6.98000207,22.6220741 2.42816194,18.2204225 2.42816194,12.6935405 Z M22.4368209,20.1445186 C24.0069664,18.0383102 24.948715,15.42928 24.948715,12.5962032 C24.948715,5.64990593 19.3532718,0 12.4747809,0 C5.59629005,0 0,5.64990593 0,12.5962032 C0,19.5416453 5.59629005,25.1924064 12.4747809,25.1924064 C15.9368926,25.1924064 18.7607784,23.7864466 20.0712109,22.2396946 C20.6881104,22.7818353 21.6382085,23.7007994 22.921505,24.9965868 C24.2048015,26.2923742 26.2945162,28.1910346 29.190649,30.6925682 C30.9556163,32.0360126 32.5473423,30.0625706 30.9556163,28.6639767 L22.4368209,20.1445186 Z" id="Forma-combinada"></path>
        </g>
    </g>
</svg>