<?xml version="1.0" encoding="UTF-8"?>
<svg width="100px" height="100px" viewBox="0 0 100 100" version="1.1" xmlns="http://www.w3.org/2000/svg" xmlns:xlink="http://www.w3.org/1999/xlink">
    <title>icon_garantias</title>
    <g id="icon_garantias" stroke="none" stroke-width="1" fill="none" fill-rule="evenodd">
        <g id="Group-10" transform="translate(12, 11)" fill="#CC3333">
            <path d="M37.0233692,3.0100237 C31.7170359,3.30716819 26.6992582,4.84575236 21.9912363,7.22938721 C22.0231836,7.86063521 22.5985283,8.2720434 22.5926394,8.95556409 C22.5807144,10.3605952 20.7940246,10.9269073 19.8774186,9.85818836 C19.6000517,9.53483389 19.6165406,8.9527664 19.1223154,9.08690844 C18.6217596,9.22281744 16.2982972,11.1256908 15.7482747,11.5902551 C13.1838095,13.7561116 11.0177278,16.3347015 9.07056566,19.0628944 C8.93453226,19.5592641 9.57804093,19.5988736 9.88161331,19.8595008 C10.6465804,20.5160753 10.6604193,21.7657608 9.76000769,22.3002675 C8.50935426,23.042687 7.56727876,21.7513306 7.25413693,21.9744099 C4.86354123,26.6869037 3.33552099,31.7018429 3.03710138,37.0146628 C4.44572435,36.6307898 6.89403119,37.5401874 5.81121117,39.2654808 C5.12221081,40.3635019 4.08767971,39.8881885 3.03400972,40.1022857 C3.45344605,45.3083515 4.69084947,50.5471062 7.34261753,55.0637614 C7.70434272,55.1687486 9.1652296,53.6849403 10.1770885,55.0746577 C11.0661639,56.2960718 9.86409386,57.273203 8.91877947,57.8545343 C11.6844976,61.8842436 15.1764633,65.3782683 19.204171,68.1453344 C19.6933907,67.7735357 19.7642046,67.0183057 20.3697299,66.7724032 C21.1080498,66.472461 21.8999585,66.5995351 22.3168921,67.3036704 C23.0790619,68.5906094 21.7602445,69.3710187 22.0517447,69.821889 C22.2534392,70.1337582 26.0835746,71.6991414 26.7200166,71.9269325 C30.0529822,73.1200752 33.4938618,73.7712015 37.0233692,74.030209 C36.6397079,72.6207605 37.5486584,70.171159 39.2730732,71.2546026 C40.3704682,71.9440132 39.8953818,72.9790125 40.1094431,74.0333012 C44.471787,73.7078853 48.7909948,72.7207412 52.7662914,70.8976758 C53.5358223,70.5447247 54.2538255,70.0719145 55.0648731,69.8109928 C55.0330731,69.1795975 54.4575812,68.7683366 54.46347,68.0846686 C54.4753951,66.6797848 56.2622321,66.1133255 57.1788381,67.1820444 C57.4560577,67.5053988 57.4395688,68.0874663 57.9337941,67.9533243 C58.3298221,67.845834 60.1044397,66.4154764 60.5558232,66.0519235 C63.4076664,63.7550171 65.9881789,60.8984248 67.9884883,57.8303858 C68.0194049,57.4893617 67.429338,57.3993937 67.1746434,57.1808792 C66.4095291,56.5245992 66.3959846,55.2743247 67.2961018,54.7401125 C68.5469024,53.9975457 69.4889779,55.2889021 69.8019725,55.0659701 C72.1841766,50.3559795 73.7226496,45.3322055 74.0190081,40.0257172 C72.6103851,40.409443 70.1620783,39.5001926 71.2448983,37.7747519 C71.9340459,36.6767309 72.9684298,37.1520443 74.0220998,36.9379471 C73.6948246,32.5287821 72.6968046,28.1813137 70.8403314,24.1714827 C70.5005424,23.4376035 70.0459199,22.7520214 69.8019725,21.9744099 C69.1709778,22.0063625 68.7599331,22.5820983 68.0766744,22.5762084 C66.6726153,22.5641342 66.1062512,20.7761136 67.1746434,19.8595008 C67.4782158,19.5988736 68.1215772,19.5592641 67.9855438,19.0628944 C65.237934,15.146418 61.8908351,11.6091027 57.827794,9.04391231 C57.4871216,9.01284318 57.3971688,9.60330376 57.1788381,9.85818836 C56.5228156,10.6237256 55.2733399,10.6372724 54.7392174,9.73656231 C53.997217,8.48510984 55.2877677,7.54258163 55.0648731,7.22938721 C50.3575873,4.84589961 45.3364236,3.30672645 40.0327402,3.0100237 C40.6824323,7.029573 36.3702911,7.01852947 37.0233692,3.0100237 L37.0233692,3.0100237 Z M40.7838684,0 L44.5751371,0.495191747 C74.3277333,5.9677747 87.9344598,41.4610812 66.6546542,64.4800615 C44.3993537,88.5542139 6.23889195,75.7287035 0.523575065,44.5703494 L0.0286136939,40.7771188 C0.0947165064,39.2884513 -0.0610446865,37.745597 0.0286136939,36.263114 C1.16899763,17.4018007 17.4211617,1.1410172 36.2722411,0 L40.7838684,0 Z" id="Fill-1"></path>
            <path d="M43.0254119,48.5749934 L43.0254119,57.3482878 C46.661927,56.6169842 50.1671238,54.5793727 52.6280914,51.8012117 L45.1314972,47.5209653 C44.2893862,47.1884079 43.2062315,47.6743292 43.0254119,48.5749934 L43.0254119,48.5749934 Z M34.0226245,57.3482878 L34.0226245,48.5749934 C34.0226245,48.531259 33.652172,47.9031276 33.5757901,47.8218227 C33.1501076,47.3683353 32.4907258,47.3668677 31.9165392,47.5209653 L24.419945,51.8012117 C26.8809125,54.5793727 30.3861094,56.6169842 34.0226245,57.3482878 L34.0226245,57.3482878 Z M57.2787237,32.9026728 C57.0699953,32.8645153 56.907243,32.9430317 56.721723,33.0199338 C55.4985837,33.5268418 50.6818207,36.362239 49.6383258,37.1880558 C48.6851672,37.9424006 48.684139,38.9609128 49.6383258,39.7158447 C50.7295594,40.579232 55.4307213,43.3343516 56.721723,43.8839667 C56.8788936,43.9508891 57.0209346,44.029699 57.2016073,44.0037226 C58.3634942,40.3993046 58.2224814,36.5376168 57.2787237,32.9026728 L57.2787237,32.9026728 Z M19.7693127,44.0010809 C19.978041,44.0392384 20.1407933,43.9608688 20.3263133,43.8839667 C21.5494527,43.3769119 26.3660688,40.5416615 27.4095637,39.7158447 C28.3628692,38.9614999 28.3637505,37.9429876 27.4095637,37.1880558 C26.3183301,36.3245218 21.6171682,33.5695488 20.3263133,33.0199338 C20.1691428,32.9530114 20.0271018,32.8740547 19.8462822,32.9001779 C18.6843953,36.5045959 18.825555,40.3661369 19.7693127,44.0010809 L19.7693127,44.0010809 Z M43.0254119,19.555466 L43.0254119,28.328907 C43.0254119,28.3726414 43.3958643,29.0007729 43.4722463,29.0820778 C43.8979287,29.5354185 44.5571637,29.5370328 45.1314972,29.3829351 L52.6280914,25.1026887 C50.1671238,22.3245278 46.661927,20.2869163 43.0254119,19.555466 L43.0254119,19.555466 Z M34.0226245,19.555466 C30.3861094,20.2869163 26.8809125,22.3245278 24.419945,25.1026887 L31.9165392,29.3829351 C32.4907258,29.5370328 33.1501076,29.5354185 33.5757901,29.0820778 C33.652172,29.0007729 34.0226245,28.3726414 34.0226245,28.328907 L34.0226245,19.555466 Z M40.0244828,18.9556591 L37.0235536,18.9556591 L37.0235536,28.7787255 C37.0235536,29.0153021 36.4241022,30.2940193 36.2485706,30.5537839 C34.9803366,32.4296663 32.4924884,32.9706225 30.4689544,32.0306267 L22.4664767,27.420171 L20.9686561,30.0512788 C23.2609958,31.3029922 25.6069498,32.5420842 27.8214387,33.9269087 C29.1001018,34.7264555 30.2393679,35.2845826 30.7937246,36.805013 C31.9031724,39.8476349 30.2650734,41.4481961 27.915741,42.9212231 C25.6574794,44.3371606 23.2433692,45.5463137 20.9655715,46.9280562 L22.5416835,49.5416995 L30.4689544,44.8732738 C32.4892569,43.9340117 34.979749,44.4727666 36.2485706,46.3501165 C36.4241022,46.6098812 37.0235536,47.8884516 37.0235536,48.1250282 L37.0235536,57.9482414 L40.0244828,57.9482414 L40.0244828,48.1250282 C40.0244828,47.8885984 40.6239341,46.6097344 40.7994657,46.3501165 C42.0675529,44.4742342 44.5555479,43.9332779 46.578935,44.8732738 L54.5814128,49.4837294 L56.0793802,46.8524749 C53.7870405,45.6007615 51.4410866,44.3618162 49.2264508,42.976845 C47.9479345,42.1772982 46.8086684,41.6191711 46.2543118,40.0987407 C45.144864,37.0561188 46.7828161,35.4555576 49.1321485,33.9826774 C51.390557,32.5667399 53.8045202,31.3575868 56.0824649,29.9758443 L54.5062059,27.362201 L46.578935,32.0306267 C44.5587795,32.9698887 42.0682874,32.4311339 40.7994657,30.5537839 C40.6239341,30.2940193 40.0244828,29.0154489 40.0244828,28.7787255 L40.0244828,18.9556591 Z M54.5264765,22.6074805 C65.7187818,33.9025466 61.8324097,53.1330559 47.2240687,59.2203544 C29.6009911,66.5639158 11.453669,49.961579 17.0247037,31.7356397 C21.9337126,15.6754332 42.6640665,10.635999 54.5264765,22.6074805 L54.5264765,22.6074805 Z" id="Fill-4"></path>
            <path d="M44.0221529,10.0374528 C45.2541666,9.75803591 48.7339019,11.1156629 49.9860884,11.6692356 C59.0117257,15.6588175 66.1957477,24.6827256 67.6561411,34.4463869 C67.8008847,35.4135317 68.1641424,38.1792034 67.9148537,38.9845728 C67.5165512,40.2720533 65.6688988,40.366751 65.0874214,39.0876005 C64.9353155,28.4459389 58.3212856,18.5492915 48.5293762,14.310105 C46.8944954,13.6023561 45.1734753,13.2336486 43.5365331,12.5470898 C42.6299348,11.8982347 42.9257536,10.2861806 44.0221529,10.0374528" id="Fill-6"></path>
            <path d="M38.3151321,37.029492 C36.0754402,37.3002092 37.0729613,40.8123585 39.1530796,39.8092847 C40.7096297,39.0587729 39.8980543,36.8381306 38.3151321,37.029492 M37.8571216,34.0489675 C44.0147845,33.2549711 44.9364672,42.3710688 39.0201761,42.9700434 C33.0311756,43.5761922 32.1024901,34.7911338 37.8571216,34.0489675" id="Fill-8"></path>
        </g>
    </g>
</svg>