<?xml version="1.0" encoding="UTF-8"?>
<svg width="35px" height="35px" viewBox="0 0 35 35" version="1.1" xmlns="http://www.w3.org/2000/svg" xmlns:xlink="http://www.w3.org/1999/xlink">
    <title>Frame 4 Copia</title>
    <g id="Frame-4-Copia" stroke="none" fill="none" fill-rule="evenodd">
        <path d="M24.1577595,2.96623088 C22.8609385,2.81182746 20.0177281,2.86915156 18.8069537,2.98154734 C17.4919883,3.10374115 16.4469621,3.51784865 15.5182602,4.28479782 C15.1532579,4.58605906 15.0982683,5.13925352 15.3955909,5.51811065 C15.6924683,5.89651728 16.2379123,5.96758115 16.6114858,5.67623056 C17.3454976,5.10355266 18.0109393,4.821437 18.8365635,4.73302949 C19.596623,4.65182974 20.4482949,4.68843157 21.2720267,4.72390719 C21.9504923,4.75307604 22.6496624,4.78348371 23.3106516,4.7491343 L23.3106516,7.79677181 L20.6579012,7.79677181 C20.0748327,7.79677181 19.3183353,8.42880099 19.0807888,8.95215088 C18.7934845,9.58474317 18.7634295,11.6960495 18.8719617,12.3861911 C18.932851,12.7730443 19.2724734,13.1872645 19.6812225,13.1872645 L23.2927298,13.1872645 L23.0015295,17.0180686 L19.3557371,17.0180686 C18.9637966,17.0180686 18.6448789,17.3407278 18.6448789,17.737379 L18.6448789,31.0697936 L14.749852,31.0697936 L14.749852,17.6275735 C14.749852,17.2915124 14.4796902,17.0180686 14.1475259,17.0180686 L12.0372141,17.0180686 L12.0372141,13.1872645 L14.0389937,13.1872645 C14.2442588,13.1872645 14.6611338,12.8170792 14.7196856,12.6225826 C14.8273273,12.2650109 14.7957138,11.5907488 14.7653248,10.9385605 C14.7475144,10.5564374 14.7307058,10.195487 14.7448428,9.95177509 L14.7506312,9.8543579 C14.8042851,8.93255483 14.8204257,8.65426828 15.1551503,7.80848439 C15.24231,7.58819767 15.2381913,7.34763917 15.1435735,7.13095632 C15.0494009,6.91528706 14.8771965,6.75097299 14.6586849,6.66842178 C14.2537205,6.51525718 13.7977739,6.68880618 13.5984085,7.07205552 C12.9502206,8.31877025 12.9712592,9.38258843 12.9955259,10.6142119 C13.0006464,10.8744791 13.0057669,11.1416162 13.0048764,11.4194523 L10.8923383,11.4194523 C10.7538623,11.4194523 10.4289335,11.6598981 10.3763928,11.7478552 L10.3428869,11.8040531 L10.3444453,11.8697111 C10.362367,12.6326059 10.3255217,13.4438151 10.2866728,14.3027757 C10.2317944,15.5132265 10.1750237,16.7648965 10.2843352,17.8762408 C10.3021456,18.0567723 10.4664467,18.7859934 10.8923383,18.7859934 L13.0046537,18.7859934 L13.1319982,32.3188734 L13.1325548,32.3703412 L13.1550404,32.4165158 C13.3272449,32.7692449 13.6734349,32.8105768 13.9026327,32.8378311 C14.3144986,32.8869338 14.7481822,32.9043901 15.1909937,32.9043901 C15.738998,32.9043901 16.3011393,32.8776989 16.8527056,32.8515708 C17.7579201,32.8085496 18.6938575,32.7644022 19.5332847,32.8400835 C19.6578463,32.8742077 19.8055615,32.8327631 19.9833317,32.714511 C20.079174,32.6505423 20.3921921,32.4267643 20.3921921,32.2281008 L20.3921921,18.7859934 L23.9129776,18.7859934 C24.0831784,18.7859934 24.551815,18.4379944 24.5982334,18.197999 L24.6016842,18.1716457 C24.6504402,17.51957 24.7166727,16.8548807 24.7810128,16.2119273 C24.9207133,14.8127237 25.0650889,13.3658814 25.0402657,11.9331167 L25.0395978,11.8974159 L25.028021,11.8636296 C24.967243,11.6851253 24.6248377,11.4194523 24.4555274,11.4194523 L20.6091452,11.4194523 L20.6091452,9.76065721 C20.6297385,9.72067675 20.673708,9.65332937 20.6977521,9.62607509 C20.9369682,9.49915119 22.0305278,9.53665399 22.7581947,9.5618811 C23.3491666,9.58204027 23.859769,9.59972177 24.1573143,9.56492187 C24.9762595,9.46896876 25.0194498,8.94032568 25.0613042,8.42902623 C25.1165165,7.75375058 25.178519,4.2005573 24.9757029,3.57742518 C24.8141847,3.08121695 24.5348951,3.01105405 24.1577595,2.96623088" id="Forma-combinada" fill="#454545"></path>
    </g>
</svg>