<?xml version="1.0" encoding="UTF-8"?>
<svg width="35px" height="35px" viewBox="0 0 35 35" version="1.1" xmlns="http://www.w3.org/2000/svg" xmlns:xlink="http://www.w3.org/1999/xlink">
    <title>iconsheader copia 2</title>
    <g id="iconsheader-copia-2" stroke="none" fill="none" fill-rule="evenodd" stroke-width="1">
        <g id="Grupo" transform="translate(2, 1)" fill="#454545">
            <path d="M7.20185375,11.1617568 L2.03691313,11.1617568 L2.03691313,27.6913514 C2.03691313,28.9551311 3.82241991,30.6708444 5.13438924,30.7916062 L24.5747251,30.8041306 C26.0095436,30.8708396 27.9630885,29.0250041 27.9630885,27.6913514 L27.9630885,11.1617568 L22.7981479,11.1617568 L22.7981479,13.8756004 C22.7981479,13.9626121 22.4605834,14.4341894 22.3309694,14.5059082 C21.935498,14.7246241 21.2245153,14.6710987 20.9301103,14.3142187 C20.8793742,14.2525194 20.6714236,13.8128465 20.6714236,13.7768552 L20.6714236,11.1617568 L9.32857808,11.1617568 L9.32857808,13.7768552 C9.32857808,13.8327537 9.06109707,14.3150097 8.98993116,14.3844872 C8.68713778,14.6797998 8.03527966,14.7084082 7.66903227,14.5059082 C7.5394183,14.4341894 7.20185375,13.9626121 7.20185375,13.8756004 L7.20185375,11.1617568 Z M20.6714236,9.08942714 L20.6714236,6.7703005 C20.6714236,6.3642457 20.1705563,5.20791236 19.9424465,4.81609584 C17.7885276,1.11466901 12.1236667,1.14222273 10.0204839,4.87871793 C9.80820387,5.25563699 9.32857808,6.38652598 9.32857808,6.7703005 L9.32857808,9.08942714 L20.6714236,9.08942714 Z M22.7981479,9.08942714 L29.2290571,9.08942714 C29.4343017,9.08942714 30.0841304,9.61387065 29.9909112,9.92605824 L29.9603342,28.0585146 C29.4652846,30.8162595 27.2361409,32.695054 24.3727276,32.8769876 C18.2189055,33.2677495 11.6302407,32.5760061 5.43109428,32.8707914 C2.64060573,32.6319046 0.382643869,30.6083542 0.00773750423,27.8922694 L0.00909046837,9.92605824 C-0.0841287611,9.61387065 0.565564621,9.08942714 0.770944578,9.08942714 L7.20185375,9.08942714 L7.20185375,6.96765896 C7.20185375,3.06109534 11.5221389,-0.153461237 15.3594158,0.0056647848 C18.909729,0.152925569 22.7981479,3.36919602 22.7981479,6.96765896 L22.7981479,9.08942714 Z" id="Fill-1"></path>
        </g>
    </g>
</svg>