<?xml version="1.0" encoding="UTF-8"?>
<svg width="35px" height="35px" viewBox="0 0 35 35" version="1.1" xmlns="http://www.w3.org/2000/svg" xmlns:xlink="http://www.w3.org/1999/xlink">
    <title>Frame 4</title>
    <g id="Frame-4" stroke="none" fill="none" fill-rule="evenodd">
        <path d="M27.9824789,9.6881699 C27.8397009,9.67935896 27.704715,9.67112769 27.610752,9.65431735 C25.127492,9.20948087 23.2057185,7.23606243 22.8286059,4.74372606 C22.8078653,4.60611311 22.8060318,4.45435628 22.804313,4.30770052 C22.7983544,3.82054835 22.7902185,3.15323566 21.8850794,3.06895208 C20.8942276,2.97666908 18.8790641,2.97713282 17.8917645,3.06964768 C17.6142298,3.09573269 16.9639368,3.15671366 16.9623325,3.9522487 L16.9687495,22.3688499 C16.8582856,23.7339658 15.9365311,24.8246673 14.6181837,25.1491649 C13.5835589,25.4037546 12.1736548,25.180235 11.3192787,23.7897298 C10.7031332,22.7869058 10.6923618,21.5803868 11.290746,20.5621437 C11.8914219,19.5400748 12.9428913,18.9702621 14.1088352,19.0395903 C14.2183824,19.0459666 14.3603583,19.0831813 14.5106991,19.1223668 C14.929293,19.2319238 15.5028114,19.3818257 15.7921488,18.8760083 L15.8229733,18.822447 L15.8352343,13.7015526 L15.7921488,13.6408035 C15.5582725,13.310741 15.207057,13.2472095 14.8961768,13.2134729 C11.2327639,12.8168647 7.86178235,14.6254259 6.09699592,17.9337015 C4.35718992,21.1947923 4.70599908,24.9814092 7.0070624,27.8157492 C8.79258945,30.0150059 11.2143151,31.2170034 13.8472284,31.2170034 C13.9205654,31.2170034 13.9942462,31.216076 14.0678123,31.214221 C16.7517178,31.1460522 19.3189715,29.7873127 20.9349067,27.5797087 C21.0634757,27.4040696 21.1142387,27.1804341 21.0742471,26.9661892 C21.0343701,26.7532195 20.9076345,26.5651755 20.726813,26.4505174 L20.6977073,26.432084 C20.3572632,26.2159841 19.9157515,26.3018907 19.6714475,26.6320691 C18.3596318,28.4055024 16.2776628,29.5061742 14.1021891,29.5763139 C11.9042559,29.6476129 9.85677823,28.6983502 8.34454614,26.9043967 C6.95194505,25.2522297 6.37281184,23.0567988 6.75576854,20.8806128 C7.14158998,18.6887758 8.44320734,16.817031 10.327281,15.7454585 C10.9842202,15.3716892 12.4216256,14.8172957 13.0609181,14.8172957 L14.3109704,14.8172957 L14.3109704,17.4710113 C12.4962231,17.3030238 10.8156597,18.1893347 9.87683132,19.8281693 C8.90156366,21.5308833 9.03769549,23.5445306 10.2320575,25.0831988 C11.1087785,26.212622 12.4278134,26.8659068 13.8508952,26.8752974 C13.861552,26.8754133 13.8720942,26.8754133 13.882751,26.8754133 C15.3193543,26.8754133 16.6595882,26.2269978 17.5640398,25.0928212 C17.9567365,24.6004521 18.5622252,23.343618 18.5622252,22.6823339 L18.5622252,4.76343474 L21.2353593,4.76343474 C21.4207644,6.41931158 22.1723542,7.98035489 23.3659141,9.17933818 C24.550536,10.3692787 26.0961135,11.1313089 27.7378313,11.3392935 L27.7378313,13.9586929 C26.4570691,13.8795103 25.1443366,13.5009878 23.9259109,12.8579052 C23.7870289,12.7846352 23.4724819,12.5696947 23.1681333,12.3618261 C22.5224239,11.9205836 22.3161635,11.7884195 22.1936678,11.7622185 C21.9415718,11.7081936 21.6623182,11.7832025 21.4644229,11.9576823 C21.2904767,12.1110622 21.1978887,12.3258868 21.2091184,12.5489426 C21.1447193,14.0807707 21.1862006,15.6728842 21.2264214,17.2127117 C21.2709965,18.9205267 21.3169467,20.6864243 21.2177126,22.3646763 C21.1715332,23.1431692 21.1120615,23.6027292 20.8813936,24.2678391 C20.7633669,24.6085674 20.8999571,24.9959009 21.202816,25.1864954 L21.2179418,25.196002 C21.4197331,25.323065 21.6642662,25.3501934 21.8885171,25.270779 C22.1107053,25.1919443 22.2828181,25.0186239 22.3607387,24.7952202 C22.6798693,23.8810853 22.7659257,23.1907019 22.8131364,22.2365699 C22.8857858,20.7661865 22.8522112,19.2428216 22.8196679,17.7695398 C22.7927395,16.5480655 22.7650089,15.2890287 22.7981252,14.0639604 C24.2993567,14.9328813 25.9783159,15.4825215 27.4592652,15.5834995 L27.4997151,15.5862819 C28.297026,15.6414662 29.0621373,15.633119 29.2572825,15.2005715 L29.2777939,15.1551256 L29.2945239,10.243375 L29.2768772,10.2002478 C29.0941076,9.75622281 28.4777329,9.71842852 27.9824789,9.6881699" id="Forma-combinada" fill="#454545"></path>
    </g>
</svg>