<?xml version="1.0" encoding="UTF-8"?>
<svg width="100px" height="100px" viewBox="0 0 100 100" version="1.1" xmlns="http://www.w3.org/2000/svg" xmlns:xlink="http://www.w3.org/1999/xlink">
    <title>icon_garantia</title>
    <defs>
        <path d="M0,0 L100,0 L100,100 L0,100 L0,0 Z" id="path-1"></path>
    </defs>
    <g id="icon_garantia" stroke="none" fill="none" xlink:href="#path-1" fill-rule="evenodd">
        <use fill="#FFFFFF" xlink:href="#path-1"></use>
        <g id="Grupo" stroke-width="1" transform="translate(5, 21)" fill="#454545">
            <path d="M12.8413583,0 L61.0762787,0.10674482 C61.9600078,0.307048964 63.1840674,1.79490254 63.1840674,2.62945645 L63.1840674,14.6872056 L76.1858165,14.6872056 C77.1395888,14.6872056 78.6915517,15.9134032 79.2137681,16.7165807 C81.7669518,22.4825386 87.1331565,28.9272894 89.1915197,34.7094958 C90.0574557,37.1417204 90.1540473,45.2258835 89.8267088,47.9292891 C89.4578529,50.9753128 86.1418208,50.5060689 83.8891446,50.6374572 C81.511351,60.4624455 67.7207698,60.4803748 65.5988595,50.5338033 L44.5773753,50.5338033 C42.5351108,60.3632739 28.6281676,60.5265988 26.3850941,50.7500757 L26.141073,50.5727435 L11.7924065,50.5455694 C11.2230239,50.6273719 9.99529277,49.9365327 9.99529277,49.3924899 L9.99529277,37.5442897 L1.39629007,37.5442897 C-0.281532304,37.5442897 -0.640686939,34.1803006 1.39629007,34.1803006 L3.36621036,34.1809931 C6.0509974,34.182927 8.08600285,34.1886175 10.0742062,34.1943079 L10.9907109,34.1969206 C12.8258565,34.2020913 14.7001666,34.2067695 17.087901,34.2080006 L18.3267492,34.2083152 C20.9398085,34.5708237 20.5196839,37.5442897 18.8852692,37.5442897 L13.3779788,37.5442897 L13.3779788,47.190545 L26.1681864,47.190545 C26.702265,46.0607176 26.9688807,44.932571 27.6653575,43.8523294 C31.423113,38.02586 40.3002277,38.2933991 43.5693761,44.399734 C44.0740818,45.3424241 44.2088018,46.31537 44.7722533,47.190545 L59.4844929,47.190545 L59.8013814,46.8759415 L59.8013814,3.36343807 L13.3779788,3.36343807 L13.3779788,8.60580372 L21.8740329,8.60580372 C24.4783623,8.60580372 24.4783623,11.9700729 21.8740329,11.9700729 L2.92076176,11.9700729 C0.675794753,11.9700729 0.675794753,8.60580372 2.92076176,8.60580372 L9.99529277,8.60580372 L9.99529277,2.62945645 C9.99529277,0.526122866 11.4872107,0 12.8413583,0 Z M37.2657802,54.4236257 C44.0150535,52.2992812 41.6801896,41.9210052 34.4634916,43.0477511 C26.4460994,44.2994419 29.2441515,56.9485785 37.2657802,54.4236257 Z M78.9646632,44.7485153 C73.2304499,38.7545189 64.505001,48.5680212 71.1124936,53.4812157 C76.9771905,57.841963 83.8818013,49.8880675 78.9646632,44.7485153 Z M75.7630161,18.04223 L63.1840674,18.04223 L63.1840674,47.190545 L65.522038,47.098097 C67.9255329,37.223803 81.4766119,37.1829018 83.8897094,47.098097 L86.4392215,47.190545 L86.4392215,37.2296861 C86.4392215,36.5139139 85.1823999,34.1987902 84.784171,33.4191449 C82.5201975,28.9838789 79.417119,23.3361424 76.7470085,19.1608516 C76.5103307,18.7907792 76.2400434,18.1237524 75.7630161,18.04223 Z M9.99529277,16.4695763 C9.99529277,14.3827946 13.3776963,14.3827946 13.3776963,16.6791253 L13.3776963,26.6399842 L26.7700958,26.6418726 C28.7959639,26.8556057 28.4302588,30.0050938 26.5466922,29.9851309 L5.65120885,30.0050938 C3.64945455,29.9851309 3.64945455,26.6399842 5.65120885,26.6418726 L9.99529277,26.6399842 Z M30.20538,17.8370513 C32.5715485,17.8776724 32.5715485,21.1685434 29.7896491,21.1685434 L17.8397467,21.1685434 C15.3897311,21.1685434 15.3897311,17.8776724 17.5707922,17.8776724 Z" id="Forma-combinada"></path>
        </g>
    </g>
</svg>