<?xml version="1.0" encoding="UTF-8"?>
<svg width="35px" height="35px" viewBox="0 0 35 35" version="1.1" xmlns="http://www.w3.org/2000/svg" xmlns:xlink="http://www.w3.org/1999/xlink">
    <title>Frame 3</title>
    <g id="Frame-3" stroke="none" fill="none" fill-rule="evenodd">
        <path d="M25.1900062,4 L25.2023996,4.00121736 C27.9978854,4.29143487 30.1507211,6.46891835 30.437814,9.29634784 L30.4398595,9.31546032 L30.4387766,9.3345728 C30.3044951,11.8101866 30.3859544,14.4281092 30.4645259,16.9599649 C30.5513998,19.7524562 30.6410411,22.6401448 30.4428676,25.3588645 C30.2400015,28.144417 27.9866953,30.4573921 25.2019183,30.7390881 L25.1832681,30.7409141 L25.1647382,30.7399403 C22.7168682,30.6040834 20.1283396,30.6862549 17.6252409,30.7659917 C16.088584,30.8148076 14.5226884,30.8645974 12.9727959,30.8645974 C11.7376708,30.8645974 10.5128936,30.8329462 9.3208444,30.744201 C6.56675002,30.5388332 4.27987346,28.259944 4.00120324,25.4433489 L4,25.4188801 L4.00926494,9.23414098 L4.01070883,9.22038487 C4.31897873,6.4886395 6.40828341,4.35205916 9.09186797,4.02459058 L9.12026441,4.02288628 L25.1900062,4 Z M24.9220448,5.80801614 L9.37823891,5.83090242 C7.4617194,6.03371382 5.99244392,7.54031277 5.79727851,9.50147221 C5.91832438,11.9007578 5.8395122,14.4271354 5.76334716,16.8708544 C5.67803749,19.6039389 5.58984005,22.430151 5.78235834,25.0753424 C5.93649329,27.193419 7.50684087,28.781459 9.6009585,28.9374022 C12.157481,29.1277966 14.8848635,29.0413644 17.5226046,28.9576103 C19.9526666,28.8805517 22.4651506,28.8009367 24.8534602,28.9361849 C26.9401178,28.7736679 28.5030053,27.1881843 28.6567792,25.0753424 C28.8449659,22.4899232 28.7594155,19.7316395 28.676753,17.0641705 C28.600588,14.6062083 28.5217758,12.0648573 28.6556963,9.64938088 C28.497711,7.57658996 26.9651451,5.9993844 24.9220448,5.80801614 Z M15.4495918,10.5609731 C17.9111787,9.88497566 20.4501339,10.5479474 22.2417572,12.3342946 C24.25237,14.3386701 24.8959827,17.5499318 23.8070511,20.143629 C23.6305359,20.564347 23.403244,20.8318 23.1315526,20.9389273 C22.9333791,21.0170815 22.7146302,21.0060035 22.4990097,20.9070326 C21.6691356,20.5258786 21.9982215,19.7342324 22.1949512,19.2612899 C22.2451262,19.1404065 22.2925339,19.0263403 22.3184035,18.93443 C23.1826903,15.8592687 21.4762563,13.5436154 19.4017515,12.6128255 C17.3173801,11.6774096 14.4837516,11.9183243 12.8519185,14.5643678 C11.6241332,16.5553525 11.7806746,19.0033323 13.250672,20.8010009 C14.7213914,22.5993999 17.071077,23.212947 19.2375093,22.3645721 C19.3601194,22.3166083 19.4828498,22.2479495 19.6013689,22.1816036 C19.9824348,21.9688099 20.4563907,21.7036699 20.9814843,22.1878121 C21.3217604,22.5015246 21.3317473,22.8000201 21.2801283,22.9951622 C21.0430902,23.89284 18.9619675,24.3655391 18.8734091,24.3851385 C18.3467513,24.5023698 17.8181683,24.559829 17.2962031,24.559829 C15.3712609,24.559829 13.5316284,23.7798694 12.1730509,22.3404685 C10.4652934,20.531235 9.83287084,17.994023 10.4810558,15.5535908 C11.1321286,13.1030545 12.9894488,11.2366053 15.4495918,10.5609731 Z M24.3033031,7.36893349 C25.5822261,7.3713682 26.2513475,8.38359916 26.2512272,9.38231747 C26.2511069,10.380914 25.5819855,11.3930233 24.3033031,11.3953362 C23.5412917,11.3953362 22.9313697,11.0576419 22.5808661,10.4440948 C22.2103887,9.79560961 22.2093058,8.95977344 22.5780986,8.31445338 C22.9266771,7.70455835 23.5375616,7.36893349 24.2983698,7.36893349 Z" id="Forma-combinada" fill="#454545"></path>
    </g>
</svg>