<?xml version="1.0" encoding="UTF-8"?>
<svg width="100px" height="100px" viewBox="0 0 100 100" version="1.1" xmlns="http://www.w3.org/2000/svg" xmlns:xlink="http://www.w3.org/1999/xlink">
    <title>icon_garantias copy 2</title>
    <defs>
        <polygon id="path-1" points="0 0 80.1154299 0 80.1154299 61 0 61"></polygon>
    </defs>
    <g id="icon_garantias-copy-2" stroke="none" stroke-width="1" fill="none" fill-rule="evenodd">
        <g id="Group-10" transform="translate(6, 20)">
            <g id="Group-3" transform="translate(7.8846, 0)">
                <mask id="mask-2" fill="white">
                    <use xlink:href="#path-1"></use>
                </mask>
                <g id="Clip-2"></g>
                <path d="M26.2022299,49.8962412 C26.1826362,46.8407532 23.7253393,44.3985629 20.674558,44.4025116 C17.5899174,44.4064698 15.111308,46.9126025 15.1477455,49.9906079 C15.1836674,53.0215159 17.6863393,55.4705817 20.7256049,55.4489238 C23.758683,55.4274377 26.2216518,52.9302432 26.2022299,49.8962412 L26.2022299,49.8962412 Z M58.6111518,44.403032 C55.567933,44.3829211 53.1022143,46.8005313 53.039308,49.8661608 C52.9777768,52.8573625 55.4751205,55.4095613 58.5004643,55.4473768 C61.5680893,55.485536 64.1097768,52.9926387 64.1209851,49.9342286 C64.1319487,46.911915 61.6529955,44.423143 58.6111518,44.403032 L58.6111518,44.403032 Z M67.2855112,22.1938768 C67.2855112,22.0236793 67.3040737,21.9611119 67.2827612,21.9184836 C65.5439018,18.4398063 63.8108862,14.958207 62.0385112,11.4965467 C61.9267924,11.2782484 61.5075893,11.1056725 61.2289799,11.1022347 C58.7955737,11.0716386 56.361308,11.0845302 53.9273862,11.0845302 C53.2214955,11.0845302 52.5156049,11.0845302 51.8143549,11.0845302 L51.8143549,22.1603305 C52.0757768,22.1737378 52.2725737,22.1924737 52.4693705,22.1924737 C57.3927299,22.1941926 62.3162612,22.1938768 67.2855112,22.1938768 L67.2855112,22.1938768 Z M80.1154643,50.6192038 C79.5015268,52.2808489 78.2679799,52.8681915 76.5555893,52.8183439 C74.380683,52.7550889 72.2025112,52.8202346 70.0262299,52.7913574 C69.4800112,52.7841381 69.2484955,52.955167 69.0596049,53.4845833 C67.4133862,58.1018492 63.280308,61.0332338 58.5339799,61 C53.7663393,60.9660255 49.7413705,58.0812226 48.1028862,53.4806298 C47.917433,52.9603237 47.6840268,52.7880915 47.1341987,52.7904979 C42.1510268,52.8121559 37.1675112,52.8169687 32.1845112,52.7862007 C31.5430737,52.7822473 31.3196362,53.0232348 31.1209487,53.5830753 C29.5632455,57.9719016 25.7068862,60.7869177 21.0439174,60.9839018 C16.6057612,61.1714321 12.3788393,58.6713154 10.650808,54.4780982 C10.0459799,53.010687 9.32599553,52.6772235 7.91954241,52.7758874 C6.26644866,52.8915683 4.59857366,52.8310636 2.93826116,52.7930763 C1.25766741,52.7545733 0.102839284,51.7201489 0.00744865924,50.2503313 C-0.104098216,48.5281815 1.04557366,47.2978044 2.89322991,47.236784 C4.23780803,47.1924368 5.58513616,47.226127 6.93108928,47.2254394 C7.90218303,47.2249237 8.87327678,47.2252675 9.56146428,47.2252675 C10.5561049,45.5806394 11.2619955,43.9452933 12.3716205,42.6580211 C17.9118393,36.2302547 28.2954955,38.2344734 31.0994643,46.2388 C31.3834018,47.0494257 31.7369487,47.2493319 32.5361674,47.2433158 C37.3187612,47.2070474 42.1018705,47.2116883 46.8844643,47.2409094 C47.5546049,47.2450347 47.8648393,47.0813969 48.0930893,46.4046723 C49.636183,41.8295191 53.8276987,38.8271445 58.5759174,38.8252538 C63.346308,38.8235349 67.5685893,41.8714598 69.093808,46.480647 C69.2969643,47.0944605 69.5757455,47.2539729 70.1730112,47.2378154 C71.6009487,47.1991405 73.0306049,47.2252675 74.5816049,47.2252675 C74.5816049,46.8801156 74.5816049,46.6044067 74.5816049,46.3286977 C74.5816049,42.1177759 74.5948393,37.9066822 74.5618393,33.6959323 C74.5584018,33.2529759 74.3770737,32.7426393 74.1147924,32.382705 C73.1203237,31.0180831 72.0397455,29.7163723 71.0322143,28.3606886 C70.6905268,27.901059 70.3273549,27.7276236 69.751058,27.7295144 C63.0494799,27.7499691 56.3477299,27.7432655 49.6459799,27.7422341 C47.1965893,27.7418904 46.2059018,26.7554229 46.2050424,24.309623 C46.202808,18.4370561 46.204183,12.5644893 46.204183,6.6919224 C46.204183,6.35364605 46.204183,6.01536969 46.204183,5.55384937 L45.0486674,5.55384937 C31.1869487,5.55384937 17.3252299,5.55539636 3.46368303,5.5474895 C2.95287053,5.54731761 2.42401116,5.52325323 1.93519866,5.39227428 C0.672261159,5.05365415 -0.0908638408,3.86367082 0.00916740924,2.50197099 C0.102151784,1.23635678 1.08458928,0.206401541 2.36918303,0.051530101 C2.73733928,0.00718289626 3.11185491,0.00202624455 3.48344866,0.00202624455 C18.3762455,0 33.2688705,0 48.1614955,0 C50.7944487,0 51.7466362,0.945865396 51.7474955,3.55289661 C51.7476674,4.17960169 51.7474955,4.80613487 51.7474955,5.5533337 L52.7168705,5.5533337 C56.0962768,5.5533337 59.4768862,5.603697 62.8549174,5.53219143 C64.5612924,5.49609487 65.6337924,6.16852225 66.3807612,7.69334416 C68.5828237,12.1883975 70.8830268,16.635322 73.0960893,21.1250468 C73.9491049,22.8554472 74.9373862,24.4768704 76.1669799,25.9640487 C77.1336049,27.1330617 78.0613862,28.336968 78.9542768,29.5632197 C79.4013237,30.1772051 79.7320112,30.8761033 80.1154643,31.5366704 L80.1154643,50.6192038 Z" id="Fill-1" fill="#CC3333" mask="url(#mask-2)"></path>
            </g>
            <path d="M0,24.3161719 C0.73115625,22.6997335 2.01471875,22.2284155 3.7310625,22.2413072 C11.1694688,22.2968271 18.6085625,22.2627932 26.0473125,22.2670904 C27.6173906,22.2681218 28.6457188,22.9388303 29.0568438,24.1960219 C29.6022031,25.8635112 28.5004844,27.5835983 26.7559531,27.773535 C26.4158125,27.8106629 26.0706875,27.8118661 25.7277969,27.812038 C18.3175781,27.8139288 10.9071875,27.7838483 3.4973125,27.8359305 C1.8019375,27.8477908 0.632328125,27.2783246 0,25.6914509 L0,24.3161719 Z" id="Fill-4" fill="#CC3333"></path>
            <path d="M19.1481813,16.9177862 C15.2536656,16.9176143 11.3589781,16.9327405 7.4644625,16.9112544 C5.46607188,16.9002536 4.16497813,15.2549379 4.642275,13.4131538 C4.92174375,12.3350698 5.85279063,11.5316635 6.96447813,11.4123729 C7.10661875,11.3970749 7.25013438,11.3871054 7.39313438,11.3869335 C15.2108688,11.3857302 23.028775,11.376792 30.8465094,11.3926058 C32.5549469,11.3960435 33.7188844,12.5586966 33.7147703,14.1498674 C33.7104625,15.7559926 32.4980563,16.9074729 30.7459625,16.9138328 C26.88015,16.9275838 23.0141656,16.9179581 19.1481813,16.9177862" id="Fill-6" fill="#CC3333"></path>
            <path d="M13.6684453,38.7402206 C11.5488828,38.7402206 9.42880469,38.7727075 7.31010156,38.7292197 C5.81117969,38.6984517 4.75449219,37.6992645 4.56611719,36.2670904 C4.39716406,34.9823966 5.18830469,33.7298459 6.45089844,33.3460191 C6.80049219,33.2397921 7.18342969,33.2048987 7.55124219,33.2040393 C11.6471953,33.1944136 15.7431484,33.1784279 19.8389297,33.206102 C21.9933828,33.2207125 23.3211172,34.987897 22.6659297,36.880732 C22.2702734,38.0243054 21.2357578,38.7288759 19.8552578,38.7400487 C17.7931016,38.7567219 15.7307734,38.7443459 13.6684453,38.7443459 C13.6684453,38.7429708 13.6684453,38.7415957 13.6684453,38.7402206" id="Fill-8" fill="#CC3333"></path>
        </g>
    </g>
</svg>