<?xml version="1.0" encoding="UTF-8"?>
<svg width="25px" height="25px" viewBox="0 0 25 25" version="1.1" xmlns="http://www.w3.org/2000/svg" xmlns:xlink="http://www.w3.org/1999/xlink">
    <title>icon share copy 2</title>
    <g id="icon-share-copy-2" stroke="none" fill="none" fill-rule="evenodd">
        <path d="M17.626943,15.8024946 L17.2081174,16.2213001 C16.6157168,16.8136723 15.2530225,16.7670425 14.3782383,16.5977932 C11.4671848,16.0365076 8.07340242,12.74651 7.417962,9.89690573 C7.09412781,8.48591988 7.27288428,7.25886304 7.74093264,6.79083713 L8.1597582,6.37203166 C8.39119171,6.14147278 8.76683938,6.14147278 8.99740933,6.37203166 L10.6727116,8.04811705 C10.7841105,8.15951067 10.8454231,8.30717198 10.8454231,8.46605901 C10.8454231,8.62408251 10.7841105,8.77260734 10.6727116,8.88400096 L10.253886,9.30366994 C9.79274611,9.76651475 9.79274611,10.517774 10.253886,10.9788918 L13.0207254,13.7084673 C13.4835924,14.1713121 14.2322971,14.1721756 14.6951641,13.7084673 L15.1139896,13.2905253 C15.3307427,13.0729192 15.7348877,13.0720556 15.9525043,13.2905253 L17.626943,14.9648837 C17.8549223,15.191125 17.8626943,15.5667546 17.626943,15.8024946 M3,12.0004318 C3,13.6307508 3.43955095,15.219621 4.27374784,16.6098825 L3,21 L7.39032815,19.7263133 C8.77979275,20.5604701 10.3687392,21 12,21 C16.9430052,21 21,16.9431998 21,12.0004318 C21,7.05680019 16.9430052,3 12,3 C7.05613126,3 3,7.05680019 3,12.0004318 Z" id="Fill-1" fill="#454545"></path>
    </g>
</svg>