<?xml version="1.0" encoding="UTF-8"?>
<svg width="100px" height="100px" viewBox="0 0 100 100" version="1.1" xmlns="http://www.w3.org/2000/svg" xmlns:xlink="http://www.w3.org/1999/xlink">
    <title>icon_garantia copia 2</title>
    <defs>
        <path d="M0,0 L100,0 L100,100 L0,100 L0,0 Z" id="path-1"></path>
    </defs>
    <g id="icon_garantia-copia-2" stroke="none" fill="none" xlink:href="#path-1" fill-rule="evenodd">
        <use fill="#FFFFFF" xlink:href="#path-1"></use>
        <g id="Grupo" stroke-width="1" transform="translate(15, 19)" fill="#454545">
            <path d="M67.5672966,5.83930273 L44.8694401,5.83930273 L44.7397235,2.42436312 L67.6919063,2.42436312 C67.5885756,3.48287539 67.54772,4.60675773 67.5672966,5.83930273 L67.5672966,5.83930273 Z M54.6989645,60.7631016 L64.7697073,60.7631016 L64.7697073,52.9273166 L54.6989645,52.9273166 L54.6989645,60.7631016 Z M28.8325835,60.7631016 L52.3039733,60.7631016 L52.3039733,47.2437422 L28.8325835,47.2437422 L28.8325835,60.7631016 Z M18.2368458,60.7631016 L18.2368458,20.7881797 C18.2368458,18.3415451 20.614984,14.9648962 23.1405429,14.7308403 C24.9194652,14.566294 28.4456466,14.5664664 30.2599771,14.7313577 C32.3454868,14.9205687 35.0077419,17.9629506 35.0077419,20.156729 L35.0077419,37.7124748 L29.0375426,37.7124748 C28.215323,37.7124748 26.5935247,39.3556957 26.5935247,40.1887761 L26.5935247,60.7631016 L18.2368458,60.7631016 Z M51.5406539,39.97766 L51.5677208,39.9674837 C51.7279089,39.9931833 52.1567228,40.281398 52.3039733,40.4399075 L52.3039733,44.8171153 L28.8325835,44.8171153 L28.8325835,40.5185586 C28.8603313,40.44008 29.0463946,40.2279291 29.3277878,40.0726968 C29.5327469,39.9595496 29.6682514,39.9454062 29.7021275,39.9562725 L29.7542184,39.973693 L51.5406539,39.97766 Z M54.6989645,50.5008622 L54.6989645,40.6624073 C54.6989645,40.074939 54.2481907,39.3234419 53.8260158,38.8160045 C53.5500701,38.4843247 52.8293086,37.7124748 52.0991845,37.7124748 L47.0412573,37.7124748 L45.0619722,8.2659296 L67.3980862,8.2659296 L64.945046,50.5008622 L54.6989645,50.5008622 Z M23.8463239,12.31232 L29.5540258,12.31232 L29.5540258,2.42436312 L23.8463239,2.42436312 L23.8463239,12.31232 Z M69.6339106,0.331830808 C69.5246218,0.216613895 69.3882661,0.155728311 69.2394836,0.155728311 L43.2173405,0.155728311 C42.9213074,0.155728311 42.4596388,0.798735274 42.4443179,0.832368953 C42.2255701,1.31289937 42.3275389,1.72357522 42.4095906,2.05370273 C42.4472119,2.20496804 42.4826201,2.34778182 42.4858545,2.48404134 C42.5779499,6.40452103 42.8249562,10.3872661 43.0641319,14.2385812 C43.1882309,16.2384915 43.3165856,18.3063591 43.4217889,20.3436977 L44.7960702,37.7124748 L37.4029033,37.7124748 L37.4029033,20.9459993 C37.4029033,19.4010923 36.3665321,16.8268222 35.4399604,15.5575389 C34.4216338,14.1621724 33.2477154,13.3746268 31.8112995,12.6560734 L31.6524732,0.717497001 L31.6509411,0.600555284 L31.5794438,0.508623227 C31.3559294,0.221270866 31.0784516,0.186257343 30.8556182,0.158143037 L30.8031868,0.151416301 C29.2908475,-0.050385777 24.0749453,-0.050385777 22.5958012,0.15089886 C22.0379516,0.22696272 21.7734114,0.439286102 21.547684,0.992603253 L21.5221492,1.05521364 L21.4625681,12.7883659 C18.5304957,13.8715429 16.4975875,16.7666265 16.0028939,20.58793 L16,20.6105249 L16.074902,62.3725163 L16.0752425,62.5362002 L16.638199,63 L66.3574592,62.9530853 L66.4694718,62.9529128 L66.5595244,62.8853005 C67.0157456,62.5434444 67.1233321,62.0744701 67.1660603,61.7043272 C67.4180033,59.5186554 67.3250568,56.8945385 67.2350042,54.3566618 C67.1738909,52.6328926 67.1163526,51.0046775 67.1582296,49.5070301 C67.4219187,40.0889099 68.005303,32.9730582 68.5694512,26.0916073 C69.1199808,19.3760826 69.6894062,12.4321939 69.9757361,3.28090083 L69.9806728,3.15188549 C70.0467227,1.47848056 69.9464562,0.661268388 69.6339106,0.331830808 L69.6339106,0.331830808 Z" id="Fill-1"></path>
            <path d="M2.67103024,7.88567849 C5.34413077,8.67653277 7.18455948,10.254796 8.02694086,12.4533709 C8.95310622,10.4383369 10.9255534,8.79586563 13.5568403,7.9187221 C10.2682798,6.59008692 8.77253999,4.78380706 7.95599853,2.45681622 C6.90658458,5.10923185 5.23419366,6.82953567 2.67103024,7.88567849 M7.99969149,16 C7.71091081,16 7.47036465,15.7748023 7.45282482,15.4846136 C7.4437417,15.3309843 7.44013977,15.1779814 7.44201904,15.0262313 C7.26787364,11.413515 4.81010577,9.11831493 0.476046514,8.54341868 C0.215298234,8.50880902 0.0159393386,8.29379062 0.000905203478,8.03132096 C-0.0141289316,7.7686947 0.15954665,7.53253465 0.414657129,7.46832668 C4.36691199,6.4754522 6.41092794,4.43019341 7.47005144,0.408581943 C7.53347669,0.16741054 7.75162826,0 7.99984809,0 C8.00438966,0 8.00861801,0 8.01284636,0 C8.26654739,0.00626419231 8.48297629,0.185576697 8.53606558,0.433795318 C9.26271544,3.83556495 10.6051384,5.96523373 15.6102526,7.47521729 C15.8528346,7.54835173 16.0135119,7.77809099 15.9991042,8.03100775 C15.9850097,8.28376791 15.7992755,8.49393156 15.550116,8.53919035 C12.1506788,9.15793595 8.59792478,11.4288623 8.53794484,14.9945971 C8.54483549,15.145251 8.54828081,15.2980973 8.54812421,15.452353 C8.547811,15.7484927 8.31227621,15.9910735 8.01613507,16 C8.01081048,16 8.00532929,16 7.99969149,16" id="Fill-1" stroke="#454545" stroke-width="0.866892188"></path>
            <path d="M1.50245451,23.4356942 C3.00607356,23.8805497 4.04131471,24.7683228 4.51515423,26.0050211 C5.03612225,24.8715645 6.1456238,23.9476744 7.62572265,23.4542812 C5.7759074,22.7069239 4.93455375,21.6908915 4.47524917,20.3819591 C3.88495383,21.8739429 2.94423393,22.8416138 1.50245451,23.4356942 M4.49982646,28 C4.33738733,28 4.20208011,27.8733263 4.19221396,27.7100951 C4.18710471,27.6236786 4.18507862,27.5376145 4.18613571,27.4522551 C4.08817892,25.4201022 2.70568449,24.1290521 0.267776164,23.805673 C0.121105257,23.7862051 0.00896587794,23.6652572 0.000509176956,23.517618 C-0.00794752403,23.3698908 0.0897449904,23.2370507 0.233244635,23.2009338 C2.456388,22.6424419 3.60614697,21.4919838 4.20190393,19.2298273 C4.23758064,19.0941684 4.3602909,19 4.49991455,19 C4.50246918,19 4.50484763,19 4.50722608,19 C4.6499329,19.0035236 4.77167416,19.1043869 4.80153689,19.2440099 C5.21027744,21.1575053 5.96539036,22.355444 8.78076706,23.2048097 C8.91721946,23.2459479 9.00760045,23.3751762 8.99949611,23.5174419 C8.99156795,23.6596195 8.88709246,23.7778365 8.74694026,23.8032946 C6.83475684,24.151339 4.83633269,25.428735 4.80259398,27.4344609 C4.80646996,27.5192037 4.80840796,27.6051797 4.80831987,27.6919486 C4.80814369,27.8585271 4.67565537,27.9949789 4.50907598,28 C4.5060809,28 4.50299772,28 4.49982646,28" id="Fill-1-Copia" stroke="#454545" stroke-width="0.866892188"></path>
        </g>
    </g>
</svg>