<?xml version="1.0" encoding="UTF-8"?>
<svg width="41px" height="41px" viewBox="0 0 41 41" version="1.1" xmlns="http://www.w3.org/2000/svg" xmlns:xlink="http://www.w3.org/1999/xlink">
    <title>Group 57</title>
    <g id="Page-1" stroke="none" stroke-width="1" fill="none" fill-rule="evenodd">
        <g id="1_-ZAR-DE-LAS-LLANTAS" transform="translate(-1679, -4382)" fill="#FFFFFF">
            <g id="Group-43" transform="translate(4, 4260)">
                <g id="Group-40" transform="translate(1611, 122)">
                    <g id="Group-57" transform="translate(64, 0)">
                        <g id="Artboard-Copy-8" transform="translate(9, 9)" fill-rule="nonzero">
                            <path d="M18.4584259,7.38461546 C19.4701846,7.38443429 20.2915426,6.57196734 20.3074771,5.5560216 C20.3232307,4.55048514 19.4716333,3.69276045 18.457249,3.69230751 C17.4516467,3.6918553 16.6231363,4.51771853 16.6154406,5.52823334 C16.6075638,6.55540301 17.4310947,7.38488686 18.4584259,7.38461546 M7.38461474,12.0006383 C7.38583499,14.5354183 9.44011883,16.5939664 11.9897739,16.6152256 C14.5134922,16.636417 16.6174147,14.5367724 16.6153861,11.9990811 C16.6133515,9.46369182 14.559,7.40541446 12.0098867,7.38476467 C9.48406906,7.36425027 7.38326165,9.46071283 7.38461474,12.0006383 M18.4696018,24 L5.53401072,24 C5.08499326,23.9051445 4.6230629,23.8499038 4.1890127,23.7087576 C1.66527051,22.8884371 0.0138841221,20.6234955 0.00647386682,17.9609384 C-0.00438472505,13.9852961 0.000677726564,10.0096539 0.00537333386,6.03393835 C0.00691408,4.75702014 0.360111792,3.58038616 1.11617794,2.54621886 C2.35970682,0.845348557 4.05078576,0.00456034731 6.15463794,0.00250624472 C10.0205901,-0.00123515645 13.8866157,-0.00116179564 17.7525678,0.00529395538 C18.1569037,0.00595420264 18.5677693,0.0236341571 18.9644014,0.095894552 C21.181315,0.499745795 22.7289578,1.75854389 23.5743872,3.84045022 C23.7910454,4.37400338 23.8621398,4.9667587 24,5.53229715 L24,18.4691086 C23.970359,18.6365914 23.9421853,18.804441 23.9107835,18.9717035 C23.4957358,21.1747286 22.2483917,22.7173597 20.1830582,23.5664376 C19.6436504,23.7882074 19.0424659,23.8595874 18.4696018,24" id="Fill-1"></path>
                        </g>
                        <path d="M20.5001126,1.8638049 C10.2295591,1.85923395 1.8634351,10.2230007 1.85886048,20.4996499 C1.8542896,30.7703625 10.2177663,39.136536 20.4943365,39.1411909 C30.7648899,39.1457619 39.131014,30.7820754 39.1356688,20.5053459 C39.1402397,10.2347135 30.7766828,1.86837959 20.5001126,1.8638049 M0,19.3014911 C0.10573478,18.512078 0.173122651,17.7153646 0.323060666,16.9344554 C1.56917473,10.4432983 5.10222457,5.59185788 10.8837028,2.41166261 C14.1343654,0.623610041 17.6605963,-0.190672695 21.3579441,0.0375671459 C29.0516335,0.512659004 34.8186715,4.16361398 38.5814017,10.8850166 C40.3933332,14.1216902 41.1898739,17.6592071 40.9619585,21.3567728 C40.4866333,29.0667868 36.8222573,34.831347 30.0856362,38.6037625 C27.5875518,40.0027243 24.8683709,40.7392691 22.0075151,40.934376 C21.903465,40.9414358 21.8013403,40.9774568 21.6982529,41 L19.2962764,41 C19.1932692,40.9774568 19.0911445,40.9412754 18.9870944,40.934376 C16.4716014,40.7690325 14.0589552,40.1685491 11.8026648,39.0563111 C5.51593797,35.9573035 1.66833117,30.9620198 0.323221113,24.0694173 C0.171036836,23.2894708 0.105654556,22.4925969 0,21.7035048 C0,20.9028603 0,20.1021356 0,19.3014911" id="Fill-1-Copy"></path>
                    </g>
                </g>
            </g>
        </g>
    </g>
</svg>