<?xml version="1.0" encoding="UTF-8"?>
<svg width="75px" height="65px" viewBox="0 0 75 65" version="1.1" xmlns="http://www.w3.org/2000/svg" xmlns:xlink="http://www.w3.org/1999/xlink">
    <title>Grupo</title>
    <defs>
        <polygon id="path-1" points="1.14440952e-15 0 74.7126437 0 74.7126437 65 1.14440952e-15 65"></polygon>
    </defs>
    <g id="Símbolos" stroke="none" stroke-width="1" fill="none" fill-rule="evenodd">
        <g id="footer" transform="translate(-65, -61)">
            <g id="Grupo" transform="translate(65, 61)">
                <g>
                    <mask id="mask-2" fill="white">
                        <use xlink:href="#path-1"></use>
                    </mask>
                    <g id="Clip-2"></g>
                    <path d="M74.5388693,23.9873594 L74.5388693,24.0356125 C74.5388693,24.2766736 74.4915727,24.5177347 74.4442761,24.7590003 C71.6083311,38.1643699 62.7714765,48.5804998 52.092111,56.4404415 C49.682041,58.1765313 47.2244688,59.815706 44.6725091,61.3589878 C42.7347881,62.5162447 40.3247182,64.4451425 38.1511312,64.9272648 C35.8356544,65.4578446 32.7638434,62.9503183 30.8734191,61.7930614 C28.6052389,60.4910451 26.3843553,59.044474 24.2101514,57.5494453 C14.7115557,50.8950136 6.34705005,42.3114797 2.14176585,31.1723709 C0.110068646,25.819751 -0.882748572,20.1297682 1.00767576,14.5841359 C2.80288999,9.47257713 6.48893983,4.9881044 11.2144866,2.43252948 C20.2880298,-2.48622129 31.3457681,0.792945888 37.3475003,8.65309203 C42.7820847,1.66088857 52.2333838,-2.00409907 60.7391623,1.13051323 C69.9545954,4.55423529 75.8142322,14.1502668 74.5388693,23.9873594" id="Fill-1" fill="#FF6A9F" mask="url(#mask-2)"></path>
                </g>
                <path d="M22.1525073,24.6177963 C20.181285,24.6177963 18.5622919,25.3110127 17.2953246,26.69622 C16.0283572,28.0820401 15.3948735,29.7928181 15.3948735,31.8287582 C15.3948735,33.8649027 16.0283572,35.5762934 17.2953246,36.9615007 C18.5622919,38.347525 20.181285,39.0399244 22.1525073,39.0399244 C24.122916,39.0399244 25.7699736,38.347525 27.0938833,36.9615007 C28.4167762,35.5762934 29.0789344,33.8722556 29.0789344,31.85 C29.0789344,29.8285614 28.4167762,28.1171707 27.0938833,26.7174618 C25.7699736,25.3177529 24.122916,24.6177963 22.1525073,24.6177963 L22.1525073,24.6177963 Z M22.1525073,20.8 C23.5602036,20.8 24.9040431,21.0193619 26.1858561,21.4576773 C27.4668557,21.8961969 28.6353941,22.5393727 29.6914714,23.387613 C30.747142,24.2360576 31.5848046,25.3884226 32.2044595,26.844708 C32.8233008,28.3016063 33.1334333,29.9623436 33.1334333,31.8287582 L33.1334333,42.4334985 L28.910141,42.4334985 L28.910141,39.7186392 C28.853402,39.803402 28.7476519,39.9241123 28.5932975,40.0793405 C28.4383329,40.2347729 28.1499606,40.4896739 27.727367,40.8428181 C27.3051801,41.1965749 26.8404898,41.5147927 26.3337029,41.7972671 C25.8269159,42.0801501 25.1861111,42.3346426 24.4121018,42.5607447 C23.6370757,42.7866426 22.8419165,42.9 22.0258105,42.9 L21.9833071,42.9 C18.7168497,42.9 16.0771649,41.8183047 14.0642528,39.6551182 C12.0507305,37.4917275 11.0444778,34.8689839 11.0444778,31.7862747 C11.0444778,30.4290494 11.2696034,29.1075673 11.7204648,27.8201946 C12.1703094,26.5338432 12.8320609,25.3602364 13.7055159,24.2995786 C14.5777508,23.239125 15.738968,22.3906804 17.1895745,21.7544491 C18.6397742,21.1182178 20.2658851,20.8 22.0679072,20.8 L22.1525073,20.8 Z" id="Fill-3" fill="#FFFFFF"></path>
                <polygon id="Fill-5" fill="#FFFFFF" points="33.7831084 22.1 37.7149131 22.1 41.0962242 37.613811 41.1749828 37.613811 45.3032756 22.1 49.9428867 22.1 54.5820897 37.613811 54.6608482 37.613811 57.5306371 22.1 61.0694653 22.1 57.1376606 41.6 52.1050731 41.6 47.6229791 26.1249233 47.4654621 26.1249233 43.4161318 41.6 38.186852 41.6"></polygon>
            </g>
        </g>
    </g>
</svg>