<?xml version="1.0" encoding="UTF-8"?>
<svg id="Capa_2" data-name="Capa 2" xmlns="http://www.w3.org/2000/svg" viewBox="0 0 2549.71 1123.84">
  <defs>
    <style>
      .cls-1 {
        fill: #fff;
      }

      .cls-2 {
        fill: #c33;
      }
    </style>
  </defs>
  <g id="Capa_1-2" data-name="Capa 1">
    <g>
      <g>
        <path class="cls-1" d="M122.05,942.4c-16.05-8.16-34.5-12.24-55.36-12.24H3.04v190.41h63.65c20.85,0,39.31-4.08,55.36-12.24,16.05-8.16,28.6-19.4,37.68-33.73,9.06-14.33,13.6-30.74,13.6-49.23s-4.53-35.13-13.6-49.37c-9.07-14.23-21.63-25.43-37.68-33.59ZM117.56,1044.68c-2.72,5.81-6.53,10.79-11.43,14.96-4.89,4.17-10.7,7.44-17.41,9.79-6.71,2.36-14.06,3.54-22.03,3.54h-13.33v-95.21h13.33c7.98,0,15.32,1.18,22.03,3.54,6.71,2.36,12.52,5.62,17.41,9.79,4.9,4.18,8.71,9.16,11.43,14.96,2.72,5.81,4.08,12.24,4.08,19.32s-1.36,13.51-4.08,19.31Z"/>
        <polygon class="cls-1" points="272.88 1047.67 335.45 1047.67 335.45 1002.79 272.88 1002.79 272.88 976.41 350.13 976.41 350.13 930.16 222.56 930.16 222.56 1120.57 352.04 1120.57 352.04 1074.33 272.88 1074.33 272.88 1047.67"/>
        <polygon class="cls-1" points="547.07 930.16 496.75 930.16 496.75 1120.57 625.42 1120.57 625.42 1074.33 547.07 1074.33 547.07 930.16"/>
        <path class="cls-1" d="M781.83,930.16h-50.05l-72.9,190.41h53.32l11.14-30.47h71.02l11.14,30.47h53.31l-72.9-190.41h-4.08ZM739.55,1045.77l19.29-52.76,19.29,52.76h-38.59Z"/>
        <path class="cls-1" d="M969.79,970.15c6.35,0,11.38,1.82,15.1,5.44,3.72,3.63,6.03,7.26,6.94,10.88l49.78-14.42c-4.35-10.7-9.84-19.36-16.46-25.98-6.62-6.62-14.51-11.46-23.66-14.55-9.16-3.08-19.72-4.62-31.69-4.62-22.49,0-39.94,5.21-52.36,15.64-12.42,10.43-18.64,24.98-18.64,43.66,0,9.43,1.86,17.96,5.58,25.57,3.71,7.62,9.06,14.06,16.05,19.32,6.98,5.26,15.37,9.16,25.16,11.7l28.56,7.34c4.9,1.27,8.48,3.31,10.75,6.12,2.27,2.81,3.4,5.76,3.4,8.84,0,4.72-1.95,8.53-5.85,11.43-3.91,2.9-8.39,4.26-13.47,4.08-6.35-.36-11.51-2.13-15.5-5.3-3.99-3.17-6.8-7.03-8.43-11.56l-50.05,13.87c.9,6.17,3.63,12.02,8.16,17.54,4.53,5.54,10.29,10.48,17.27,14.82,6.98,4.35,14.73,7.75,23.26,10.2,8.52,2.45,17.22,3.67,26.11,3.67,14.87,0,27.65-2.27,38.36-6.8,10.7-4.53,18.9-11.15,24.62-19.86,5.71-8.71,8.56-19.31,8.56-31.83,0-13.6-4.08-25.7-12.24-36.31-8.16-10.61-19.5-17.72-34-21.35l-28.83-7.34c-5.08-1.27-8.98-3.13-11.7-5.58-2.72-2.45-4.08-5.3-4.08-8.57,0-5.26,1.67-9.25,5.03-11.97,3.36-2.72,8.11-4.08,14.28-4.08Z"/>
        <polygon class="cls-1" points="1231.46 930.16 1181.14 930.16 1181.14 1120.57 1309.8 1120.57 1309.8 1074.33 1231.46 1074.33 1231.46 930.16"/>
        <polygon class="cls-1" points="1408 930.16 1357.68 930.16 1357.68 1120.57 1486.34 1120.57 1486.34 1074.33 1408 1074.33 1408 930.16"/>
        <path class="cls-1" d="M1642.75,930.16h-50.05l-72.9,190.41h53.32l11.14-30.47h71.01l11.14,30.47h53.32l-72.9-190.41h-4.08ZM1600.47,1045.77l19.29-52.76,19.29,52.76h-38.59Z"/>
        <polygon class="cls-1" points="1891.37 1034.89 1817.12 930.16 1764.07 930.16 1764.07 1120.57 1814.39 1120.57 1814.39 1012.04 1891.37 1120.57 1941.7 1120.57 1941.7 930.16 1891.37 930.16 1891.37 1034.89"/>
        <polygon class="cls-1" points="1988.76 976.41 2042.62 976.41 2042.62 1120.57 2092.94 1120.57 2092.94 976.41 2146.53 976.41 2146.53 930.16 1988.76 930.16 1988.76 976.41"/>
        <path class="cls-1" d="M2285.8,930.16h-50.05l-72.9,190.41h53.32l11.14-30.47h71.02l11.14,30.47h53.31l-72.9-190.41h-4.08ZM2243.52,1045.77l19.29-52.76,19.29,52.76h-38.59Z"/>
        <path class="cls-1" d="M2499.06,1007.69l-28.83-7.34c-5.08-1.27-8.98-3.13-11.7-5.58-2.72-2.45-4.08-5.3-4.08-8.57,0-5.26,1.67-9.25,5.03-11.97,3.36-2.72,8.11-4.08,14.28-4.08s11.38,1.82,15.1,5.44c3.71,3.63,6.03,7.26,6.94,10.88l49.78-14.42c-4.35-10.7-9.84-19.36-16.46-25.98-6.62-6.62-14.51-11.46-23.66-14.55-9.16-3.08-19.72-4.62-31.69-4.62-22.48,0-39.94,5.21-52.36,15.64-12.42,10.43-18.64,24.98-18.64,43.66,0,9.43,1.86,17.96,5.58,25.57,3.71,7.62,9.06,14.06,16.05,19.32,6.98,5.26,15.37,9.16,25.16,11.7l28.56,7.34c4.9,1.27,8.48,3.31,10.75,6.12,2.26,2.81,3.4,5.76,3.4,8.84,0,4.72-1.95,8.53-5.85,11.43-3.91,2.9-8.39,4.26-13.47,4.08-6.35-.36-11.52-2.13-15.5-5.3-3.99-3.17-6.8-7.03-8.43-11.56l-50.05,13.87c.9,6.17,3.63,12.02,8.16,17.54,4.53,5.54,10.29,10.48,17.28,14.82,6.98,4.35,14.73,7.75,23.26,10.2,8.52,2.45,17.22,3.67,26.11,3.67,14.87,0,27.65-2.27,38.36-6.8,10.7-4.53,18.9-11.15,24.62-19.86,5.71-8.71,8.57-19.31,8.57-31.83,0-13.6-4.08-25.7-12.24-36.31-8.17-10.61-19.5-17.72-34-21.35Z"/>
      </g>
      <path class="cls-1" d="M724.27,243.06l-355.64,438.35h355.64v178.41H0l355.64-438.35H1.18v-178.41h723.1Z"/>
      <path class="cls-1" d="M2465.82,243.06c11.82,0,22.63,3.75,32.49,11.23,9.84,7.49,18.7,16.74,26.59,27.76,7.86,11.04,13.97,23.63,18.31,37.81,4.32,14.18,6.5,27.58,6.5,40.17v241.03c0,13.4-2.18,26.99-6.5,40.77-4.34,13.79-10.45,26.19-18.31,37.22-7.88,11.04-16.75,20.29-26.59,27.76-9.86,7.5-20.68,11.23-32.49,11.23h-72.07l153.6,141.78h-226.85l-280.02-257.57c-15.77-15.75-23.63-26.77-23.63-33.08s1.37-12.8,4.13-19.5c2.75-6.68,8.86-10.04,18.31-10.04h278.84c32.29,0,48.44-16.93,48.44-50.8v-16.54c0-33.86-16.15-50.81-48.44-50.81h-339.1v438.35h-181.95V243.06h668.74Z"/>
      <path class="cls-1" d="M1029.1,859.82h718.37l-290.23-477.86-13.54-4.75c-64.18-22.54-129.22-33.96-193.3-33.97-64.59,0-130.22,11.61-195.09,34.51l-6.42,2.27-274.99,479.8h212.67l256.39-446.62,173.69,268.21h-284.75l-102.79,178.41Z"/>
      <path class="cls-2" d="M1345.77,236.34c-4.66,0-9.04-.65-12.79-1.95-26.33-9.15-34.68-38.13-34.89-64.86l31.45-34.87.55-2.86L1249.15,0l-79.92,131.79.55,2.86,31.36,35.53c-1.46,23.59-6,58.36-37.16,64.99-3.72.79-7.57,1.19-11.42,1.19-20.37,0-41.05-11.14-45.83-34.45-4.04-19.68,4.4-30.34,9.91-47.52l-128.86-49.61,57.88,245.65c68.27-24.1,136.51-36.16,204.74-36.16,67.65,0,135.29,11.86,202.9,35.6l58.25-243.97v-1.13l-129.92,49.58c-.8.97,4.98,11.24,9.69,22.55,16.17,38.84-19.23,59.44-45.54,59.44Z"/>
    </g>
  </g>
</svg>