<?xml version="1.0" encoding="UTF-8"?>
<svg width="55px" height="40px" viewBox="0 0 55 40" version="1.1" xmlns="http://www.w3.org/2000/svg" xmlns:xlink="http://www.w3.org/1999/xlink">
    <title>Group 3</title>
    <g id="Página-1" stroke="none" stroke-width="1" fill="none" fill-rule="evenodd">
        <g id="Group-3" transform="translate(-0, 0)" fill="#454545">
            <path d="M27.1428571,3.40333492 C26.9266425,3.56445259 26.7150877,3.73042586 26.5081927,3.90125473 C22.9732699,6.81461536 20.7356349,11.1038768 20.7356349,15.8906166 C20.7356349,20.6777978 22.9732699,24.9670592 26.5081927,27.8804198 C26.7150877,28.0512487 26.9266425,28.2172219 27.1428571,28.3783396 C27.3590718,28.2172219 27.5706266,28.0512487 27.7775216,27.8804198 C31.3124444,24.9670592 33.5500793,20.6777978 33.5500793,15.8906166 C33.5500793,11.1038768 31.3124444,6.81461536 27.7775216,3.90125473 C27.5706266,3.73042586 27.3590718,3.56445259 27.1428571,3.40333492 L27.1428571,3.40333492 Z M37.5104416,0 C34.0757045,0 30.882811,0.978182902 28.2239303,2.65557235 C28.3599964,2.76151274 28.4974604,2.86524604 28.6293327,2.97383493 C32.5813073,6.2310604 34.8478331,10.9387863 34.8478331,15.8906166 C34.8478331,20.8428882 32.5813073,25.5506141 28.6297987,28.8078396 C28.4983924,28.9159871 28.3599964,29.0201618 28.2239303,29.1261022 C30.882811,30.8034916 34.0757045,31.7816745 37.5104416,31.7816745 C46.7750519,31.7816745 54.2857143,24.6673362 54.2857143,15.891058 C54.2857143,7.11433837 46.7750519,0 37.5104416,0 L37.5104416,0 Z M25.6563816,28.8078396 C25.7873219,28.9159871 25.9257179,29.0201618 26.061784,29.1261022 C23.4029033,30.8034916 20.2095438,31.7821159 16.7752727,31.7821159 C7.51019637,31.7821159 0,24.6673362 0,15.891058 C0,7.11477979 7.51019637,0 16.7752727,0 C20.2095438,0 23.4024373,0.978182902 26.061784,2.65557235 C25.9257179,2.76151274 25.7882539,2.86524604 25.6563816,2.97339351 C21.7044069,6.2310604 19.4378812,10.9387863 19.4378812,15.8906166 C19.4378812,20.8428882 21.7044069,25.5510555 25.6563816,28.8078396 L25.6563816,28.8078396 Z M53.7600891,25.7377755 L53.7600891,25.1211141 L53.5900065,25.1211141 L53.3947609,25.5453171 L53.1990494,25.1211141 L53.0289668,25.1211141 L53.0289668,25.7377755 L53.1487236,25.7377755 L53.1487236,25.2725206 L53.3323196,25.6737698 L53.4567362,25.6737698 L53.6403323,25.2716378 L53.6403323,25.7377755 L53.7600891,25.7377755 Z M52.6836757,25.7377755 L52.6836757,25.2266131 L52.9012883,25.2266131 L52.9012883,25.121997 L52.3467724,25.121997 L52.3467724,25.2266131 L52.5643849,25.2266131 L52.5643849,25.7377755 L52.6836757,25.7377755 Z M53.207903,39.4574969 L53.207903,39.5612302 L53.3085547,39.5612302 C53.3318536,39.5612302 53.3500269,39.556816 53.3640062,39.5479877 C53.3775197,39.5396007 53.3845094,39.5263582 53.3845094,39.5087015 C53.3845094,39.4914861 53.3775197,39.478685 53.3640062,39.4698566 C53.3500269,39.4614697 53.3318536,39.4574969 53.3085547,39.4574969 L53.207903,39.4574969 Z M53.3094866,39.3842215 C53.3626083,39.3842215 53.4031486,39.395257 53.4320393,39.4177693 C53.4604641,39.4398402 53.4744435,39.4702981 53.4744435,39.5087015 C53.4744435,39.540925 53.4632599,39.5674101 53.4404269,39.5881567 C53.4175939,39.6093448 53.3854413,39.622146 53.3435031,39.6270016 L53.4777053,39.7739938 L53.3728599,39.7739938 L53.2479773,39.6278844 L53.207903,39.6278844 L53.207903,39.7739938 L53.1198328,39.7739938 L53.1198328,39.3842215 L53.3094866,39.3842215 Z M53.2833917,39.9077436 C53.3313877,39.9077436 53.3761217,39.8989152 53.4171279,39.8816999 C53.4586001,39.864926 53.4944806,39.8415308 53.5257012,39.8119558 C53.5569219,39.7823808 53.5811528,39.7479502 53.5988601,39.7082225 C53.6165673,39.6684949 53.6254209,39.6256773 53.6254209,39.5806526 C53.6254209,39.535628 53.6165673,39.4928104 53.5988601,39.4530828 C53.5811528,39.4133551 53.5569219,39.3789245 53.5257012,39.3493495 C53.4944806,39.3197744 53.4586001,39.2968207 53.4171279,39.2800468 C53.3761217,39.2632729 53.3313877,39.2548859 53.2833917,39.2548859 C53.2353958,39.2548859 53.1897298,39.2632729 53.1473256,39.2800468 C53.1053875,39.2968207 53.0685751,39.3197744 53.0373544,39.3493495 C53.0061338,39.3789245 52.9819028,39.4133551 52.9641956,39.4530828 C52.9464884,39.4928104 52.9376347,39.535628 52.9376347,39.5806526 C52.9376347,39.6256773 52.9464884,39.6684949 52.9641956,39.7082225 C52.9819028,39.7479502 53.0061338,39.7823808 53.0373544,39.8119558 C53.0685751,39.8415308 53.1053875,39.864926 53.1473256,39.8816999 C53.1897298,39.8989152 53.2353958,39.9077436 53.2833917,39.9077436 L53.2833917,39.9077436 Z M53.2833917,39.1613053 C53.345833,39.1613053 53.4040805,39.1723407 53.4590661,39.1939702 C53.5135858,39.2160411 53.5611157,39.2460576 53.6021219,39.2840196 C53.6431281,39.3219815 53.6752808,39.3665648 53.6985797,39.4177693 C53.7223447,39.4689738 53.7339942,39.5232683 53.7339942,39.5806526 C53.7339942,39.638037 53.7223447,39.6923315 53.6985797,39.7430946 C53.6752808,39.7938577 53.6431281,39.8379995 53.6021219,39.8764029 C53.5611157,39.9143649 53.5135858,39.9443813 53.4590661,39.9664522 C53.4040805,39.9889645 53.345833,40 53.2833917,40 C53.2200185,40 53.1603731,39.9889645 53.1053875,39.9664522 C53.0499359,39.9443813 53.0019399,39.9143649 52.9613997,39.8764029 C52.9208595,39.8379995 52.8887069,39.7938577 52.8654079,39.7430946 C52.8416429,39.6923315 52.8299934,39.638037 52.8299934,39.5806526 C52.8299934,39.5232683 52.8416429,39.4689738 52.8654079,39.4177693 C52.8887069,39.3665648 52.9208595,39.3219815 52.9613997,39.2840196 C53.0019399,39.2460576 53.0499359,39.2160411 53.1053875,39.1939702 C53.1603731,39.1723407 53.2200185,39.1613053 53.2833917,39.1613053 L53.2833917,39.1613053 Z M11.7301094,37.6631316 C11.7301094,36.9215489 12.2422212,36.3123917 13.0809848,36.3123917 C13.8824701,36.3123917 14.4225407,36.8950638 14.4225407,37.6631316 C14.4225407,38.4311994 13.8824701,39.0134302 13.0809848,39.0134302 C12.2422212,39.0134302 11.7301094,38.4042729 11.7301094,37.6631316 L11.7301094,37.6631316 Z M15.3358611,37.6631316 L15.3358611,35.5535937 L14.3670891,35.5535937 L14.3670891,36.0651975 C14.0595424,35.6855778 13.5935626,35.4476533 12.9598301,35.4476533 C11.7110042,35.4476533 10.7329126,36.3741903 10.7329126,37.6631316 C10.7329126,38.9516316 11.7110042,39.87861 12.9598301,39.87861 C13.5935626,39.87861 14.0595424,39.6402441 14.3670891,39.2606244 L14.3670891,39.7726696 L15.3358611,39.7726696 L15.3358611,37.6631316 Z M48.0620881,37.6631316 C48.0620881,36.9215489 48.5746659,36.3123917 49.4129636,36.3123917 C50.2144488,36.3123917 50.7549854,36.8950638 50.7549854,37.6631316 C50.7549854,38.4311994 50.2144488,39.0134302 49.4129636,39.0134302 C48.5746659,39.0134302 48.0620881,38.4042729 48.0620881,37.6631316 L48.0620881,37.6631316 Z M51.6683058,37.6631316 L51.6683058,33.8585475 L50.6990678,33.8585475 L50.6990678,36.0651975 C50.3915211,35.6855778 49.9255413,35.4476533 49.2918088,35.4476533 C48.0434489,35.4476533 47.0648914,36.3741903 47.0648914,37.6631316 C47.0648914,38.9516316 48.0434489,39.87861 49.2918088,39.87861 C49.9255413,39.87861 50.3915211,39.6402441 50.6990678,39.2606244 L50.6990678,39.7726696 L51.6683058,39.7726696 L51.6683058,37.6631316 Z M27.3567419,36.2682499 C27.9811548,36.2682499 28.3818974,36.6390412 28.483947,37.2923403 L26.1731532,37.2923403 C26.2756687,36.6831831 26.6670918,36.2682499 27.3567419,36.2682499 L27.3567419,36.2682499 Z M27.3753811,35.4476533 C26.0706376,35.4476533 25.1577832,36.3477052 25.1577832,37.6631316 C25.1577832,39.0046018 26.107916,39.87861 27.4406182,39.87861 C28.1116291,39.87861 28.7262565,39.7196994 29.2667931,39.2871095 L28.7914937,38.6077668 C28.4191758,38.889833 27.9438764,39.0487436 27.4965358,39.0487436 C26.8721229,39.0487436 26.3036275,38.7750643 26.1638336,38.0162663 L29.4718242,38.0162663 C29.4811438,37.9014975 29.4904634,37.7867288 29.4904634,37.6631316 C29.4811438,36.3477052 28.6237409,35.4476533 27.3753811,35.4476533 L27.3753811,35.4476533 Z M39.06961,37.6631316 C39.06961,36.9215489 39.5821878,36.3123917 40.4209514,36.3123917 C41.2224367,36.3123917 41.7629732,36.8950638 41.7629732,37.6631316 C41.7629732,38.4311994 41.2224367,39.0134302 40.4209514,39.0134302 C39.5821878,39.0134302 39.06961,38.4042729 39.06961,37.6631316 L39.06961,37.6631316 Z M42.6758277,37.6631316 L42.6758277,35.5535937 L41.7070557,35.5535937 L41.7070557,36.0651975 C41.399509,35.6855778 40.9335292,35.4476533 40.2997967,35.4476533 C39.0509708,35.4476533 38.0728792,36.3741903 38.0728792,37.6631316 C38.0728792,38.9516316 39.0509708,39.87861 40.2997967,39.87861 C40.9335292,39.87861 41.399509,39.6402441 41.7070557,39.2606244 L41.7070557,39.7726696 L42.6758277,39.7726696 L42.6758277,37.6631316 Z M33.5999392,37.6631316 C33.5999392,38.9428032 34.5412184,39.87861 35.9759702,39.87861 C36.6469811,39.87861 37.0943217,39.7373561 37.5789407,39.3753931 L37.1129609,38.6338104 C36.7494966,38.8810047 36.3673932,39.0134302 35.9480114,39.0134302 C35.1744849,39.0046018 34.6064555,38.4748999 34.6064555,37.6631316 C34.6064555,36.850922 35.1744849,36.3212201 35.9480114,36.3123917 C36.3673932,36.3123917 36.7494966,36.4448172 37.1129609,36.6920114 L37.5789407,35.9504287 C37.0943217,35.5884657 36.6469811,35.4476533 35.9759702,35.4476533 C34.5412184,35.4476533 33.5999392,36.3830186 33.5999392,37.6631316 L33.5999392,37.6631316 Z M46.0863338,35.4476533 C45.527158,35.4476533 45.1641598,35.6948475 44.9125307,36.0651975 L44.9125307,35.5535937 L43.9526123,35.5535937 L43.9526123,39.7726696 L44.9218503,39.7726696 L44.9218503,37.407109 C44.9218503,36.7096682 45.2387165,36.3212201 45.8719831,36.3212201 C46.0676946,36.3212201 46.2727257,36.3477052 46.4777568,36.4271605 L46.7759839,35.5619806 C46.5616332,35.4829668 46.2820453,35.4476533 46.0863338,35.4476533 L46.0863338,35.4476533 Z M20.1256674,35.8886302 C19.6596876,35.5972941 19.0166355,35.4476533 18.3088122,35.4476533 C17.1811411,35.4476533 16.4542126,35.9592571 16.4542126,36.7979518 C16.4542126,37.4865643 16.9947491,37.9103259 17.9914799,38.0427514 L18.4481401,38.1045499 C18.9793571,38.1747354 19.2309862,38.3076023 19.2309862,38.5455268 C19.2309862,38.8721763 18.8768415,39.057572 18.2156162,39.057572 C17.5446053,39.057572 17.0599863,38.8545196 16.7338005,38.6161537 L16.2771403,39.3312513 C16.8083572,39.7020427 17.4793681,39.87861 18.2062966,39.87861 C19.4919349,39.87861 20.2375025,39.3047662 20.2375025,38.5013849 C20.2375025,37.7602437 19.650368,37.3717956 18.68113,37.2393701 L18.2249358,37.1775715 C17.805554,37.1246013 17.4700485,37.0451461 17.4700485,36.7626384 C17.4700485,36.4536456 17.7869148,36.2682499 18.3181318,36.2682499 C18.8861611,36.2682499 19.4360173,36.4713023 19.7062856,36.6302129 L20.1256674,35.8886302 Z M32.6213816,35.4476533 C32.0622059,35.4476533 31.6987416,35.6948475 31.4475785,36.0651975 L31.4475785,35.5535937 L30.4876601,35.5535937 L30.4876601,39.7726696 L31.4568981,39.7726696 L31.4568981,37.407109 C31.4568981,36.7096682 31.7737644,36.3212201 32.4074969,36.3212201 C32.6027424,36.3212201 32.8077735,36.3477052 33.0128046,36.4271605 L33.3110317,35.5619806 C33.096681,35.4829668 32.8170931,35.4476533 32.6213816,35.4476533 L32.6213816,35.4476533 Z M24.356298,35.5535937 L22.7719667,35.5535937 L22.7719667,34.2734807 L21.7938751,34.2734807 L21.7938751,35.5535937 L20.8898743,35.5535937 L20.8898743,36.391847 L21.7938751,36.391847 L21.7938751,38.3164307 C21.7938751,39.2959378 22.1941517,39.87861 23.340462,39.87861 C23.7598438,39.87861 24.2444628,39.7550129 24.5520095,39.5519604 L24.2724216,38.7662359 C23.9835141,38.9251465 23.6666479,39.0046018 23.4150188,39.0046018 C22.9303998,39.0046018 22.7719667,38.7220941 22.7719667,38.298774 L22.7719667,36.391847 L24.356298,36.391847 L24.356298,35.5535937 Z M9.87550982,39.7726696 L9.87550982,37.1246013 C9.87550982,36.126996 9.20449891,35.4560403 8.12342579,35.4476533 C7.55539641,35.4388249 6.96826187,35.6061225 6.55819965,36.197623 C6.25065298,35.730161 5.766034,35.4476533 5.08570349,35.4476533 C4.61087008,35.4476533 4.14489029,35.5796374 3.78142605,36.0740258 L3.78142605,35.5535937 L2.81218807,35.5535937 L2.81218807,39.7726696 L3.79074564,39.7726696 L3.79074564,37.4335941 C3.79074564,36.7008398 4.21944705,36.3123917 4.88067238,36.3123917 C5.5237245,36.3123917 5.84991036,36.7096682 5.84991036,37.4247658 L5.84991036,39.7726696 L6.82846793,39.7726696 L6.82846793,37.4335941 C6.82846793,36.7008398 7.27580854,36.3123917 7.91886065,36.3123917 C8.58008599,36.3123917 8.89695225,36.7096682 8.89695225,37.4247658 L8.89695225,39.7726696 L9.87550982,39.7726696 Z" id="Fill-1"></path>
        </g>
    </g>
</svg>