<?xml version="1.0" encoding="UTF-8"?>
<svg width="154px" height="40px" viewBox="0 0 154 40" version="1.1" xmlns="http://www.w3.org/2000/svg" xmlns:xlink="http://www.w3.org/1999/xlink">
    <title>MP_RGB_HANDSHAKE_pluma-relleno-negro_hori-izq</title>
    <g id="Página-1" stroke="none" stroke-width="1" fill="none" fill-rule="evenodd">
        <g id="MP_RGB_HANDSHAKE_pluma-relleno-negro_hori-izq" transform="translate(-0, 0)" fill="#454545" fill-rule="nonzero">
            <path d="M152.0746,5.82656331 C151.058317,4.51110919 149.513411,3.85539353 147.441833,3.85539353 C145.370254,3.85539353 143.827299,4.51312059 142.811016,5.82656331 C141.792782,7.14000603 141.283666,8.69280509 141.283666,10.4849605 C141.283666,12.2771159 141.792782,13.8661201 142.811016,15.1634716 C143.827299,16.4568003 145.372205,17.1044704 147.441833,17.1044704 C149.511461,17.1044704 151.058317,16.4568003 152.0746,15.1634716 C153.092834,13.8661201 153.6,12.3092982 153.6,10.4849605 C153.6,8.66062272 153.092834,7.14000603 152.0746,5.82656331 Z M149.554375,13.365282 C149.060863,14.0391003 148.354732,14.3790265 147.430129,14.3790265 C146.505526,14.3790265 145.799395,14.0391003 145.301982,13.365282 C144.804569,12.6914638 144.556838,11.7300157 144.556838,10.4849605 C144.556838,9.23990527 144.804569,8.28247995 145.301982,7.6106731 C145.799395,6.93886626 146.509427,6.60296284 147.430129,6.60296284 C148.350831,6.60296284 149.058913,6.93886626 149.554375,7.6106731 C150.047886,8.28247995 150.295618,9.24191667 150.295618,10.4849605 C150.295618,11.7280043 150.047886,12.6914638 149.554375,13.365282 Z" id="Shape"></path>
            <path d="M126.076484,4.72632875 C125.044596,4.18727416 123.86446,3.91573546 122.536075,3.91573546 C120.493756,3.91573546 119.052233,4.46484705 118.211508,5.56105881 C117.682885,6.26303662 117.388338,7.16012001 117.318115,8.25029758 L120.370865,8.25029758 C120.44499,7.76756213 120.595189,7.38740796 120.821463,7.10581227 C121.135516,6.7256581 121.671942,6.53457532 122.426839,6.53457532 C123.10176,6.53457532 123.612827,6.63112241 123.963942,6.82622799 C124.311156,7.01932217 124.486714,7.37332817 124.486714,7.8842232 C124.486714,8.30460532 124.260439,8.61033778 123.805941,8.81147755 C123.552358,8.92612722 123.13102,9.02066292 122.541927,9.09709603 L121.459322,9.23387108 C120.230419,9.3947829 119.298014,9.66229879 118.666007,10.0364188 C117.511229,10.7223054 116.93384,11.832597 116.93384,13.365282 C116.93384,14.5459725 117.290806,15.4591471 118.010592,16.1027943 C118.726477,16.748453 119.637425,17.0179803 120.737586,17.0702767 C127.636996,17.3900889 127.560921,13.3210313 127.623341,12.4762442 L127.623341,7.7957217 C127.623341,6.29320759 127.106422,5.27141754 126.076484,4.72834015 L126.076484,4.72632875 Z M124.473059,11.8305856 C124.451602,12.9207631 124.149253,13.6710145 123.567963,14.083351 C122.984722,14.4956876 122.350764,14.7008501 121.660238,14.7008501 C121.223295,14.7008501 120.852673,14.5741321 120.548374,14.3287415 C120.244074,14.0813396 120.091924,13.6770487 120.091924,13.1198915 C120.091924,12.4963582 120.341606,12.0357481 120.839019,11.7360499 C121.133565,11.5610583 121.617324,11.4122148 122.292245,11.2935424 L123.012031,11.1547559 C123.370948,11.084357 123.65184,11.0079239 123.858608,10.927468 C124.067326,10.8510349 124.268242,10.7464422 124.469158,10.6157013 L124.469158,11.8285742 L124.473059,11.8305856 Z" id="Shape"></path>
            <path d="M110.342631,6.70353273 C111.132639,6.70353273 111.710028,6.95495744 112.086502,7.45780688 C112.342035,7.82790406 112.501988,8.24828619 112.564408,8.71291906 L115.968273,8.71291906 C115.782963,6.94087766 115.182166,5.70587945 114.165883,5.00591304 C113.147649,4.30795802 111.844623,3.95797482 110.25095,3.95797482 C108.376386,3.95797482 106.905605,4.55133715 105.840556,5.73605041 C104.775507,6.92277508 104.241032,8.58217821 104.241032,10.7142598 C104.241032,12.6009509 104.72284,14.1416816 105.688406,15.3263948 C106.653972,16.5111081 108.157915,17.1044704 110.202185,17.1044704 C112.246454,17.1044704 113.795261,16.394447 114.836903,14.9703774 C115.490367,14.0893852 115.857087,13.1540853 115.933162,12.166489 L112.541001,12.166489 C112.470778,12.8201932 112.273763,13.3532136 111.944105,13.7635388 C111.618348,14.1718525 111.066318,14.3790265 110.286062,14.3790265 C109.187852,14.3790265 108.438807,13.8620973 108.042827,12.8262274 C107.824356,12.2730931 107.713169,11.5429557 107.713169,10.6317925 C107.713169,9.72062933 107.824356,8.91405884 108.042827,8.33276489 C108.456363,7.24862151 109.222964,6.70353273 110.342631,6.70353273 Z" id="Path"></path>
            <path d="M103.218897,7.26471269 C103.372998,7.27275828 103.548555,7.28683807 103.751421,7.31097484 L103.751421,3.98211159 C103.610975,3.9720546 103.519295,3.9680318 103.480283,3.96199761 C103.439319,3.95797482 103.390553,3.95596342 103.330083,3.95596342 C96.3370428,3.95596342 96.7525289,10.3381284 96.7525289,10.3381284 L96.7525289,16.8228747 L99.9262185,16.8228747 L99.9262185,10.7424194 C99.9262185,9.7447661 100.049109,9.00859453 100.289037,8.52787047 C100.72403,7.67704923 101.576459,7.25063291 102.844374,7.25063291 C102.939956,7.25063291 103.064797,7.2566671 103.218897,7.26471269 Z" id="Path"></path>
            <path d="M85.157931,15.6059791 C86.3829322,16.6237464 87.7990961,17.1366528 89.4025213,17.1366528 C91.3453577,17.1366528 92.8571029,16.5312221 93.9358063,15.322372 C94.5190473,14.6867703 94.8838168,14.0572028 95.0379173,13.4356809 L91.6711144,13.4356809 C91.538471,13.6327979 91.3960743,13.7997439 91.2380726,13.9304848 C90.7894256,14.310639 90.1808263,14.4273 89.4649418,14.4273 C88.7880701,14.4273 88.2555456,14.3227073 87.7756884,14.0109407 C86.983729,13.5080913 86.5370327,12.6592814 86.4902174,11.4142262 L95.2700433,11.4142262 C95.2817471,10.3401398 95.2485863,9.51747816 95.1647088,8.9462412 C95.0203615,7.9727247 94.6965555,7.11586926 94.2049944,6.37768629 C93.6568649,5.54094483 92.9604868,4.92746852 92.121712,4.53725736 C91.2809867,4.151069 90.3368774,3.95797482 89.2893843,3.95797482 C87.5221054,3.95797482 86.0864351,4.53122317 84.9784722,5.67973128 C83.8724599,6.83025078 83.3165278,8.47959693 83.3165278,10.6338039 C83.3165278,12.9328315 83.9309791,14.5902232 85.157931,15.6100019 L85.157931,15.6059791 Z M87.4089683,7.34315721 C87.8556646,6.87047874 88.4818197,6.6331338 89.2913349,6.6331338 C90.0345284,6.6331338 90.6587328,6.85639895 91.1619977,7.30494065 C91.6633119,7.75147095 91.9422533,8.40718661 92.0007724,9.26605344 L86.5721442,9.26605344 C86.6852813,8.45747155 86.9681239,7.81784707 87.410919,7.34315721 L87.4089683,7.34315721 Z" id="Shape"></path>
            <path d="M79.1460617,9.2982358 L79.1460617,16.8228747 L82.0427606,16.8228747 L82.0427606,9.36863473 C82.0427606,6.16447813 80.1779497,3.91372407 77.0120627,3.91372407 C75.5393303,3.91372407 74.265563,4.57949672 73.4092325,5.64553752 C72.5958161,4.57949672 71.3435059,3.91372407 69.8044518,3.91372407 C66.7048864,3.91372407 64.7074322,6.26102522 64.7074322,9.36863473 L64.7074322,16.8228747 L67.6080323,16.8228747 L67.6080323,9.2982358 C67.6080323,7.92445115 68.5092275,6.97507142 69.8064024,6.97507142 C71.7180286,6.97507142 71.9150431,8.61033778 71.9150431,9.2982358 L71.9150431,16.8228747 L74.8156432,16.8228747 L74.8156432,9.2982358 C74.8156432,7.92445115 75.7382955,6.97507142 77.0120627,6.97507142 C78.9236889,6.97507142 79.1441111,8.61033778 79.1441111,9.2982358 L79.1460617,9.2982358 Z" id="Path"></path>
            <path d="M137.142459,2.32270846 L137.138558,5.82857471 C136.785492,5.24124657 136.325141,4.78264789 135.757505,4.45479006 C135.19182,4.12492083 134.542257,3.95797482 133.810768,3.95797482 C132.224898,3.95797482 130.962835,4.56742833 130.014824,5.78030116 C129.066814,6.99719679 128.592809,8.75113562 128.592809,10.8711488 C128.592809,12.7115778 129.074616,14.2201261 130.036281,15.3947823 C130.997946,16.5674272 132.884214,17.082345 134.559813,17.082345 C140.401977,17.082345 140.333723,11.9170757 140.333723,11.9170757 L140.333723,0.0277036396 C140.333723,0.0277036396 137.140508,-0.324290964 137.140508,2.32270846 L137.142459,2.32270846 Z M136.531909,13.3934416 C136.069608,14.0773168 135.388835,14.4192544 134.497393,14.4192544 C133.605951,14.4192544 132.940783,14.073294 132.501889,13.3874074 C132.062995,12.697498 131.844524,11.6958219 131.844524,10.5493252 C131.844524,9.4832844 132.059094,8.5942466 132.490185,7.87617761 C132.921276,7.15810861 133.596198,6.79806842 134.51885,6.79806842 C135.123548,6.79806842 135.654122,6.9951854 136.112522,7.38941935 C136.855715,8.04312362 137.230238,9.2177799 137.230238,10.7363852 C137.230238,11.82254 136.996161,12.7095664 136.531909,13.3934416 L136.531909,13.3934416 Z" id="Shape"></path>
            <path d="M71.4137289,21.8252209 C68.7998727,21.6985028 67.4812408,22.3401387 66.621009,23.0179798 C65.4330699,23.9532797 64.7093828,25.3371214 64.7093828,27.5476475 L64.7093828,38.9140561 L66.2464863,38.9140561 C66.6580711,38.9140561 67.0696559,38.767224 67.372005,38.4795942 C67.7114162,38.1577705 67.8811217,37.7635366 67.8811217,37.3009151 L67.8811217,33.0528431 C68.2556444,33.7186157 68.7491561,34.2073854 69.3733605,34.5251862 C69.9644041,34.8087933 70.6471278,34.9516025 71.4234821,34.9516025 C72.8845107,34.9516025 74.0841536,34.352206 75.0146084,33.1473788 C75.9470138,31.9103692 76.4132165,30.301251 76.4132165,28.3079558 C76.4132165,26.3146607 75.9723721,24.8946138 74.9151258,23.5670913 C74.060746,22.493005 72.7616204,21.8875742 71.4156795,21.8252209 L71.4137289,21.8252209 Z M72.4963335,31.1540836 C72.0301308,31.8198563 71.3922719,32.1517369 70.5847073,32.1517369 C69.7147224,32.1517369 69.0456532,31.8218677 68.5794505,31.1540836 C68.1132478,30.5526757 67.8791711,29.6555923 67.8791711,28.4487536 C67.8791711,27.1554249 68.095692,26.2040338 68.5306845,25.6026259 C68.9988379,24.940876 69.6523019,24.6049726 70.4910767,24.6049726 C71.3298514,24.6049726 72.0301308,24.9388646 72.4963335,25.6026259 C72.9644869,26.2683985 73.1966129,27.2157668 73.1966129,28.4487536 C73.1966129,29.5912276 72.9644869,30.488311 72.4963335,31.1540836 Z" id="Shape"></path>
            <path d="M98.6680564,22.9978658 C97.589353,22.1550901 96.487242,21.714594 94.5931716,21.7668904 C92.6698416,21.8211981 91.2712335,22.3763439 90.4012485,23.5912281 C89.5312635,24.8081237 89.0982217,26.397128 89.0982217,28.354218 C89.0982217,30.0297123 89.425929,31.3793602 90.0813437,32.4112072 C90.738709,33.43702 91.5248165,34.1410092 92.4416168,34.5171406 C93.3545159,34.8972948 94.2791187,34.9757393 95.2115241,34.7564969 C96.1419789,34.5332318 96.8832217,33.9841202 97.4333019,33.0991052 L97.4333019,33.9016529 C97.3708815,34.913386 97.1348542,35.6716829 96.72522,36.1785551 C96.3097339,36.6814046 95.8532844,36.9911598 95.3480689,37.1017867 C94.8487053,37.2104022 94.3415392,37.1500603 93.840225,36.9107039 C93.3350095,36.6753704 92.9624374,36.3334328 92.7186076,35.8929367 L89.3752124,35.8929367 C90.2412961,38.5761412 91.7959553,39.7608545 94.5970729,39.9700399 C99.1147527,40.3059433 100.554324,36.3615923 100.550431,34.2335335 L100.550431,27.5456361 C100.550431,25.33511 99.8520942,23.9190859 98.6719577,22.993843 L98.6680564,22.9978658 Z M97.3396712,29.5670908 C97.216781,30.3072852 97.0197665,30.8543853 96.7427757,31.2003458 C96.163436,32.020996 95.2602901,32.3126487 94.0430914,32.0793266 C92.8200408,31.8399702 92.2094908,30.6311202 92.2094908,28.4527764 C92.2094908,27.4410434 92.3909002,26.5399372 92.759571,25.7474465 C93.1262911,24.96099 93.8265705,24.5627332 94.8643104,24.5627332 C95.6270102,24.5627332 96.2083007,24.8483517 96.6042804,25.4155659 C97.0022107,25.9847914 97.2557938,26.6324615 97.3611283,27.3605875 C97.4684134,28.0867021 97.4586602,28.8228736 97.3377206,29.5650794 L97.3396712,29.5670908 Z" id="Shape"></path>
            <path d="M86.3829322,22.6659852 C85.3510442,22.128942 84.1709077,21.8553919 82.8425225,21.8553919 C80.8002035,21.8553919 79.360632,22.4045035 78.5218572,23.5027266 C77.9951847,24.202693 77.6986876,25.0997764 77.6284646,26.189954 L80.6812146,26.189954 C80.7553388,25.7092299 80.905538,25.3270644 81.1298615,25.0474801 C81.4439144,24.6673259 81.9803401,24.4742317 82.7352374,24.4742317 C83.4121091,24.4742317 83.9231765,24.5707788 84.2723409,24.7658844 C84.6195546,24.9589786 84.7931615,25.3129846 84.7931615,25.8238796 C84.7931615,26.2422503 84.5668874,26.5520056 84.1123885,26.7491226 C83.8588054,26.8637722 83.4374674,26.9583079 82.8483744,27.034741 L81.7677205,27.1695047 C80.5388179,27.3304165 79.6044619,27.5979324 78.9763561,27.9720524 C77.8196272,28.657939 77.2441887,29.7662192 77.2441887,31.2989042 C77.2441887,32.4795947 77.6011557,33.3927693 78.3209414,34.0364166 C79.0368259,34.6820752 79.9477743,34.9516025 81.0498853,35.0038989 C87.9473447,35.3216997 87.8693191,31.2546535 87.9317396,30.4098664 L87.9317396,25.7293439 C87.9317396,24.2288412 87.4187215,23.2070511 86.3868335,22.6639738 L86.3829322,22.6659852 Z M84.779507,29.7682306 C84.7600006,30.8604195 84.4557009,31.6086595 83.8763612,32.020996 C83.2950708,32.4333326 82.6591625,32.6384951 81.9686363,32.6384951 C81.5316932,32.6384951 81.1630224,32.5117771 80.8567721,32.2663866 C80.5524724,32.0189846 80.4003226,31.6167051 80.4003226,31.0595479 C80.4003226,30.4360146 80.6500043,29.9754045 81.1474173,29.6777177 C81.4439144,29.5027261 81.9257222,29.3538826 82.6006433,29.2352102 L83.3223797,29.0984351 C83.6812973,29.0280362 83.9641399,28.9536145 84.1670064,28.8731586 C84.3757247,28.7947141 84.5785912,28.6901214 84.779507,28.5593805 L84.779507,29.7722534 L84.779507,29.7682306 Z" id="Shape"></path>
            <path d="M107.910184,21.7266624 C105.842506,21.7266624 104.2976,22.3823781 103.281318,23.6998436 C102.263084,25.0132863 101.753967,26.564074 101.753967,28.3562294 C101.753967,30.1483847 102.263084,31.7353775 103.281318,33.0327291 C104.2976,34.3240464 105.842506,34.9717165 107.910184,34.9717165 C109.977861,34.9717165 111.524718,34.3240464 112.544902,33.0327291 C113.561185,31.7353775 114.068351,30.1785557 114.068351,28.3562294 C114.068351,26.533903 113.561185,25.0132863 112.544902,23.6998436 C111.526668,22.3843895 109.981762,21.7266624 107.910184,21.7266624 Z M110.022726,31.2325281 C109.529214,31.9083578 108.823083,32.248284 107.902381,32.248284 C106.98168,32.248284 106.271647,31.9083578 105.774234,31.2325281 C105.274871,30.5587099 105.027139,29.5992732 105.027139,28.354218 C105.027139,27.1091628 105.274871,26.1517374 105.774234,25.4799306 C106.269696,24.8081237 106.979729,24.4722203 107.902381,24.4722203 C108.825033,24.4722203 109.531165,24.8081237 110.022726,25.4799306 C110.516237,26.1517374 110.762018,27.1091628 110.762018,28.354218 C110.762018,29.5992732 110.516237,30.5587099 110.022726,31.2325281 Z" id="Shape"></path>
            <path d="M56.0465952,18.6612923 C55.9627177,8.25029758 43.3479356,-0.131196782 27.8696155,0.00155546905 C12.393246,0.13430772 -0.0830407469,8.73102164 0.00041626778,19.1420163 C0.00278736714,19.4115436 0.0047380061,20.1557608 0.00668864505,20.2482851 C0.096418037,31.29287 11.1331332,40.1450315 28.1914709,39.9981994 C45.3531924,39.8513674 56.1441271,30.812146 56.054953,19.7655496 L56.0446446,18.6572695 L56.0465952,18.6612923 Z M28.1719645,36.6673248 C13.2905399,36.7960543 1.16341755,28.9415461 1.08301824,19.1259251 C1.07954007,18.7296798 1.10294774,18.3394686 1.14000988,17.9492575 L1.31166611,16.748453 C1.33702441,16.6197236 1.37798783,16.4950169 1.40724742,16.3662874 C2.01974805,16.5493246 2.46449373,16.6760427 2.67906401,16.7263276 C9.52580675,18.3354458 12.2469481,20.0089287 13.0545126,20.6063139 C13.5831358,20.1195556 14.2775632,19.8439941 14.9797933,19.8439941 L14.9817439,19.8439941 C15.8029629,19.8439941 16.5734653,20.2060457 17.1215948,20.8376246 C17.9818266,20.2663877 19.0293197,20.1457038 20.0904673,20.525858 C20.7848948,20.7712485 21.3330243,21.2278358 21.6841394,21.8513691 C22.3922213,21.6180469 23.1939339,21.6723547 23.9956465,22.0283721 C25.5386019,22.7122473 25.7629254,24.1845904 25.7317152,25.117879 C27.5653158,25.158107 29.0439001,26.7088946 29.0419495,28.6076541 C29.0419495,29.0602186 28.9541707,29.5147944 28.7864158,29.9291424 C29.2955326,30.1926355 30.1635669,30.5607213 30.9321186,30.4641742 C31.6616576,30.3696385 31.8801292,30.1282708 31.9308458,30.0558604 C31.9366977,30.0498262 31.940599,30.0417807 31.9445003,30.0357465 L29.8787736,27.6824111 C29.5179054,27.3324279 29.4262254,26.9743991 29.6427463,26.7290086 C29.7324757,26.6244159 29.8592672,26.5660854 29.9977626,26.5660854 C30.2376912,26.5660854 30.4425083,26.7450998 30.5927075,26.8758406 C31.7123742,27.8393001 33.0544138,29.2673925 33.0680683,29.2814723 L33.1012292,29.3196889 C33.1304887,29.355894 33.2163169,29.4283043 33.5011101,29.4806007 C33.5966915,29.4987033 33.702026,29.5087603 33.8112617,29.5087603 C34.0199801,29.5087603 34.5486033,29.4725551 34.9348298,29.1467087 C35.0050528,29.0843553 35.0811277,29.0099336 35.1533013,28.9314891 L35.2332775,28.824885 C35.5843926,28.3622635 35.2508333,27.8915965 35.1806103,27.8010836 L32.6662367,24.8845569 C32.6662367,24.8845569 32.5667541,24.7880098 32.4828766,24.6693373 C32.2097872,24.2932059 32.3326774,24.045804 32.4302094,23.9311543 C32.52384,23.828573 32.6467303,23.7762767 32.7754725,23.7762767 C32.9997959,23.7762767 33.2085143,23.9291429 33.3996769,24.0940776 C34.0726474,24.6753715 34.987497,25.6026259 35.8711365,26.4997092 L36.4270686,27.0669234 C36.4953409,27.1131856 36.8289002,27.3243823 37.2931523,27.3263937 C37.6637737,27.3263937 38.0441483,27.1956529 38.4225722,26.9381939 C38.9472941,26.5861993 39.191124,26.1537488 39.1677163,25.6207284 C39.1287035,25.1540842 38.7522302,24.7819756 38.7483289,24.7779528 L35.2898461,21.1896192 C34.9328791,20.8758412 34.8275446,20.495687 35.0323617,20.2342053 C35.1201405,20.121567 35.2664384,20.0632365 35.3951806,20.0592137 C35.6195041,20.0592137 35.8165186,20.2120799 36.0135331,20.3830487 C36.6279844,20.9140577 37.9349125,22.1208964 39.8972553,23.9673595 C40.0103923,24.0739636 40.0806153,24.1383283 40.0903685,24.1483853 C40.0903685,24.1483853 40.4492861,24.4038328 40.9779093,24.4058442 C41.3270736,24.4058442 41.6781887,24.2932059 42.0195505,24.0699408 C42.3940731,23.8245503 42.6105941,23.4705443 42.6301005,23.0763103 C42.665212,22.3582413 42.1775522,21.9137224 42.1736509,21.9096996 C41.2509987,21.0769809 33.3587135,13.9586444 31.5231622,12.5345748 C30.4620147,11.7099017 29.8729217,11.4946821 29.2643223,11.4142262 C29.1999513,11.4041692 29.1316789,11.4041692 29.0595052,11.4021578 C28.8156754,11.4021578 28.5016225,11.4464086 28.2441382,11.5168075 C27.3078315,11.7803006 26.0789289,12.6814068 25.2108946,13.3914302 C24.0814746,14.3146618 23.0242283,15.1815742 21.9923403,15.4189191 C21.6685342,15.4933408 21.313518,15.539603 20.9467978,15.5315574 C19.973429,15.529546 18.9220346,15.2519731 18.330991,14.8396366 C18.001333,14.6103372 17.7633551,14.3367871 17.6443661,14.0471459 C17.3381158,13.3109743 17.7965159,12.7196234 18.0071849,12.4983696 L20.3811125,9.85539298 C20.3986683,9.8372904 20.4142734,9.82119922 20.4298785,9.80510803 C20.0885167,9.88958674 19.7530068,9.98412243 19.3940892,10.0887151 C18.5319068,10.336117 17.6599712,10.5875418 16.7743811,10.5875418 L16.7704798,10.5875418 C16.4739827,10.5875418 16.1813869,10.5613936 15.8965936,10.5392682 L15.6118003,10.5171428 C14.3672926,10.4346755 10.4113968,9.39880569 6.92365438,7.95261072 C6.92755566,7.94858792 6.93145694,7.94456513 6.93535821,7.94255373 L7.89897386,7.18023399 C12.8009296,3.5235129 19.9285643,1.18828013 27.8813193,1.11989261 C36.09546,1.04949369 43.4669246,3.41288603 48.4391033,7.19431377 L49.3949164,7.96065631 C49.4592874,8.01496405 49.515856,8.07329458 49.5782764,8.12760232 L49.2661742,8.27644575 C46.5099213,9.57580869 43.9370286,10.209399 41.3992473,10.209399 L41.3875434,10.209399 C38.9492448,10.2053762 36.5226499,9.60195686 34.1779819,8.41925499 C33.9107443,8.29052554 31.4763469,7.15810861 29.0185418,7.15408582 C28.9561214,7.15408582 28.8897997,7.15408582 28.8273792,7.15810861 C24.9104962,7.24661011 23.2036871,9.00457174 21.3954448,10.8631032 L19.0585793,13.4578063 C19.011764,13.5201597 18.990307,13.5583762 18.9825044,13.5805016 C19.2516926,13.8942796 19.9539226,14.113522 20.7146718,14.1155334 C21.0404285,14.1155334 21.3661852,14.0773168 21.6841394,14.0049065 C22.3980732,13.8419833 23.3753433,13.041447 24.3214032,12.2690703 L24.3877249,12.2147625 C25.4371687,11.3558957 26.521724,10.4688693 27.6296869,10.1088291 C28.1173466,9.94791727 28.5874506,9.86746136 29.028295,9.86746136 L29.0341469,9.86746136 C29.5101028,9.86746136 29.8807242,9.96199706 30.1479618,10.0464758 C30.7331535,10.2254902 31.3983214,10.6237469 32.3697396,11.3800325 C33.9575597,12.6089965 39.520782,17.5932401 42.7549414,20.5097668 C44.5553811,19.6911279 49.1179256,17.7581747 54.7318645,16.4769143 C54.7318645,16.4769143 54.7318645,16.4688687 54.7357658,16.4547889 C54.7435684,16.4970283 54.7572228,16.5372563 54.7650254,16.581507 L54.9308297,17.7782887 C54.9542374,18.0719527 54.9698425,18.3676282 54.9721906,18.6653151 C55.0517693,28.480936 43.0533891,36.5426181 28.1700139,36.6713476 L28.1719645,36.6673248 Z" id="Shape"></path>
            <path d="M25.6927024,26.4091963 L25.6927024,26.4091963 C25.3845015,26.4091963 25.0528928,26.5258574 24.8344213,26.6043019 C24.6842221,26.6565983 24.5944927,26.690792 24.522319,26.690792 L24.4755037,26.690792 L24.4111326,26.6586097 C24.3643173,26.6264273 24.3409096,26.5801652 24.3292058,26.5258574 C24.2648347,26.4293103 24.2843411,26.2784555 24.3974781,25.992837 C24.4033301,25.9787572 24.7446919,24.9911609 24.4501454,24.1383283 C24.3057981,23.7662197 24.0366099,23.4262935 23.5528515,23.2110739 C23.2251441,23.0642419 22.90719,22.993843 22.6106929,22.9918316 C21.9591795,22.9918316 21.5417427,23.3337692 21.3525307,23.5409432 C21.3057154,23.5912281 21.2413443,23.6475473 21.1555162,23.6475473 C21.1282073,23.6475473 21.0150702,23.6314561 20.9702055,23.4886468 C20.9467978,23.4544531 20.9292421,23.4081909 20.9233902,23.3418148 C20.913637,23.1990056 20.8843774,22.983786 20.8044012,22.7524753 C20.654202,22.3602527 20.351853,21.9358478 19.7374017,21.7407422 C19.4857693,21.6602863 19.2360875,21.6200583 18.9942082,21.6200583 C17.7223916,21.6200583 17.0318654,22.7001789 17.0045565,22.7464411 L16.7529241,23.150732 L16.7431709,23.0763103 C16.7431709,23.0763103 16.731467,23.0843559 16.7295164,23.0843559 C16.6768492,23.0702761 16.6690466,22.609666 16.6690466,22.609666 C16.6573428,22.5070847 16.6339351,22.4065148 16.6046755,22.3099678 C16.3686482,21.6180469 15.7346905,21.1312887 15.0051516,21.1312887 C14.062993,21.1312887 13.2944412,21.921768 13.2924906,22.8993073 C13.2924906,23.120561 13.3373553,23.3317578 13.4095289,23.5268634 C13.6709145,24.1544195 14.2756126,24.5929042 14.9778426,24.5949156 C15.418687,24.5949156 15.7659008,24.3173427 16.1599298,24.1021231 C16.267215,24.0437926 16.3784014,24.035747 16.4115623,24.0840206 C16.4427725,24.1282713 16.4525257,24.1785563 16.456427,24.232864 C16.477884,24.2771147 16.4895878,24.3273997 16.4817853,24.389753 C16.4427725,24.6311207 16.3901052,25.1520728 16.5520083,25.6971615 C16.7256151,26.2181136 17.1040391,26.7491226 17.8920972,27.064912 C18.0910624,27.1453679 18.2900276,27.1835845 18.4850915,27.1855959 C18.8381571,27.1855959 19.1853709,27.0608892 19.5481897,26.7973961 C19.6359685,26.7330314 19.7022902,26.7028604 19.7647106,26.7068832 C19.8076247,26.710906 19.8739464,26.7249858 19.9188111,26.7772821 C19.9539226,26.8175101 19.9675771,26.8657836 19.9714784,26.9140572 C19.9987873,26.9804333 20.0026886,27.0528436 19.9909847,27.1252539 C19.9714784,27.2600176 19.9636758,27.4671916 20.0241456,27.7025251 C20.1450852,28.0786565 20.4474343,28.5070842 21.1789239,28.8128166 C21.4305563,28.9194207 21.6685342,28.9717171 21.8889564,28.9717171 C22.3727149,28.9717171 22.7043235,28.7202923 22.9657092,28.470879 C23.0573892,28.3843889 23.139316,28.3260584 23.230996,28.3260584 C23.3675408,28.3260584 23.4221587,28.4286397 23.447517,28.531221 C23.490431,28.6197225 23.4982336,28.7283379 23.5001842,28.7866685 C23.5099374,29.0642414 23.5743085,29.3237117 23.6718405,29.5650794 C24.0190542,30.3354447 24.7778527,30.8664537 25.6614922,30.8684651 C26.872839,30.8684651 27.8598623,29.8547207 27.8618129,28.6076541 C27.8618129,28.31399 27.8032938,28.0344057 27.7018605,27.7769468 C27.3604987,26.9824447 26.5899963,26.4212647 25.6927024,26.4091963 L25.6927024,26.4091963 Z" id="Path"></path>
        </g>
    </g>
</svg>