<?xml version="1.0" encoding="UTF-8"?>
<svg width="115px" height="100px" viewBox="0 0 115 100" version="1.1" xmlns="http://www.w3.org/2000/svg" xmlns:xlink="http://www.w3.org/1999/xlink">
    <title>Grupo</title>
    <g id="Página-1" stroke="none" stroke-width="1" fill="none" fill-rule="evenodd">
        <g id="Grupo">
            <path d="M114.732521,36.9036298 L114.732521,36.9778654 C114.732521,37.3487286 114.659721,37.7195919 114.58692,38.0907697 C110.221747,58.7144152 96.619788,74.7392305 80.18178,86.8314485 C76.4721262,89.5023559 72.6893555,92.0241631 68.7613005,94.3984428 C65.7787008,96.178838 62.069047,99.1463731 58.723395,99.8880996 C55.1593419,100.704376 50.4311159,96.8466435 47.5213166,95.0662483 C44.0300638,93.0631464 40.6116115,90.8376523 37.2650099,88.5376082 C22.6444792,78.300021 9.76957473,65.0945842 3.2966719,47.9574936 C0.169421046,39.7226938 -1.35875376,30.9688742 1.55104554,22.4371321 C4.31429452,14.5731956 9.98797585,7.67400676 17.2616828,3.74235304 C31.2279598,-3.82495583 48.2483707,1.21991675 57.4864217,13.3124493 C65.8515012,2.55521318 80.3992316,-3.08322933 93.4915876,1.73925112 C107.676266,7.00651583 116.695599,21.7696412 114.732521,36.9036298" id="Fill-1" fill="#FFC4D8"></path>
            <g id=":(" transform="translate(57.5, 50.25) rotate(90) translate(-57.5, -50.25)translate(40.5, 22.25)" fill="#FFFFFF" fill-rule="nonzero">
                <path d="M5.25,21.5391791 C8.89736842,21.5391791 10.75,20.3246269 10.75,17.5485075 C10.75,14.8302239 8.89736842,13.5 5.25,13.5 C1.60263158,13.5 -0.25,14.8302239 -0.25,17.5485075 C-0.25,20.3246269 1.60263158,21.5391791 5.25,21.5391791 Z M5.25,44.5 C8.89736842,44.5 10.75,43.2276119 10.75,40.4514925 C10.75,37.733209 8.89736842,36.4029851 5.25,36.4029851 C1.60263158,36.4029851 -0.25,37.733209 -0.25,40.4514925 C-0.25,43.2276119 1.60263158,44.5 5.25,44.5 Z" id="Forma"></path>
                <path d="M28.1673228,56 C30.234252,55.7659352 32.1830709,55.7659352 34.25,56 C28.757874,49.0950888 25.273622,37.5088819 25.273622,27.5611285 C25.273622,17.6718913 28.757874,5.73458725 34.25,0 C32.1830709,0.234064786 30.234252,0.234064786 28.1673228,0 C22.3208661,6.90491118 19.25,17.6718913 19.25,27.5611285 C19.25,37.4503657 22.3208661,48.1003135 28.1673228,56 Z" id="Trazado"></path>
            </g>
        </g>
    </g>
</svg>