<?xml version="1.0" encoding="UTF-8"?>
<svg width="82px" height="40px" viewBox="0 0 82 40" version="1.1" xmlns="http://www.w3.org/2000/svg" xmlns:xlink="http://www.w3.org/1999/xlink">
    <title>oxxo-logo</title>
    <g id="Página-1" stroke="none" stroke-width="1" fill="none" fill-rule="evenodd">
        <g id="oxxo-logo" transform="translate(-0, 0)" fill="#454545" fill-rule="nonzero">
            <path d="M0,4.39384185 C0,1.9679172 2.01613602,0 4.50139579,0 L77.0393685,0 C79.5245362,0 81.5384615,1.9679172 81.5384615,4.39384185 L81.5384615,4.53347175 L0,4.53347175 L0,4.39384185 Z M81.5384615,35.4970918 L81.5384615,35.6061582 C81.5384615,38.0320828 79.5245362,40 77.0393685,40 L4.50139579,40 C2.01622813,40 0,38.0320828 0,35.6061582 L0,35.4970918 L81.5384615,35.4970918 Z" id="Shape"></path>
            <path d="M56.4314519,19.9530854 C56.4314519,26.0943059 61.530467,31.0727755 67.8224178,31.0727755 C74.1121579,31.0727755 79.2133836,26.094395 79.2133836,19.9531745 C79.2133836,13.8096373 74.1121579,8.83125678 67.8224178,8.83125678 C61.530467,8.83125678 56.4314519,13.8096373 56.4314519,19.9530854 Z M2.12206422,19.9530854 C2.12206422,26.0943059 7.22328995,31.0727755 13.5153329,31.0727755 C19.805073,31.0727755 24.9062987,26.094395 24.9062987,19.9531745 C24.9062987,13.8096373 19.805073,8.83125678 13.5153329,8.83125678 C7.22338206,8.83125678 2.12206422,13.8096373 2.12206422,19.9530854 L2.12206422,19.9530854 Z M81.5384615,33.3918615 L25.3731197,33.3918615 C26.3857012,32.6980782 27.32837,31.7490939 28.3566105,30.4684552 L34.0781149,23.3411821 L36.5768229,26.4237326 L39.3574842,22.813137 L36.926386,19.7916244 L42.7493051,12.5356816 C44.5985352,10.2340605 41.0623755,7.52878697 39.2131455,9.83040804 L34.0668773,16.2442944 L28.8347611,9.74531133 C26.9833204,7.45028414 23.453885,10.1620625 25.3054178,12.4592282 L31.2185141,19.7938521 L24.8205429,27.7632707 C22.5473238,30.5950755 20.2786181,33.1911045 15.7750116,33.3918615 L0,33.3918615 L0,6.63870207 L55.8699403,6.63870207 C54.9092176,7.3237529 54.0026565,8.24217366 53.0193664,9.4682792 L47.3001648,16.5934137 L44.7992461,13.5130018 L42.0208876,17.1235974 L44.4519858,20.1428823 L38.626856,27.3989142 C36.7798366,29.7005353 40.3159041,32.4058089 42.1630156,30.1041878 L47.3114945,23.6923509 L52.5435185,30.1891954 C54.3950514,32.4864502 57.9243947,29.774761 56.0728619,27.4775062 L50.1598577,20.1407437 L56.5577367,12.1734636 C58.6460882,9.56861312 60.7321368,7.16451957 64.5523682,6.63870207 L81.5384615,6.63870207 L81.5384615,33.3918615 Z M61.0027603,19.9530854 C61.0027603,16.274947 64.0562558,13.2947799 67.8224178,13.2947799 C71.5885797,13.2947799 74.6398645,16.274947 74.6398645,19.9530854 C74.6398645,23.6290853 71.5885797,26.6091633 67.8224178,26.6091633 C64.0562558,26.6091633 61.0027603,23.6290853 61.0027603,19.9530854 Z M6.69567541,19.9530854 C6.69567541,16.274947 9.74917089,13.2947799 13.5153329,13.2947799 C17.2791921,13.2947799 20.3327797,16.274947 20.3327797,19.9530854 C20.3327797,23.6290853 17.2792842,26.6091633 13.5153329,26.6091633 C9.74917089,26.6091633 6.69567541,23.6290853 6.69567541,19.9530854" id="Shape"></path>
        </g>
    </g>
</svg>