<?xml version="1.0" encoding="UTF-8"?>
<svg width="29px" height="38px" viewBox="0 0 29 38" version="1.1" xmlns="http://www.w3.org/2000/svg" xmlns:xlink="http://www.w3.org/1999/xlink">
    <title>Group-3</title>
    <g id="Page-1" stroke="none" stroke-width="1" fill="none" fill-rule="evenodd">
        <g id="Registro" transform="translate(-751, -624)" fill="#CC3333" fill-rule="nonzero">
            <g id="Group-3" transform="translate(765.5, 643) scale(-1, 1) translate(-765.5, -643)translate(751, 624)">
                <path d="M15.2082731,0 C15.8489638,0.162387148 16.508967,0.267980624 17.1272304,0.49664255 C20.1979893,1.63223716 22.1531685,4.54098418 22.1694549,7.95650551 C22.1782658,9.79937191 22.171057,11.6422383 22.171057,13.4851047 L22.171057,13.9527463 C22.3059767,13.9527463 22.4298607,13.9504224 22.5537448,13.953118 C23.4996069,13.9736604 24.4550807,13.9136135 25.3894622,14.0333356 C27.3882499,14.2896972 28.9311051,16.1228967 28.9836136,18.2264935 C29.0135165,19.4254813 28.9933142,20.6257705 28.9934922,21.825502 C28.9940263,25.7091297 28.9991881,29.5927573 28.9914453,33.4763848 C28.9871734,35.6441184 27.6556865,37.4029562 25.6596577,37.8827745 C25.3173744,37.965037 24.9563129,37.9939452 24.6039729,37.994224 C17.8658181,38.0005447 11.1277521,38.0017531 4.38959718,37.9974773 C1.85130844,37.9958971 0.00479482639,36.0585914 0.00274789111,33.4002572 C-0.000989990706,28.4529798 -0.000811996334,23.5057025 0.00265889391,18.558425 C0.00452783482,15.8813145 1.85193142,13.9591599 4.41843227,13.9530251 L5.20970625,13.9521266 L6.82215727,13.9527463 L6.82215727,13.517545 C6.82215727,11.7117664 6.82100029,9.90598786 6.82242425,8.10020931 C6.82527216,4.46969 8.80857445,1.56066412 12.0994234,0.403132836 C12.6436412,0.211744661 13.2236358,0.131620036 13.787077,0 L15.2082731,0 Z M14.5470473,20.6596198 C13.1654914,20.9562738 12.2019999,22.0409097 12.2104674,23.3809925 C12.2494508,24.1132502 12.6182034,24.8002433 13.3587066,25.3137523 C13.5556434,25.4502673 13.6190147,25.5853396 13.6167403,25.7947107 C13.6062991,26.7532008 13.5981321,27.7121418 13.6199451,28.6704517 C13.6360722,29.378454 14.1960758,29.92776 14.9760698,30.0591353 C15.6982749,30.1807724 16.4709289,29.8345257 16.7567716,29.2255283 C16.8576694,29.010657 16.9024325,28.7625137 16.9066711,28.5285265 C16.9234184,27.6180962 16.9198002,26.7072148 16.9089454,25.7966042 C16.9064643,25.5889463 16.96477,25.4515297 17.1630508,25.3138426 C18.2839884,24.5353284 18.6296875,23.1947046 18.0128255,22.1088065 C17.3582302,20.9565444 15.935116,20.361433 14.5470473,20.6596198 Z M14.041787,2.98822097 C11.4871228,3.27869599 9.67638601,5.32336118 9.66632933,7.942005 C9.65903156,9.83367121 9.66446039,11.7254304 9.66561735,13.6171895 C9.66570635,13.7233407 9.67878894,13.8293989 9.68581971,13.9355501 L19.3184302,13.9355501 C19.3184302,11.7781342 19.322346,9.66431266 19.3133573,7.55049116 C19.3122894,7.29450135 19.259603,7.03432869 19.2013099,6.78363714 C18.6382247,4.36391061 16.3994115,2.72005445 14.041787,2.98822097 Z" id="Combined-Shape"></path>
            </g>
        </g>
    </g>
</svg>