<?xml version="1.0" encoding="UTF-8"?>
<svg width="38px" height="38px" viewBox="0 0 38 38" version="1.1" xmlns="http://www.w3.org/2000/svg" xmlns:xlink="http://www.w3.org/1999/xlink">
    <title>Frame 5 Copia</title>
    <defs>
        <path d="M0,0 L38,0 L38,38 L0,38 L0,0 Z" id="path-1"></path>
    </defs>
    <g id="Frame-5-Copia" stroke="none" fill="none" xlink:href="#path-1" fill-rule="evenodd">
        <use fill="#FFFFFF" xlink:href="#path-1"></use>
        <path d="M11.0883196,15.6806969 C9.51977911,15.8799508 8.33876642,17.092057 8.20617766,18.6967115 C7.91130843,22.2594434 8.4237461,26.2240516 8.20617766,29.828759 C8.35310035,31.4748707 9.55305428,32.7349118 11.1994075,32.8657612 C16.6964661,32.7965795 22.2209127,32.9935014 27.7023575,32.7654865 C28.995226,32.4071405 29.9507354,31.2535926 30.0702701,29.8953497 C30.3840805,26.3282129 29.8355521,22.3081557 30.0735976,18.6933431 C29.9264189,17.010179 28.6698972,15.7858947 27.0112578,15.6597092 L11.0883196,15.6806969 Z M24.8680807,13.5288069 C24.8629614,11.4499851 25.0713152,9.44682291 23.8560035,7.65301976 C21.6073697,4.33436734 16.772487,4.28487775 14.4741964,7.57399189 C13.2043646,9.39111474 13.4063193,11.4043822 13.4081111,13.5288069 L24.8680807,13.5288069 Z M26.9848936,13.5192199 C27.2157721,13.6391868 27.4727589,13.5707823 27.7151557,13.6135351 C30.2484202,14.0602369 32.0091888,16.106411 32.1814518,18.693084 C31.9922953,22.3553133 32.4253844,26.2621404 32.1781243,29.8958679 C31.9961347,32.5721921 29.9686528,34.8215067 27.2751555,35.000032 L10.8735667,34.9958863 C8.31035455,34.7225276 6.28901576,32.6405966 6.09832342,30.0290493 C5.81471656,26.145801 6.24089474,21.8244015 6.18125539,17.9136878 C6.5831171,15.8568902 8.14218694,14.1491109 10.1801633,13.6946358 C10.5531012,13.6114622 10.9224556,13.6000615 11.2933458,13.5218109 C11.2657018,11.1297279 11.1968478,8.95607278 12.4328925,6.84123509 C15.1806539,2.13894714 21.7757933,1.67073938 25.1954572,5.89704635 C27.0171449,8.14843384 27.0522119,10.7268153 26.9848936,13.5192199 L26.9848936,13.5192199 Z" id="Fill-4" fill="#FF6A9F"></path>
    </g>
</svg>