<?xml version="1.0" encoding="UTF-8"?>
<svg width="159px" height="40px" viewBox="0 0 159 40" version="1.1" xmlns="http://www.w3.org/2000/svg" xmlns:xlink="http://www.w3.org/1999/xlink">
    <title>Group 14</title>
    <g id="Página-1" stroke="none" stroke-width="1" fill="none" fill-rule="evenodd">
        <g id="Group-14" transform="translate(-0, 0)" fill="#454545">
            <path d="M59.2285416,8.71027506 L50.4626765,8.71027506 C49.8639239,8.71027506 49.3528193,9.14923629 49.2598913,9.74504458 L45.7138396,32.3794436 C45.6811035,32.5920819 45.7423516,32.8078781 45.8817437,32.9710412 C46.0200799,33.1352569 46.2238881,33.2289441 46.4372003,33.2279002 L50.6221327,33.2279002 C51.2219413,33.2289441 51.7330458,32.7889302 51.8259739,32.1920692 L52.7816549,26.0876659 C52.874583,25.490805 53.3846315,25.0507911 53.9833842,25.0507911 L56.758555,25.0507911 C62.532769,25.0507911 65.8655085,22.237018 66.7356534,16.6621051 C67.1274298,14.2220281 66.7525494,12.3061781 65.6173482,10.9640304 C64.3723229,9.49029969 62.1621126,8.71027506 59.2285416,8.71027506 M60.2401906,16.9768519 C59.7607661,20.1443203 57.3573077,20.1443203 55.0330492,20.1443203 L53.7109359,20.1443203 L54.6391608,14.2293967 C54.6951289,13.8714907 55.0013692,13.6083245 55.3604096,13.6083245 L55.9665542,13.6083245 C57.5494999,13.6083245 59.0426854,13.6083245 59.8146222,14.5167742 C60.2739827,15.0588966 60.4154868,15.8641852 60.2401906,16.9768519 M85.4300408,16.8747434 L81.2324364,16.8747434 C80.873396,16.8747434 80.5671557,17.1379096 80.5111877,17.4958157 L80.3253315,18.6779583 L80.0317632,18.2495237 C79.1236022,16.9210607 77.0971361,16.4768361 75.073838,16.4768361 C70.4358812,16.4768361 66.4737651,20.0148426 65.7028843,24.9771045 C65.3016039,27.4529722 65.8718445,29.8193627 67.2657659,31.4709938 C68.5456393,32.9878838 70.3756892,33.6205354 72.5531634,33.6205354 C76.2903513,33.6205354 78.3632814,31.200459 78.3632814,31.200459 L78.1763692,32.3752329 C78.1425772,32.5878712 78.2027693,32.8047201 78.3411054,32.9678832 C78.4794416,33.1320989 78.6821938,33.2268387 78.896562,33.2268387 L82.6770459,33.2268387 C83.2768545,33.2268387 83.7879591,32.7878775 83.8808872,32.1910166 L86.1491775,17.7242439 C86.1829696,17.5116056 86.1227775,17.2958093 85.9844413,17.1326463 C85.8461052,16.9684306 85.643353,16.8747434 85.4300408,16.8747434 M79.5797947,25.101319 C79.1742903,27.5161321 77.2713763,29.1372359 74.8436298,29.1372359 C73.6250045,29.1372359 72.6503155,28.7435393 72.0251629,27.9971999 C71.4042342,27.2561239 71.168746,26.2024064 71.3662182,25.0276325 C71.7442666,22.6338726 73.6799166,20.9601356 76.0696471,20.9601356 C77.2618723,20.9601356 78.2312813,21.3580429 78.869106,22.1106982 C79.5090426,22.8707222 79.7624829,23.9318084 79.5797947,25.101319 M107.785584,16.8747362 L103.567916,16.8747362 C103.163467,16.8757961 102.786475,17.0768551 102.559435,17.4126551 L96.7408685,26.0424013 L94.2751059,17.7495079 C94.1198738,17.2305441 93.6446733,16.8747362 93.1061127,16.8747362 L88.9613084,16.8747362 C88.7258202,16.8736907 88.50406,16.9884312 88.3657238,17.1810689 C88.2284437,17.3747592 88.1914836,17.6231881 88.2685717,17.8474057 L92.9139205,31.577313 L88.5463,37.7869827 C88.3878998,38.0112004 88.3678358,38.3059465 88.4924439,38.5501647 C88.6181081,38.7954356 88.8683803,38.9480762 89.1418846,38.9480762 L93.355329,38.9480762 C93.7544974,38.9491247 94.1283218,38.7522764 94.356418,38.4217396 L108.385393,18.0295167 C108.540625,17.8052991 108.558577,17.5116056 108.432913,17.2694927 C108.307249,17.0273798 108.058032,16.8747362 107.785584,16.8747362" id="Fill-1"></path>
            <path d="M121.751198,8.71027506 L112.984277,8.71027506 C112.385525,8.71027506 111.875476,9.14923629 111.782548,9.74504458 L108.236496,32.3794436 C108.20376,32.5910292 108.263952,32.8078781 108.402289,32.9710412 C108.541681,33.1342042 108.743377,33.2278914 108.956689,33.2278914 L113.45631,33.2278914 C113.875542,33.2278914 114.231415,32.9205133 114.296887,32.5026053 L115.303256,26.0876659 C115.396184,25.490805 115.905176,25.0507911 116.504985,25.0507911 L119.2791,25.0507911 C125.05437,25.0507911 128.384997,22.237018 129.257254,16.6621051 C129.650087,14.2220281 129.272038,12.3061781 128.137893,10.9640304 C126.892868,9.49029969 124.684769,8.71027506 121.751198,8.71027506 M122.762847,16.9768519 C122.284479,20.1443203 119.881021,20.1443203 117.555706,20.1443203 L116.234649,20.1443203 L117.16393,14.2293967 C117.218842,13.8714907 117.525082,13.6072718 117.884122,13.6083213 L118.490267,13.6083213 C120.072157,13.6083213 121.566398,13.6083213 122.338335,14.5167742 C122.798752,15.0588966 122.938144,15.8641852 122.762847,16.9768519 M147.951642,16.8747434 L143.756149,16.8747434 C143.397109,16.8736907 143.090869,17.1379096 143.035957,17.4958157 L142.8501,18.6779583 L142.555476,18.2495237 C141.647315,16.9210607 139.621905,16.4768361 137.599663,16.4768361 C132.96065,16.4768361 129.000646,20.0148426 128.228709,24.9771045 C127.828485,27.4529722 128.396613,29.8193627 129.791591,31.4709938 C131.07252,32.9878838 132.900458,33.6205354 135.077932,33.6205354 C138.816176,33.6205354 140.88805,31.200459 140.88805,31.200459 L140.701138,32.3752329 C140.667346,32.5878712 140.727538,32.8057728 140.86693,32.9689359 C141.006322,33.1331516 141.210131,33.2278914 141.423443,33.2268387 L145.203927,33.2268387 C145.802679,33.2268387 146.312728,32.7868248 146.405656,32.1910166 L148.676058,17.7242439 C148.708794,17.5116056 148.64649,17.2947567 148.508154,17.1315936 C148.368762,16.9684306 148.164954,16.8747434 147.951642,16.8747434 M142.10034,25.101319 C141.698003,27.5161321 139.791921,29.1372359 137.365231,29.1372359 C136.148717,29.1372359 135.171916,28.7435393 134.546764,27.9971999 C133.925835,27.2561239 133.692459,26.2024064 133.887819,25.0276325 C134.267979,22.6338726 136.201517,20.9601356 138.591248,20.9601356 C139.783473,20.9601356 140.751826,21.3580429 141.390707,22.1106982 C142.032755,22.8707222 142.286196,23.9318084 142.10034,25.101319 M152.900063,9.33134731 L149.302267,32.3794436 C149.269531,32.5910292 149.329723,32.8078781 149.468059,32.9710412 C149.606395,33.1342042 149.809148,33.2278914 150.02246,33.2278914 L153.64032,33.2278914 C154.241184,33.2278914 154.751233,32.7899828 154.843105,32.1920692 L158.391268,9.55977557 C158.424004,9.34713728 158.363812,9.13134099 158.225476,8.96712528 C158.08714,8.80396223 157.884388,8.7092224 157.671076,8.7092224 L153.620256,8.7092224 C153.261215,8.71027506 152.956031,8.97344127 152.900063,9.33134731" id="Fill-3"></path>
            <path d="M32.3088561,12.2770193 C31.8230956,11.7327916 31.242295,11.282251 30.5960223,10.9475036 C30.1936859,10.7348653 29.7723414,10.5590703 29.340437,10.4138025 C29.323541,10.4085392 29.308757,10.3990652 29.2929169,10.3938019 C29.2897489,10.3927492 29.2855249,10.3916966 29.2823569,10.3906439 C29.1028367,10.3327473 28.9190926,10.2864301 28.7364044,10.2369549 C28.3118919,10.1201091 27.8831555,10.0190532 27.448083,9.94852469 C27.430131,9.9453667 27.413235,9.94115604 27.396339,9.93799804 C27.1164987,9.89273345 26.8123704,9.86852216 26.5166901,9.83694222 C26.3086578,9.81378359 26.1006256,9.78115098 25.8925934,9.76641368 C25.3762089,9.72851774 24.8408163,9.70956978 24.2864157,9.70956978 L14.863718,9.70956978 C14.6261177,9.70956978 14.4085815,9.78115098 14.2068853,9.88115414 C13.7802608,10.0927398 13.4550125,10.4885417 13.3779244,10.9885575 L9.71676863,34.3608746 L9.50979242,35.6798636 L8.99868789,38.9494405 C8.95750384,39.211554 9.03247992,39.4789309 9.2035521,39.6810426 C9.37462428,39.8831542 9.62595254,40 9.88889681,40 L16.1457033,40 C16.8859601,40 17.5153367,39.4578776 17.6325528,38.7220649 L17.6938009,38.4020548 L18.8712421,30.8744487 L18.9472742,30.4618041 C19.0623783,29.723886 19.692811,29.1817636 20.4341237,29.1817636 L21.3697407,29.1817636 C27.431187,29.1817636 32.1757999,26.7037906 33.5623294,19.5330379 C34.142074,16.5371538 33.8421697,14.0360222 32.3088561,12.2770193" id="Fill-17"></path>
            <path d="M27.9113507,2.93588219 C26.1182608,0.88002779 22.8816175,0 18.7410372,0 L6.71846472,0 C5.87260784,0 5.1513591,0.618966915 5.02041496,1.46215144 L0.0128577658,33.4242134 C-0.0346622835,33.7252755 0.0508738053,34.0305483 0.247290009,34.2621346 C0.442650212,34.4937209 0.72988251,34.6263566 1.03189882,34.6274093 L8.45347452,34.6274093 L8.66045074,33.3084203 L10.3173165,22.7207175 L12.3216065,9.93610325 C12.3986946,9.43503479 12.723943,9.04028548 13.1505674,8.82764719 C13.3533196,8.72764403 13.5697998,8.65606282 13.8074001,8.65606282 L23.2300978,8.65606282 C23.7665464,8.65185216 24.301939,8.67290546 24.8362755,8.71290672 C25.0527557,8.7286967 25.2512839,8.76132931 25.4603722,8.78448793 C25.7539405,8.81606788 26.0485648,8.8392265 26.3400211,8.88449109 C26.3579731,8.88764908 26.3748691,8.89291241 26.3917651,8.8960704 C26.8268376,8.96659895 27.255574,9.06765477 27.6811425,9.18450056 C27.7466145,9.20239587 27.8163106,9.20976452 27.8817827,9.22871249 C27.9979428,9.26345042 28.1119909,9.30029369 28.226039,9.33818963 C28.230263,9.33924229 28.234487,9.34029496 28.238711,9.34134762 C28.2545511,9.34661095 28.2672231,9.35503226 28.2841191,9.36134825 C28.7329196,9.51398465 29.154264,9.68977968 29.5418164,9.89504932 C30.0138489,6.86547996 29.5375924,4.80330958 27.9113507,2.93588219" id="Fill-20"></path>
        </g>
    </g>
</svg>