<?xml version="1.0" encoding="UTF-8"?>
<svg width="69px" height="69px" viewBox="0 0 69 69" version="1.1" xmlns="http://www.w3.org/2000/svg" xmlns:xlink="http://www.w3.org/1999/xlink">
    <title>Bitmap Copia 7</title>
    <g id="Página-1" stroke="none" stroke-width="1" fill="none" fill-rule="evenodd">
        <g id="Bitmap-Copia-7" transform="translate(-8, -8)">
            <g id="Grupo" transform="translate(8.3647, 8.3647)">
                <circle id="Óvalo-2" fill="#E6DAFE" cx="34.1353043" cy="34.1353043" r="34.1353043"></circle>
                <g transform="translate(15.6353, 8.6353)" fill="#454545">
                    <path d="M30.7257214,20.4425988 C22.1715555,20.9041806 17.4696766,30.7435095 22.6386899,37.6148703 C27.3264559,43.8466071 37.0129832,43.1901239 40.7496734,36.3489051 C44.7741368,28.9807117 39.11079,19.9900853 30.7257214,20.4425988 L30.7257214,20.4425988 Z M1.74247692,49 C1.12715791,48.6458312 1.00514615,48.4555277 1.09521161,47.7336516 C1.23582663,46.6069017 1.84524392,44.8029779 2.19716636,43.6685648 C2.58347277,42.4231626 3.06715764,41.2103291 3.47206731,39.9714406 C1.75774442,37.7293079 0.483356663,35.2370985 0.122196737,32.4005548 C-0.369442636,28.5390543 0.643729632,25.2350537 2.77771651,22.0664368 C3.14747242,21.5172388 4.27290577,19.8157468 4.67050243,19.4573632 C5.23232102,18.9509516 5.79029065,19.1597745 6.25498737,19.6494548 C7.48998753,15.8381485 10.2594363,12.4897011 13.7786607,10.5510323 C14.4283637,10.1930318 16.5848027,9.15543078 17.2268078,9.24738951 C17.8607301,9.33807104 17.8128748,9.81306344 18.1635142,10.18473 C18.560726,8.50865436 19.7165661,8.50482275 20.9862068,7.87886477 C23.5347257,6.62247859 25.6753841,4.54880917 27.1124542,2.12275901 C27.5588043,1.36933601 28.2432761,-0.913922685 29.4834082,0.39917138 C30.1318282,1.08579658 32.152271,5.04091611 32.2778751,5.93815236 C32.3906494,6.74406847 31.6587071,7.40617134 30.9016184,7.01726253 C30.3854741,6.75224258 29.9733797,5.25855178 29.7060059,4.67078222 C29.4509487,4.11008939 29.1319989,3.57251397 28.8732211,3.01514187 C26.8477747,6.33370262 23.8967837,8.89296523 20.232069,10.2830747 C19.7170793,10.9579497 18.7335439,13.5801784 18.1043687,13.9010122 C16.586214,14.6752537 16.6172622,12.3386078 16.2825318,11.5176207 C11.877792,13.2251156 8.87163273,16.9413978 7.74389001,21.4652566 C7.54951797,22.2446068 7.67614847,23.6192622 6.68055308,23.7563062 C5.5809077,23.907655 5.61105782,22.8018512 5.15174964,22.1373217 C2.36947108,25.3348034 1.28740258,29.5090912 2.32584963,33.6485114 C2.64184853,34.908346 3.40522386,36.6728042 4.21183574,37.6934184 C4.27264917,37.7703061 4.20901318,37.8695449 4.43019958,37.8141143 C8.0602738,29.2129075 13.9690555,21.4629576 21.192254,15.5410707 C21.6947987,15.1289168 23.8399476,13.3571785 24.2852712,13.2658584 C25.2430186,13.0696798 25.7635251,13.9722803 25.3176882,14.7721935 C20.2339934,18.5082725 15.6946686,22.9899835 12.0362404,28.1283053 C9.67195799,31.4489096 7.69321215,35.034917 6.06407938,38.7694633 C10.9877861,38.5096799 15.6708051,36.110451 18.6070417,32.175639 C18.0303405,25.4371075 23.0900436,19.4620889 29.7583516,18.5703446 C30.3337698,17.6720866 30.8132208,16.7204414 31.1568039,15.7092785 C31.4494525,14.8481872 31.325388,13.4306178 32.694075,13.7427666 C33.7730644,13.9888839 33.1952085,15.5773433 32.9796672,16.2809553 C32.7361569,17.0761429 32.3091799,17.8119405 32.0904312,18.5975491 C41.9919866,19.1472579 47.4536484,30.5123355 41.5813035,38.6108345 C36.551494,45.5474605 26.0736223,45.5693007 21.024568,38.6481289 C20.0892729,37.3660709 19.7101512,36.3237442 19.1342198,34.886889 C19.0950888,34.7894383 19.1861806,34.7227682 18.9823145,34.7558478 C15.4410227,38.5086581 10.4885771,40.6525738 5.29197976,40.7263962 C4.85371251,41.7834108 4.46458354,42.8649476 4.11779303,43.9554249 C3.72058126,45.2049142 3.37622843,47.3324817 2.90088295,48.3845151 C2.76693944,48.681082 2.54344367,48.7970522 2.31866492,49 L1.74247692,49 Z" id="Fill-1"></path>
                    <path d="M32.062244,9.44091156 C33.6711056,9.07614192 33.7174214,11.2821297 32.4090345,11.3010324 C31.2511417,11.3177637 31.1259225,9.65318296 32.062244,9.44091156" id="Fill-3"></path>
                    <path d="M37.9328056,27.335174 L37.9328056,27.335174 C38.3792839,27.8018646 38.3731256,28.5365127 37.9180513,28.9949014 C35.9414865,30.9863189 31.0200891,35.9239919 30.5270385,36.2185153 C29.9083837,36.5880106 29.4613922,36.4360233 29.1158847,36.3587524 C28.3009334,36.1764953 26.2612458,34.0392211 25.1728907,32.8450348 C24.7779883,32.411807 24.8173759,31.7408914 25.2593638,31.3553033 L25.2593638,31.3553033 C25.672228,30.9952593 26.2938336,31.011863 26.6865549,31.3934917 L28.4500161,33.1069894 C29.0072159,33.6483965 29.898633,33.641755 30.4476218,33.0920461 L36.216045,27.3167823 C36.6915188,26.8407681 37.467724,26.84907 37.9328056,27.335174" id="Fill-5"></path>
                </g>
            </g>
        </g>
    </g>
</svg>