<?xml version="1.0" encoding="UTF-8"?>
<svg width="69px" height="69px" viewBox="0 0 69 69" version="1.1" xmlns="http://www.w3.org/2000/svg" xmlns:xlink="http://www.w3.org/1999/xlink">
    <title>Bitmap Copia 4</title>
    <defs>
        <polygon id="path-1" points="0 0 60.5641384 0 60.5641384 42.6192085 0 42.6192085"></polygon>
    </defs>
    <g id="Página-1" stroke="none" stroke-width="1" fill="none" fill-rule="evenodd">
        <g id="Bitmap-Copia-4" transform="translate(-8, -8)">
            <g id="Grupo" transform="translate(8.3647, 8.3647)">
                <circle id="Óvalo-2" fill="#E1EA9F" cx="34.0164292" cy="34.0164292" r="34.0164292"></circle>
                <g transform="translate(4.5332, 15.7488)">
                    <mask id="mask-2" fill="white">
                        <use xlink:href="#path-1"></use>
                    </mask>
                    <g id="Clip-2"></g>
                    <path d="M57.96385,24.5671124 C56.535116,22.5716655 54.0422193,21.2197257 51.7283687,20.4123518 C46.8334415,18.7042542 41.5184751,18.8894003 36.9623607,21.4093763 C32.3496722,23.9607276 28.291663,29.4268884 30.3052598,34.7995442 C30.5288699,34.8531309 30.5326626,34.718931 30.6379095,34.6052339 C31.69022,33.4690391 32.610735,32.0593189 33.7287853,30.9020001 C35.3612178,29.2120754 39.0546557,26.059465 41.2112681,25.2407524 C42.4647487,24.7646844 43.4239806,26.036943 42.6017593,27.0724878 C38.2351208,29.4197435 34.5581179,32.8631204 31.8392407,36.9529556 C35.5638101,41.1670499 41.3493848,41.3905611 45.7272433,37.9366222 C48.7816146,35.5266156 49.7944181,32.6529671 51.7681918,29.577708 C53.2198399,27.3161911 55.324145,25.3657882 57.96385,24.5671124 M0.0431531756,11.1979132 C0.199443181,9.53423825 1.01328901,7.40319352 1.88449913,5.97514504 C6.84974885,-2.16305383 18.882499,-1.7006544 24.3365303,5.61650201 C24.5288508,5.65766286 25.093644,4.76998643 25.2783791,4.56915255 C32.3422449,-3.10369573 46.1782561,-0.872156402 48.4527577,9.79859963 C48.6845852,10.8863333 49.3437214,14.3798798 47.6194744,14.4606483 C45.915297,14.5404848 46.461917,12.5423974 46.3780039,11.4905435 C45.5877043,1.57450661 32.3202789,-0.779583322 26.4743374,6.79183842 C26.0307519,7.36653707 25.3216788,8.86836443 24.6826123,8.98345949 C23.3784046,9.21830931 23.0199964,7.72890786 22.3640209,6.85769577 C15.9479132,-1.66322133 1.51013004,2.22174155 2.42242752,13.6827859 C3.0256216,21.2607312 9.83174319,29.6146751 15.8451947,33.9648332 C17.398139,35.0881361 22.0418011,38.0857332 23.771105,38.3764996 C25.4449409,38.6579467 27.2417229,37.3557106 28.6401155,36.5905848 C24.2611508,27.9249057 32.722777,19.1449083 41.0595609,17.4170845 C46.7116017,16.2456312 56.4897619,18.0014133 59.8325348,23.137666 C61.98172,26.4400087 58.91281,26.2896551 56.8378982,27.5883187 C53.8666498,29.4478571 53.0150352,32.5579088 51.1828549,35.2802718 C49.0450478,38.4564915 45.8032549,41.4708636 41.9121237,42.3228155 C37.3790814,43.3151803 33.1741059,41.7547958 30.010063,38.5523264 C28.3014608,39.3247524 26.4022765,40.718785 24.4545775,40.7386664 C21.996605,40.7636736 17.0757613,37.6309446 15.0180745,36.1735399 C8.09532805,31.2701178 0.726467619,22.3124298 0.0431531756,13.6396058 C-0.00962828237,12.9710915 -0.0189519531,11.8595932 0.0431531756,11.1979132" id="Fill-1" fill="#000000" mask="url(#mask-2)"></path>
                </g>
            </g>
        </g>
    </g>
</svg>