<?xml version="1.0" encoding="UTF-8"?>
<svg width="69px" height="69px" viewBox="0 0 69 69" version="1.1" xmlns="http://www.w3.org/2000/svg" xmlns:xlink="http://www.w3.org/1999/xlink">
    <title>Bitmap Copia 6</title>
    <g id="Página-1" stroke="none" stroke-width="1" fill="none" fill-rule="evenodd">
        <g id="Bitmap-Copia-6" transform="translate(-8, -8)">
            <g id="Grupo" transform="translate(8.3647, 8.3647)">
                <circle id="Óvalo-2" fill="#FFD8E1" cx="34.0164292" cy="34.0164292" r="34.0164292"></circle>
                <g transform="translate(20.235, 8.1422)" fill="#454545">
                    <path d="M17.6721898,1.43337947 C16.4937809,1.45896474 15.5290088,2.23335226 14.5188859,2.71519112 C13.3094636,2.2667864 11.9336872,1.16753734 10.5546569,1.65875407 C9.74098638,1.9484486 9.15142603,2.91997519 9.13841055,3.77376878 C9.10180453,6.17246394 12.7364776,8.77043877 14.5711512,9.93329422 C16.2713993,8.85045644 19.5640095,6.29254141 19.8077446,4.1787499 C19.9668791,2.79755326 19.1915432,1.40035307 17.6721898,1.43337947 M17.2702353,0.0221124936 C18.467049,-0.105304171 19.6405771,0.319452023 20.4083884,1.25693288 C22.6188838,3.95561784 20.3211441,7.0708024 18.2510734,8.9705339 C17.7706194,9.41139557 15.2804946,11.4159145 14.8215974,11.4850253 C14.6649033,11.5086739 14.5014981,11.5030675 14.3469393,11.4677986 C13.9705074,11.3818688 12.3730612,10.2239062 11.9705983,9.91708682 C9.7775924,8.24599178 6.55656737,5.14681076 8.08568232,2.10756653 C9.40034699,-0.505596366 12.2528714,-0.217736637 14.4438436,1.08486941 C15.3163888,0.607107886 16.2609259,0.129652159 17.2702353,0.0221124936" id="Fill-5"></path>
                    <path d="M28.249017,39.8152917 C26.515112,47.4810557 19.8740501,49.3850272 19.8740501,49.3850272 C13.6256165,51.2382238 10.3541205,49.9577258 8.68553739,48.9468913 C7.01712845,47.9360568 2.82973208,43.724067 1.97915358,42.1740849 C1.12857508,40.6239234 1.81558749,39.4108861 1.81558749,39.4108861 C2.46985184,37.6249709 4.53088907,38.1978488 4.53088907,38.1978488 L8.03127304,40.7588448 C8.42390133,41.0283289 8.84910348,40.7588448 8.84910348,40.7588448 C9.40529786,40.0847758 8.98009571,39.5793585 8.98009571,39.5793585 C8.98009571,39.5793585 7.24619065,38.1641185 6.06847998,37.3217564 C4.8907693,36.4793943 4.4326449,35.7380439 4.4326449,35.7380439 C3.48399643,34.2553431 4.59621099,32.7390914 4.59621099,32.7390914 C6.3628641,30.7174224 8.16226527,31.997741 8.16226527,31.997741 L9.69968198,33.2445086 C9.69968198,33.2445086 11.3682651,34.7609398 12.0552775,35.131615 C12.7422899,35.5021108 13.0857961,35.131615 13.0857961,35.131615 C13.6256165,34.4575459 13.0857961,34.0027242 13.0857961,34.0027242 L8.37477925,30.0602185 C6.75549239,28.0385495 8.37477925,26.1498284 8.37477925,26.1498284 C9.89599613,24.5643218 11.6135272,25.612475 11.6135272,25.612475 C11.6135272,25.612475 15.8174717,29.4537896 16.438988,30.1276792 C17.0605043,30.8015689 17.4858807,30.4308937 17.4858807,30.4308937 C18.2383892,29.7232737 17.5839507,29.1503957 17.5839507,29.1503957 L6.00298387,17.4030779 C6.00298387,17.4030779 4.13826078,15.4361311 5.70859975,13.886149 C6.61143578,12.9949855 7.65501878,13.1286511 8.37895985,13.4031588 C8.80555554,13.5649928 9.19557095,13.8147411 9.53698685,14.1236969 L11.6953973,16.0764698 C11.6953973,16.0764698 19.7759801,23.4221542 21.8370173,25.0733274 C23.8978804,26.7243212 26.7441742,29.8244648 26.7441742,29.8244648 C30.1464882,34.4744111 28.249017,39.8152917 28.249017,39.8152917 M17.1961997,16.1426746 C17.74682,15.4138834 18.8092157,14.1945665 19.6314009,14.0377562 C20.6918805,13.8355534 21.280823,13.9366714 21.7715212,14.3409707 C22.2622195,14.7453762 22.3602895,15.655199 22.3113416,15.9584135 C22.2658775,16.2392009 21.2123656,20.5432315 21.055593,21.1833908 C21.0106515,21.2474426 20.9291298,21.6357007 20.7591186,22.0166026 C19.3382362,20.7691173 17.6428275,19.2839047 15.9141482,17.7708825 C15.9909668,17.7226193 16.3992723,17.0864072 17.1961997,16.1426746 M30.2118101,34.7609398 C30.2118101,34.7609398 30.1628622,31.0206369 27.6600746,28.5439668 C27.6600746,28.5439668 25.6972816,26.3705111 22.6057257,23.6412221 C22.4062761,23.4650348 22.3862441,23.4784911 22.1348853,23.2572701 C22.1585754,23.1959095 22.3773603,22.2197025 22.4339726,21.9984815 L23.8325585,16.5397241 C23.8325585,16.5397241 24.2138643,14.0526478 22.4054052,12.8851824 C21.8300497,12.5136101 21.1012312,12.1397054 19.9313592,12.2940039 C18.7614871,12.4483024 17.6158278,13.2786435 15.5884095,15.7057946 C15.2701612,16.0215682 14.9526095,16.3545659 14.6592706,16.672672 C11.9404851,14.2939635 9.65073409,12.2931068 9.65073409,12.2931068 C9.65073409,12.2931068 6.31496136,9.75346142 3.8727925,13.952892 C3.74249704,14.1768043 3.66306559,14.4281673 3.63536909,14.687604 C3.53834427,15.5976062 3.61481446,17.7468406 5.97023581,19.749312 L9.65073409,23.6916383 C9.65073409,23.6916383 4.84164722,24.8036639 6.41198618,30.0098024 C6.41198618,30.0098024 1.35746309,30.6668269 2.92780205,36.4793943 C2.92780205,36.4793943 -0.360067937,36.8837999 0.0325603517,41.7865445 C0.0325603517,41.7865445 0.474136533,43.2017846 1.89728344,44.7180363 C1.89728344,44.7180363 5.47953755,48.7615537 7.14794649,49.8735793 C8.81652962,50.9854255 12.1042254,52.6534638 18.4345292,51.5414383 C24.7648329,50.4295921 28.0035808,44.6170246 28.0035808,44.6170246 C28.0035808,44.6170246 30.7516305,40.9777334 30.2118101,34.7609398" id="Fill-1"></path>
                </g>
            </g>
        </g>
    </g>
</svg>