<?xml version="1.0" encoding="UTF-8"?>
<svg width="46px" height="46px" viewBox="0 0 46 46" version="1.1" xmlns="http://www.w3.org/2000/svg" xmlns:xlink="http://www.w3.org/1999/xlink">
    <title>Artboard</title>
    <g id="Artboard" stroke="none" stroke-width="1" fill="none" fill-rule="evenodd">
        <g id="Group-2" transform="translate(5, 4)" fill="#FFFFFF" fill-rule="nonzero">
            <path d="M13.5,0 C20.9558441,0 27,6.04415588 27,13.5 C27,20.9558441 20.9558441,27 13.5,27 C6.04415588,27 0,20.9558441 0,13.5 C0,6.04415588 6.04415588,0 13.5,0 Z M13.5,3.11538462 C7.76473529,3.11538462 3.11538462,7.76473529 3.11538462,13.5 C3.11538462,19.2352647 7.76473529,23.8846154 13.5,23.8846154 C19.2352647,23.8846154 23.8846154,19.2352647 23.8846154,13.5 C23.8846154,7.76473529 19.2352647,3.11538462 13.5,3.11538462 Z" id="Oval"></path>
            <polygon id="Path-2" points="22.776627 21 36 34.8643032 32.7951298 38 20 24.0960105"></polygon>
        </g>
    </g>
</svg>