<?xml version="1.0" encoding="UTF-8"?>
<svg width="26px" height="31px" viewBox="0 0 26 31" version="1.1" xmlns="http://www.w3.org/2000/svg" xmlns:xlink="http://www.w3.org/1999/xlink">
    <title>Combined Shape 2</title>
    <g id="Página-1" stroke="none" stroke-width="1" fill="none" fill-rule="evenodd">
        <g id="3_PDP" transform="translate(-1532, -168)" fill="#FF6A9F">
            <g id="Combined-Shape-2" transform="translate(1532, 168)">
                <path d="M20.1217391,0 C23.368213,0 26,2.62442539 26,5.86181818 C26,9.09921097 23.368213,11.7236364 20.1217391,11.7236364 C18.7348827,11.7236364 17.4602004,11.2447048 16.4549409,10.4436503 L11.3054477,13.7513859 C11.5960393,14.4457781 11.7565217,15.2078365 11.7565217,16.0072727 C11.7565217,17.0819945 11.4664856,18.0891643 10.9602088,18.9551929 L15.3207262,21.755052 C16.3853946,20.2553511 18.1389188,19.2763636 20.1217391,19.2763636 C23.368213,19.2763636 26,21.900789 26,25.1381818 C26,28.3755746 23.368213,31 20.1217391,31 C16.8752653,31 14.2434783,28.3755746 14.2434783,25.1381818 C14.2434783,24.6085723 14.3139105,24.0953672 14.445944,23.6073726 L9.63424875,20.5166023 C8.61570644,21.361176 7.30646498,21.8690909 5.87826087,21.8690909 C2.63178704,21.8690909 0,19.2446655 0,16.0072727 C0,12.7698799 2.63178704,10.1454545 5.87826087,10.1454545 C7.59178549,10.1454545 9.13406791,10.8765787 10.2085139,12.0430622 L15.0958794,8.90365698 C14.5549929,8.01687396 14.2434783,6.97562338 14.2434783,5.86181818 C14.2434783,2.62442539 16.8752653,0 20.1217391,0 Z M20.1217391,20.7981818 C17.7180998,20.7981818 15.7695652,22.741266 15.7695652,25.1381818 C15.7695652,27.5350976 17.7180998,29.4781818 20.1217391,29.4781818 C22.5253784,29.4781818 24.473913,27.5350976 24.473913,25.1381818 C24.473913,22.741266 22.5253784,20.7981818 20.1217391,20.7981818 Z M5.87826087,11.6672727 C3.47462159,11.6672727 1.52608696,13.6103569 1.52608696,16.0072727 C1.52608696,18.4041885 3.47462159,20.3472727 5.87826087,20.3472727 C8.28190015,20.3472727 10.2304348,18.4041885 10.2304348,16.0072727 C10.2304348,13.6103569 8.28190015,11.6672727 5.87826087,11.6672727 Z M20.1217391,1.52181818 C17.7180998,1.52181818 15.7695652,3.46490237 15.7695652,5.86181818 C15.7695652,8.258734 17.7180998,10.2018182 20.1217391,10.2018182 C22.5253784,10.2018182 24.473913,8.258734 24.473913,5.86181818 C24.473913,3.46490237 22.5253784,1.52181818 20.1217391,1.52181818 Z" id="Combined-Shape" fill-rule="nonzero"></path>
            </g>
        </g>
    </g>
</svg>