<?xml version="1.0" encoding="UTF-8"?>
<svg id="Capa_2" data-name="Capa 2" xmlns="http://www.w3.org/2000/svg" viewBox="0 0 202.65 249.96">
  <defs>
    <style>
      .cls-1 {
        fill: #565656;
      }
    </style>
  </defs>
  <g id="Layer_1" data-name="Layer 1">
    <path class="cls-1" d="M156.83,158.33c-14.82,0-28.01,7.08-36.39,18.03L27.39,125.22l92.18-52.79c8.32,11.61,21.91,19.2,37.26,19.2,25.26,0,45.82-20.55,45.82-45.81S182.09,0,156.83,0s-45.82,20.55-45.82,45.82c0,3.48.4,6.86,1.14,10.12L4.53,117.57C1.7,119.19-.03,122.21,0,125.46c.03,3.25,1.81,6.24,4.66,7.81l107.84,59.27c-.97,3.71-1.49,7.6-1.49,11.6,0,25.26,20.55,45.82,45.82,45.82s45.82-20.55,45.82-45.82-20.55-45.81-45.82-45.81ZM156.83,18c15.34,0,27.82,12.48,27.82,27.82s-12.48,27.81-27.82,27.81-27.82-12.48-27.82-27.81,12.48-27.82,27.82-27.82ZM156.83,231.96c-15.34,0-27.82-12.48-27.82-27.82s12.48-27.81,27.82-27.81,27.82,12.48,27.82,27.81-12.48,27.82-27.82,27.82Z"/>
  </g>
</svg>