<?xml version="1.0" encoding="UTF-8"?>
<svg width="73px" height="73px" viewBox="0 0 73 73" version="1.1" xmlns="http://www.w3.org/2000/svg" xmlns:xlink="http://www.w3.org/1999/xlink">
    <title>Group 12</title>
    <g id="Page-1" stroke="none" stroke-width="1" fill="none" fill-rule="evenodd">
        <g id="1_-ZAR-DE-LAS-LLANTAS" transform="translate(-83, -2837)">
            <g id="Group-12" transform="translate(83, 2837)">
                <circle id="Oval-Copy-3" fill="#CC3333" cx="36.5" cy="36.5" r="36.5"></circle>
                <g id="Group-10" transform="translate(11, 11)" fill="#FFFFFF">
                    <path d="M25.0027948,2.03274327 C21.419297,2.23341229 18.0306679,3.27245614 14.8512245,4.88218357 C14.8727993,5.30848092 15.2613438,5.58631502 15.2573669,6.04791341 C15.2493136,6.9967656 14.0427179,7.3792101 13.4237112,6.65747785 C13.2363986,6.4391086 13.2475339,6.04602406 12.9137714,6.13661349 C12.5757337,6.2283962 11.0066423,7.5134535 10.6351985,7.82718528 C8.90335186,9.28984161 7.44054345,11.031227 6.12557681,12.873643 C6.0337101,13.2088537 6.46828738,13.2356029 6.6732973,13.4116109 C7.18989844,13.8550119 7.19924419,14.6989554 6.59117403,15.0599209 C5.7465769,15.5612951 5.11037007,14.6892103 4.89889767,14.8398612 C3.2844694,18.0223245 2.25255963,21.4090367 2.05102951,24.9969151 C3.00230735,24.7376762 4.65570937,25.3518149 3.9244543,26.5169481 C3.45915535,27.2584688 2.76051098,26.9374779 2.04894163,27.082063 C2.33219733,30.5978478 3.1678464,34.1357081 4.9586508,37.1859168 C5.20293275,37.2568172 6.1895057,36.2547649 6.87283896,37.1932753 C7.47325356,38.0181264 6.66146598,38.6780072 6.02307185,39.0705946 C7.89082954,41.7919567 10.2490402,44.1515578 12.9690505,46.0202258 C13.2994327,45.769141 13.3472551,45.2591155 13.7561812,45.0930515 C14.2547869,44.8904931 14.7895824,44.9763094 15.0711479,45.4518294 C15.58586,46.320931 14.6952301,46.8479607 14.8920873,47.1524446 C15.0282966,47.3630575 17.6148815,48.4201994 18.0446865,48.5740324 C20.2955205,49.379791 22.6192314,49.8195127 25.0027948,49.9944269 C24.7436988,49.0425915 25.3575355,47.3883152 26.5220754,48.1199914 C27.2631733,48.5855673 26.9423358,49.2845279 27.0868966,49.9965151 C30.0328951,49.7767537 32.9497628,49.110111 35.6343786,47.8789499 C36.1540618,47.6405933 36.6389471,47.3212929 37.1866676,47.145086 C37.1651922,46.7186892 36.7765483,46.4409546 36.7805252,45.9792567 C36.7885785,45.030504 37.9952736,44.6479601 38.6142803,45.3696923 C38.8014935,45.5880616 38.7903582,45.9811461 39.1241207,45.8905567 C39.3915682,45.8179658 40.5900112,44.85201 40.8948417,44.6064938 C42.8207617,43.0553362 44.5634455,41.126209 45.9143038,39.0542865 C45.9351826,38.8239845 45.5366958,38.7632269 45.3646942,38.6156587 C44.8479937,38.1724566 44.8388468,37.3281154 45.4467181,36.9673487 C46.2914146,36.465875 46.9276215,37.3379599 47.1389944,37.1874084 C48.7477556,34.0066355 49.7867244,30.613957 49.9868626,27.0303545 C49.0355848,27.2894939 47.3821827,26.6754547 48.1134378,25.5102221 C48.5788362,24.7687014 49.2773811,25.0896922 49.9889505,24.9451071 C49.7679335,21.9674892 49.093946,19.0315365 47.8402238,16.3235987 C47.6107559,15.827992 47.3037381,15.3650015 47.1389944,14.8398612 C46.7128681,14.8614396 46.4352795,15.2502482 45.973858,15.2462706 C45.0256623,15.2381166 44.6431826,14.0306221 45.3646942,13.4116109 C45.5697042,13.2356029 46.004182,13.2088537 45.9123153,12.873643 C44.0567866,10.2287498 41.7964081,7.83991354 39.0525362,6.10757714 C38.8224718,6.0865954 38.7617244,6.48534799 38.6142803,6.65747785 C38.1712521,7.17446407 37.3274503,7.18361251 36.9667442,6.57534078 C36.4656531,5.73020405 37.3371938,5.09369149 37.1866676,4.88218357 C34.0077213,3.27255558 30.6168055,2.23311397 27.0350973,2.03274327 C27.4738504,4.7472441 24.561755,4.73978614 25.0027948,2.03274327 L25.0027948,2.03274327 Z M27.5423527,0 L30.10269,0.334415206 C50.1953523,4.03018551 59.3843105,27.9996912 45.0135327,43.5449766 C29.9839791,59.8028457 4.21327768,51.1414621 0.353583161,30.0994567 L0.0193235335,27.5377945 C0.0639643939,26.5324606 -0.0412249831,25.490533 0.0193235335,24.4893757 C0.789452942,11.7518654 11.7649404,0.770557071 24.4955394,0 L27.5423527,0 Z" id="Fill-1"></path>
                    <path d="M29.0657892,32.8726567 L29.0657892,38.817153 C31.5272007,38.3216457 33.8997282,36.941027 35.5654587,35.0586364 L30.491314,32.1584819 C29.9213228,31.9331519 29.1881787,32.2623962 29.0657892,32.8726567 L29.0657892,32.8726567 Z M22.9721626,38.817153 L22.9721626,32.8726567 C22.9721626,32.8430237 22.7214182,32.4174225 22.6697183,32.362333 C22.3815909,32.0550648 21.9352817,32.0540704 21.5466377,32.1584819 L16.4724931,35.0586364 C18.1382235,36.941027 20.5107511,38.3216457 22.9721626,38.817153 L22.9721626,38.817153 Z M38.7132856,22.2536067 C38.5720057,22.2277524 38.4618452,22.2809525 38.3362741,22.3330589 C37.50838,22.6765231 34.2481059,24.5976952 33.541806,25.1572415 C32.8966511,25.6683608 32.8959551,26.3584713 33.541806,26.8699883 C34.2804183,27.4549912 37.4624467,29.3217699 38.3362741,29.694171 C38.4426566,29.7395154 38.5387985,29.7929144 38.6610886,29.7753136 C39.4475233,27.3330783 39.3520774,24.7165254 38.7132856,22.2536067 L38.7132856,22.2536067 Z M13.3246662,29.7735237 C13.4659461,29.799378 13.5761066,29.7462773 13.7016776,29.694171 C14.5295717,29.3506073 17.7897465,27.4295347 18.4960464,26.8699883 C19.1413007,26.358869 19.1418972,25.6687586 18.4960464,25.1572415 C17.757434,24.5721392 14.5754057,22.70546 13.7016776,22.3330589 C13.5952952,22.2877144 13.4991533,22.2342159 13.3767638,22.2519162 C12.590329,24.6941515 12.6858744,27.310605 13.3246662,29.7735237 L13.3246662,29.7735237 Z M29.0657892,13.2099774 L29.0657892,19.1545731 C29.0657892,19.1842061 29.3165336,19.6098074 29.3682335,19.6648969 C29.6563609,19.9720656 30.1025707,19.9731595 30.491314,19.8687479 L35.5654587,16.9685935 C33.8997282,15.0862028 31.5272007,13.7055841 29.0657892,13.2099774 L29.0657892,13.2099774 Z M22.9721626,13.2099774 C20.5107511,13.7055841 18.1382235,15.0862028 16.4724931,16.9685935 L21.5466377,19.8687479 C21.9352817,19.9731595 22.3815909,19.9720656 22.6697183,19.6648969 C22.7214182,19.6098074 22.9721626,19.1842061 22.9721626,19.1545731 L22.9721626,13.2099774 Z M27.0345803,12.8035679 L25.0033715,12.8035679 L25.0033715,19.4593553 C25.0033715,19.6196519 24.5976268,20.4860687 24.4788165,20.6620767 C23.6203996,21.933113 21.9364748,22.2996472 20.5668255,21.6627369 L15.1502686,18.5388434 L14.1364538,20.3215956 C15.6880468,21.1697156 17.2759292,22.0092837 18.7748281,22.9475953 C19.640304,23.4893419 20.4114276,23.8675105 20.7866495,24.8977043 C21.5375903,26.959285 20.4288266,28.0437728 18.8386575,29.0418475 C17.3101306,30.0012403 15.6761161,30.8205227 14.1343659,31.7567461 L15.2011731,33.527665 L20.5668255,30.364493 C21.9342874,29.7280799 23.6200019,30.0931224 24.4788165,31.3651532 C24.5976268,31.5411612 25.0033715,32.4074785 25.0033715,32.5677751 L25.0033715,39.2236619 L27.0345803,39.2236619 L27.0345803,32.5677751 C27.0345803,32.407578 27.440325,31.5410617 27.5591353,31.3651532 C28.4174528,30.0941168 30.101477,29.7275827 31.4710268,30.364493 L36.8875838,33.4883864 L37.901498,31.7055347 C36.349905,30.8574148 34.7620226,30.0179461 33.2630243,29.0795351 C32.3976478,28.5377884 31.6265241,28.1596198 31.2513023,27.1294261 C30.5003615,25.0678454 31.6090257,23.9833576 33.1991948,22.9853823 C34.7278211,22.0259895 36.3617363,21.2067071 37.9035859,20.2704837 L36.8366793,18.4995648 L31.4710268,21.6627369 C30.1036643,22.29915 28.4179499,21.9341074 27.5591353,20.6620767 C27.440325,20.4860687 27.0345803,19.6197513 27.0345803,19.4593553 L27.0345803,12.8035679 Z M36.8503996,15.2779222 C44.4260232,22.9310883 41.7954934,35.9610503 31.907692,40.0856039 C19.9793359,45.0613601 7.69613971,33.8121616 11.4669502,21.4628634 C14.7896619,10.5809946 28.821209,7.1664393 36.8503996,15.2779222 L36.8503996,15.2779222 Z" id="Fill-4"></path>
                    <path d="M29.7470246,6.62693002 C30.5788956,6.4368016 32.9284564,7.36059502 33.7739484,7.73727203 C39.8681715,10.4519717 44.718913,16.5922645 45.7049888,23.2359202 C45.8027215,23.8940112 46.0479977,25.7759047 45.8796748,26.323916 C45.610736,27.1999785 44.363178,27.2644153 43.9705572,26.3940209 C43.8678534,19.1529323 39.4019777,12.4187866 32.7903581,9.53424414 C31.6864662,9.0526584 30.5244119,8.80177241 29.419128,8.33460541 C28.8069815,7.89309381 29.0067221,6.79617614 29.7470246,6.62693002" id="Fill-6"></path>
                    <path d="M25.8934545,25.0160473 C24.3989302,25.199911 25.0645662,27.5852669 26.4526087,26.9040066 C27.4912792,26.3942795 26.9497229,24.8860798 25.8934545,25.0160473 M25.5878287,22.9917564 C29.6967763,22.4524957 30.3118061,28.6439004 26.3639235,29.0507076 C22.3675225,29.4623873 21.7478199,23.4958155 25.5878287,22.9917564" id="Fill-8"></path>
                </g>
            </g>
        </g>
    </g>
</svg>