<?xml version="1.0" encoding="UTF-8"?>
<svg width="30px" height="30px" viewBox="0 0 30 30" version="1.1" xmlns="http://www.w3.org/2000/svg" xmlns:xlink="http://www.w3.org/1999/xlink">
    <title>socialicon copy 3</title>
    <g id="socialicon-copy-3" stroke="none" stroke-width="1" fill="none" fill-rule="evenodd">
        <path d="M20.626943,18.8024946 L20.2081174,19.2213001 C19.6157168,19.8136723 18.2530225,19.7670425 17.3782383,19.5977932 C14.4671848,19.0365076 11.0734024,15.74651 10.417962,12.8969057 C10.0941278,11.4859199 10.2728843,10.258863 10.7409326,9.79083713 L11.1597582,9.37203166 C11.3911917,9.14147278 11.7668394,9.14147278 11.9974093,9.37203166 L13.6727116,11.0481171 C13.7841105,11.1595107 13.8454231,11.307172 13.8454231,11.466059 C13.8454231,11.6240825 13.7841105,11.7726073 13.6727116,11.884001 L13.253886,12.3036699 C12.7927461,12.7665148 12.7927461,13.517774 13.253886,13.9788918 L16.0207254,16.7084673 C16.4835924,17.1713121 17.2322971,17.1721756 17.6951641,16.7084673 L18.1139896,16.2905253 C18.3307427,16.0729192 18.7348877,16.0720556 18.9525043,16.2905253 L20.626943,17.9648837 C20.8549223,18.191125 20.8626943,18.5667546 20.626943,18.8024946 M6,15.0004318 C6,16.6307508 6.43955095,18.219621 7.27374784,19.6098825 L6,24 L10.3903282,22.7263133 C11.7797927,23.5604701 13.3687392,24 15,24 C19.9430052,24 24,19.9431998 24,15.0004318 C24,10.0568002 19.9430052,6 15,6 C10.0561313,6 6,10.0568002 6,15.0004318 Z" id="Fill-1" fill="#1B1B1B"></path>
    </g>
</svg>