<?xml version="1.0" encoding="UTF-8"?>
<svg width="30px" height="30px" viewBox="0 0 30 30" version="1.1" xmlns="http://www.w3.org/2000/svg" xmlns:xlink="http://www.w3.org/1999/xlink">
    <title>socialicon</title>
    <defs>
        <polygon id="path-1" points="0 0 21 0 21 18 0 18"></polygon>
    </defs>
    <g id="socialicon" stroke="none" stroke-width="1" fill="none" fill-rule="evenodd">
        <g id="Group-3" transform="translate(5, 6)">
            <mask id="mask-2" fill="white">
                <use xlink:href="#path-1"></use>
            </mask>
            <g id="Clip-2"></g>
            <path d="M10.7426718,5.12686032 C10.7426718,5.03222975 10.7426718,4.9490626 10.7426718,4.86589545 C10.7427326,3.64274803 10.740177,2.41954328 10.7438279,1.19639586 C10.7457142,0.560290418 11.1288202,0.116197341 11.76445,0.0160070085 C12.186682,-0.0505381724 12.5352865,0.0944741512 12.8336297,0.375213424 C13.8757315,1.35596673 14.9208149,2.33379687 15.9650464,3.31248676 C17.488343,4.74014168 19.0123698,6.1671088 20.5350578,7.59533689 C21.1520069,8.17395326 21.1553536,8.80209162 20.5427857,9.37663847 C17.9762312,11.7839004 15.4094332,14.1909903 12.8405665,16.5960168 C12.2224004,17.1748051 11.2771095,17.0802892 10.8962549,16.3884715 C10.7931157,16.2011592 10.7516166,15.9648406 10.7492435,15.7503027 C10.7356741,14.5415991 10.7426718,13.3326664 10.7426718,12.1237909 L10.7426718,11.8372053 C10.3411894,11.8558334 9.96374235,11.8612212 9.588851,11.8929175 C7.80439007,12.0436042 6.1181396,12.4961229 4.57829208,13.3782335 C2.77472453,14.411432 1.46640786,15.8424113 0.694902025,17.7001166 C0.675612858,17.7466581 0.668371814,17.8075862 0.632531689,17.8361301 C0.547586335,17.903879 0.448645686,18 0.355485702,18 C0.288429985,18 0.177806308,17.8705204 0.161437898,17.7859203 C-0.025429712,16.8223048 -0.0466052014,15.8510662 0.0799609425,14.8804007 C0.368446562,12.6679024 1.26797892,10.6922384 2.76036414,8.96825396 C4.446858,7.02010224 6.55631402,5.70220961 9.22095729,5.25473482 C9.46709194,5.21340917 9.71645158,5.18566769 9.96556783,5.16480425 C10.2132845,5.14399814 10.4625833,5.13981399 10.7426718,5.12686032" id="Fill-1" fill="#000000" mask="url(#mask-2)"></path>
        </g>
    </g>
</svg>