<?xml version="1.0" encoding="UTF-8"?>
<svg width="52px" height="45px" viewBox="0 0 52 45" version="1.1" xmlns="http://www.w3.org/2000/svg" xmlns:xlink="http://www.w3.org/1999/xlink">
    <title>tag new</title>
    <g id="Página-1" stroke="none" stroke-width="1" fill="none" fill-rule="evenodd">
        <g id="1_HOME-AMIE-WORLD" transform="translate(-1211, -885)">
            <g id="Grupo" transform="translate(43, 869)">
                <g id="Grupo-Copia-3" transform="translate(1159.9388, 0)">
                    <g id="tag-new" transform="translate(3.3631, 15.3228)">
                        <path d="M55.8901344,17.1757566 L55.8901344,17.2086396 C55.8901344,17.3709998 55.8576975,17.53336 55.8252606,17.6957202 C53.889511,26.7365116 47.8562502,33.7601316 40.5652754,39.0604728 C38.919365,40.2309049 37.2420641,41.3365984 35.4998895,42.3775534 C34.1762552,43.1574989 32.5313912,44.4584357 31.0466189,44.7831561 C29.4666287,45.1407596 27.3686946,43.4503638 26.0785437,42.6693907 C24.529944,41.7918235 23.0137811,40.8166347 21.5290089,39.8085629 C15.0437244,35.3210503 9.33378616,29.5326009 6.46259859,22.0208727 C5.07513696,18.4119548 4.39710142,14.573883 5.68829874,10.8344604 C6.91357594,7.38790276 9.43005047,4.36368715 12.6569974,2.64040832 C18.8513963,-0.676672214 26.4008198,1.53471481 30.4983309,6.83505601 C34.2086921,2.12044464 40.6615397,-0.350924219 46.4687886,1.76181357 C52.7604981,4.07082223 56.7606985,10.5426231 55.8901344,17.1757566" id="Fill-1" fill="#FF6A9F"></path>
                        <g id="NUEVO" transform="translate(11.7591, 15.769)" fill="#FFFFFF" fill-rule="nonzero" stroke="#FFFFFF" stroke-width="0.336051234">
                            <path d="M2.02627899,2.43197438 L6.05228224,8.47661792 L6.05228224,2.43197438 L7.52833347,2.43197438 L7.52833347,11.1680256 L6.01033673,11.1680256 L1.98433347,5.12338208 L1.98433347,11.1680256 L0.49628224,11.1680256 L0.49628224,2.43197438 L2.02627899,2.43197438 Z" id="Trazado"></path>
                            <path d="M10.3714103,2.43197438 L10.3714103,8.012 C10.3714103,8.58486341 10.5337492,9.04306158 10.8688442,9.38183896 C11.204016,9.72069396 11.6605315,9.88864194 12.2313847,9.89597438 C12.5828166,9.89597438 12.9045424,9.83312361 13.1962441,9.70597159 C13.4804113,9.58210384 13.719592,9.37314225 13.9161169,9.08199423 C14.1146725,8.78783774 14.2113591,8.43059616 14.2113591,8.012 L14.2113591,2.43197438 L15.7474103,2.43197438 L15.7474103,8.012 C15.7474103,8.42388371 15.6799862,8.81681246 15.5455005,9.19085063 C15.4111532,9.56450425 15.2119445,9.91310395 14.9474294,10.2364002 C14.6790629,10.5644036 14.3074962,10.8260717 13.8300278,11.0179117 C13.3637569,11.2052527 12.831031,11.3000256 12.2313847,11.3000256 C11.6567525,11.3000256 11.1427443,11.2116374 10.6889707,11.0367889 C10.2266615,10.8586514 9.85440301,10.6156847 9.5703784,10.3104642 C9.28700598,10.0059446 9.07337776,9.65703775 8.92957467,9.263694 C8.78700316,8.87371898 8.7153591,8.45653143 8.7153591,8.012 L8.7153591,2.43197438 L10.3714103,2.43197438 Z" id="Trazado"></path>
                            <path d="M22.6824872,2.43197438 L22.6824872,3.84802562 L20.2104616,3.84802562 C19.6924137,3.84802562 19.2692481,4.00917865 18.9439355,4.33814646 C18.6181511,4.66759134 18.4584872,5.09315357 18.4584872,5.612 L22.3104872,5.95997438 L22.3104872,7.31602562 L18.4584872,7.31602562 L18.4584872,8.012 C18.4584872,8.52915702 18.6170476,8.94827769 18.9419159,9.26584557 C19.2677473,9.58435487 19.6916602,9.73997438 20.2104616,9.73997438 L22.8624872,9.73997438 L22.8624872,11.1680256 L20.2104616,11.1680256 C19.3011649,11.1680256 18.5270313,10.8662062 17.8873279,10.2643799 C17.244395,9.65951543 16.922436,8.9088654 16.922436,8.012 L16.922436,5.612 C16.922436,4.71578728 17.2439723,3.96134186 17.886482,3.34842143 C18.5264184,2.73795578 19.3008752,2.43197438 20.2104616,2.43197438 L22.6824872,2.43197438 Z" id="Trazado"></path>
                            <path d="M25.4578679,2.43197438 L27.3803024,8.71946609 L29.4723635,2.43197438 L30.9763525,2.43197438 L28.155856,11.1680256 L26.5172041,11.1680256 L23.8464684,2.43197438 L25.4578679,2.43197438 Z" id="Trazado"></path>
                            <path d="M35.3106153,2.32397438 C36.0826995,2.32397438 36.7963579,2.52846702 37.4515871,2.93746358 C38.104326,3.34490569 38.6179276,3.89151348 38.9921242,4.57754058 C39.3655715,5.26219388 39.5526409,6.00695391 39.5526409,6.812 C39.5526409,7.61682137 39.3656753,8.36346634 38.9923278,9.0520851 C38.6179343,9.74263306 38.1039988,10.2894561 37.4509309,10.6929439 C36.7959026,11.0976429 36.0824703,11.3000256 35.3106153,11.3000256 C34.5387603,11.3000256 33.825328,11.0976429 33.1702996,10.6929439 C32.5172318,10.2894561 32.0032963,9.74263306 31.6289028,9.0520851 C31.2555553,8.36346634 31.0685897,7.61682137 31.0685897,6.812 C31.0685897,6.00695391 31.2556591,5.26219388 31.6291063,4.57754058 C32.0032542,3.89160292 32.5147447,3.34510433 33.1640498,2.93721077 C33.8232478,2.52834115 34.5387825,2.32397438 35.3106153,2.32397438 Z M35.3106153,3.89602562 C34.5722546,3.89602562 33.9540122,4.17367655 33.4555917,4.72830987 C32.9507256,5.29011576 32.7006409,5.98731243 32.7006409,6.818 C32.7006409,7.64868757 32.9507256,8.34588424 33.4555917,8.90769013 C33.9540122,9.46232345 34.5722546,9.73997438 35.3106153,9.73997438 C36.048976,9.73997438 36.6672184,9.46232345 37.1656389,8.90769013 C37.670505,8.34588424 37.9205897,7.64868757 37.9205897,6.818 C37.9205897,5.98748446 37.6686071,5.29045561 37.1600582,4.72877469 C36.6647593,4.17344667 36.0486249,3.89602562 35.3106153,3.89602562 Z" id="Forma"></path>
                        </g>
                    </g>
                </g>
            </g>
        </g>
    </g>
</svg>