<?xml version="1.0" encoding="UTF-8"?>
<svg width="41px" height="41px" viewBox="0 0 41 41" version="1.1" xmlns="http://www.w3.org/2000/svg" xmlns:xlink="http://www.w3.org/1999/xlink">
    <title>Group 58</title>
    <g id="Page-1" stroke="none" stroke-width="1" fill="none" fill-rule="evenodd">
        <g id="1_-ZAR-DE-LAS-LLANTAS" transform="translate(-1751, -4382)" fill="#FFFFFF">
            <g id="Group-43" transform="translate(4, 4260)">
                <g id="Group-40" transform="translate(1611, 122)">
                    <g id="Group-58" transform="translate(136, 0)">
                        <g id="Artboard-Copy-10" transform="translate(10, 9)" fill-rule="nonzero">
                            <path d="M11.0607271,0 L15.1897557,0 C15.5691652,0.157810547 15.7145577,0.431025391 15.7299931,0.829123047 C15.7445841,1.20588281 15.8120023,1.59104297 15.9261019,1.95230469 C16.4969287,3.75973633 18.1534381,4.9583418 20.1629904,5.04593945 C20.7526772,5.07167969 20.9987985,5.31389844 20.9991269,5.87214258 C20.9997838,6.99505469 21.0009566,8.11801172 20.998564,9.24092383 C20.9975318,9.74319531 20.7045415,10.0181621 20.178801,10.0096719 C18.6873888,9.98559375 17.2701978,9.66512109 15.9336555,9.0264668 C15.8693336,8.99578516 15.8030414,8.96892187 15.7145577,8.9301543 C15.7145577,9.05997852 15.7146048,9.14955273 15.7145577,9.23917188 C15.713291,11.3726914 15.7348255,13.5065703 15.7054091,15.6397305 C15.6598068,18.9518652 13.2654498,21.8744375 9.92315532,22.7273242 C9.43579211,22.8516231 8.93031934,22.9107403 8.43319761,23 L7.26020425,23 C7.20071479,22.9866583 7.14150683,22.9722833 7.08173586,22.9601542 C6.51780578,22.8461425 5.93501546,22.7857675 5.39280747,22.6102578 C1.60767307,21.3847891 -0.554543722,17.8714942 0.123579862,14.0911387 C0.750236616,10.5979238 4.11683356,7.909125 7.82061564,7.94380469 C8.24084209,7.94771289 8.54959615,8.20255469 8.55381858,8.6052793 C8.56662665,9.81021875 8.565876,11.0153828 8.55470999,12.2203223 C8.55100363,12.6227324 8.25627744,12.8739805 7.83089024,12.8956328 C7.69858717,12.9023711 7.56614336,12.9147246 7.4350132,12.9329629 C5.9595056,13.1383906 4.935189,14.520457 5.20800543,15.9356758 C5.47899213,17.3410566 6.94187933,18.2880098 8.38388891,17.9915703 C9.67407838,17.7263067 10.5417425,16.6928339 10.5422117,15.4085177 C10.5439476,10.5658047 10.5465749,5.7230918 10.536441,0.880423828 C10.5355965,0.466962891 10.666023,0.173712891 11.0607271,0" id="Fill-1"></path>
                        </g>
                        <path d="M20.5001126,1.8638049 C10.2295591,1.85923395 1.8634351,10.2230007 1.85886048,20.4996499 C1.8542896,30.7703625 10.2177663,39.136536 20.4943365,39.1411909 C30.7648899,39.1457619 39.131014,30.7820754 39.1356688,20.5053459 C39.1402397,10.2347135 30.7766828,1.86837959 20.5001126,1.8638049 M0,19.3014911 C0.10573478,18.512078 0.173122651,17.7153646 0.323060666,16.9344554 C1.56917473,10.4432983 5.10222457,5.59185788 10.8837028,2.41166261 C14.1343654,0.623610041 17.6605963,-0.190672695 21.3579441,0.0375671459 C29.0516335,0.512659004 34.8186715,4.16361398 38.5814017,10.8850166 C40.3933332,14.1216902 41.1898739,17.6592071 40.9619585,21.3567728 C40.4866333,29.0667868 36.8222573,34.831347 30.0856362,38.6037625 C27.5875518,40.0027243 24.8683709,40.7392691 22.0075151,40.934376 C21.903465,40.9414358 21.8013403,40.9774568 21.6982529,41 L19.2962764,41 C19.1932692,40.9774568 19.0911445,40.9412754 18.9870944,40.934376 C16.4716014,40.7690325 14.0589552,40.1685491 11.8026648,39.0563111 C5.51593797,35.9573035 1.66833117,30.9620198 0.323221113,24.0694173 C0.171036836,23.2894708 0.105654556,22.4925969 0,21.7035048 C0,20.9028603 0,20.1021356 0,19.3014911" id="Fill-1-Copy-2"></path>
                    </g>
                </g>
            </g>
        </g>
    </g>
</svg>