<?xml version="1.0" encoding="UTF-8"?>
<svg width="73px" height="73px" viewBox="0 0 73 73" version="1.1" xmlns="http://www.w3.org/2000/svg" xmlns:xlink="http://www.w3.org/1999/xlink">
    <title>Group 15</title>
    <g id="Page-1" stroke="none" stroke-width="1" fill="none" fill-rule="evenodd">
        <g id="1_-ZAR-DE-LAS-LLANTAS" transform="translate(-1365, -2840)">
            <g id="Group-15" transform="translate(1365, 2840)">
                <circle id="Oval" fill="#CC3333" cx="36.5" cy="36.5" r="36.5"></circle>
                <g id="Group-11" transform="translate(6, 6)" fill="#FFFFFF">
                    <path d="M28.879994,3.15550787 C7.6873062,4.37121683 -4.15976929,28.6253726 8.06521569,46.1712159 C19.1870621,62.1337079 43.1630681,61.6687659 53.571707,45.2128685 C65.5273347,26.3115002 51.0641734,1.88299121 28.879994,3.15550787 L28.879994,3.15550787 Z M32.4040148,0 L35.5241783,0.392056609 C58.4203749,4.26831983 69.0894441,31.8419756 53.9483072,49.9841213 C37.4635979,69.7362953 5.92392699,61.4788114 0.655809265,36.72339 L0.0234208905,32.4112437 C0.0776970243,31.1505173 -0.0500185274,29.8551346 0.0234208905,28.5981001 C0.906360278,13.4962987 13.505803,0.883794683 28.5945682,0 L32.4040148,0 Z" id="Fill-1"></path>
                    <path d="M24.6937329,22.9639418 L17.9818224,18.5567586 L17.8461321,17.8844745 L18.4240063,12.0088654 L11.0181706,21.1963524 C10.9653228,21.418105 11.0806596,21.3375976 11.1596933,21.3942862 C13.2853895,22.918448 15.6598513,24.154522 17.7286528,25.7696713 L17.8643432,26.4419555 L17.286469,32.3175645 L24.6937329,22.9639418 Z M19.4200209,8.03816088 C20.0887124,7.89262832 20.6075494,8.3024299 20.60136,8.98519434 L19.7348463,17.6048423 L26.6251777,22.1131361 C27.0383191,22.4240898 27.0986655,23.0003845 26.7975282,23.4130443 L16.7150222,36.0254292 C16.0883471,36.6419775 15.0899519,36.2453953 15.1091152,35.3412356 L15.9755099,26.7215876 L9.08529754,22.2132939 C8.67215617,21.9023401 8.61180968,21.3260455 8.91294701,20.9133857 L18.995453,8.30111987 C19.1063858,8.17511869 19.254693,8.07412719 19.4200209,8.03816088 L19.4200209,8.03816088 Z" id="Fill-3"></path>
                    <path d="M35.8693674,38.7420409 C37.7167794,35.2072194 40.229074,32.0499252 42.2475273,28.6066868 L42.4827239,28.535826 C42.5675898,28.8048588 42.738393,29.0886592 42.8937227,29.3238693 C44.3554885,31.5380602 48.4179857,36.977548 48.996336,39.1884042 C51.6418214,49.3012496 32.7953862,49.5139511 35.8693674,38.7420409 M49.9856852,36.828919 C48.0810214,33.2789726 45.1367792,29.879918 43.1526056,26.3262798 C42.9310971,26.0742774 42.5661615,25.8753908 42.2295543,25.9299358 C42.0299466,25.9623293 41.7236912,26.1608586 41.5890721,26.3262798 C38.7725454,31.9860909 29.7150966,39.5338952 35.7013018,45.9927063 C42.0278042,52.8188025 54.9704006,46.1190648 49.9856852,36.828919" id="Fill-5"></path>
                    <path d="M44.5061524,36.7693721 C44.3351112,36.8051002 43.981126,37.0535298 43.9118526,37.2076371 C43.5420369,38.0296221 44.5067475,38.7441846 44.8200256,39.4895923 C45.4714582,41.0394783 45.3857591,42.2788869 43.5385851,42.6534368 C42.9473799,42.7733642 42.1671605,42.5264828 42.0342078,43.4323099 C41.7856802,45.1249893 44.4222387,44.4425821 45.3008931,43.9610861 C47.2906609,42.8705447 47.304349,40.599546 46.4946109,38.7260823 C46.2000201,38.0443897 45.3650484,36.590136 44.5061524,36.7693721" id="Fill-7"></path>
                    <path d="M12.7819903,48.3507744 L12.6464189,48.2151266 C12.0131974,47.5815479 12.0131974,46.5542452 12.6464189,45.9206665 L45.8991208,12.6492087 C46.5323424,12.01563 47.5590659,12.01563 48.1922875,12.6492087 L48.3278588,12.7848565 C48.9610803,13.4184352 48.9610803,14.4457378 48.3278588,15.0793166 L15.0751569,48.3507744 C14.4419353,48.9843531 13.4152118,48.9843531 12.7819903,48.3507744" id="Fill-9"></path>
                </g>
            </g>
        </g>
    </g>
</svg>