<?xml version="1.0" encoding="UTF-8"?>
<svg width="73px" height="73px" viewBox="0 0 73 73" version="1.1" xmlns="http://www.w3.org/2000/svg" xmlns:xlink="http://www.w3.org/1999/xlink">
    <title>Group 9</title>
    <g id="Page-1" stroke="none" stroke-width="1" fill="none" fill-rule="evenodd">
        <g id="1_-ZAR-DE-LAS-LLANTAS" transform="translate(-83, -3059)">
            <g id="Group-9" transform="translate(83, 3059)">
                <circle id="Oval" fill="#CC3333" cx="36.5" cy="36.5" r="36.5"></circle>
                <g id="Group-7" transform="translate(11, 13)" fill="#FFFFFF">
                    <path d="M35.7557462,2.96309368 C32.5558841,1.48588729 27.0939256,0.0421095943 26.4467045,0.00404920186 C25.841089,-0.0315946578 25.7368266,0.174314079 25.6609633,0.376598017 C25.5851,0.578781266 25.6823123,0.858192877 25.8201372,0.958478991 C26.0923117,1.156534 26.6684358,1.24292505 27.1011743,1.36949095 C33.3784646,3.20434421 42.6730089,5.974295 43.2006759,13.5623089 C43.4435575,17.0553064 38.7652549,20.3022204 36.2381335,22.11754 C28.1991068,27.8919459 17.4008011,31.5818909 19.1983839,43.6991922 C19.3294566,44.5828377 19.6907009,46.9631225 20.7377931,46.9989678 C22.2885222,47.0521315 21.2631762,45.0603043 21.0887104,44.2672788 C19.5583373,37.3122958 22.4043031,33.8773957 27.5294444,30.088977 C31.9379557,26.8303832 42.2254751,21.3556273 44.3911536,16.5406856 C47.0608663,10.6049761 40.3592778,5.08823295 35.7557462,2.96309368" id="Fill-1"></path>
                    <path d="M35.3581788,10.6984232 C32.1852946,6.69051593 21.4610295,4.99937796 16.6739127,3.57730733 C16.1488703,3.42134793 14.6475863,3.09487958 15.0069774,2.32464945 C15.1222088,2.07780509 15.3578328,1.76498941 15.685364,1.42696113 C15.6554892,1.39407512 15.6241256,1.36218566 15.5902807,1.33208999 C15.2122303,0.995357211 14.6624741,0.933073108 14.1881493,1.06302266 C14.0723224,1.09471281 13.9605648,1.13856082 13.8539682,1.19197567 C12.9023412,2.30521681 12.693019,3.51532219 14.4021364,4.56996644 C15.9628722,5.53302816 19.2224033,5.90314521 21.1100748,6.38387883 C24.0536872,7.13348047 32.1311031,9.1350424 33.9021537,11.4816084 C34.3689353,12.099965 34.2302804,12.6635116 33.8475651,13.274992 C30.1893393,19.120928 20.5748094,22.217295 14.6373634,24.9038824 C7.11536097,28.3073848 -0.33587483,35.8697711 0.0117052611,44.7759992 C0.0676833226,46.2111245 1.49452838,46.3125729 1.74543714,45.4530523 C1.88319875,44.9812876 1.81024862,43.5541345 1.88806209,42.9026927 C2.89467468,34.4755041 9.34733729,29.0114443 16.7007107,25.9215548 C22.9922875,23.2779186 30.0088001,20.7048377 34.541038,15.259513 C35.7268003,13.8348513 36.6849779,12.3744137 35.3581788,10.6984232" id="Fill-4"></path>
                    <path d="M46.9569441,41.5786779 C51.4971214,40.3552813 50.030037,33.3909311 48.9605529,29.9373791 C48.2463753,27.6312015 47.1966411,25.0878754 45.908944,23.0967053 C44.5355996,26.1747381 43.077764,29.1470541 42.4056875,32.5196857 C41.786695,35.6265968 41.2962217,40.5500818 44.9889815,41.5786779 L44.9889815,33.7271636 C44.9889815,33.3441952 45.611635,32.848265 45.9833195,32.8258155 C46.2582774,32.8091824 46.9569441,33.2623565 46.9569441,33.4492998 L46.9569441,41.5786779 Z M46.9698538,43.6764831 C46.8164785,44.6146688 47.4387466,46.9048256 46.0948826,46.9971748 C44.653136,47.0962588 45.0192327,44.5847702 44.9759755,43.6764831 C37.173491,41.8108263 40.3142154,30.8802588 42.6042468,25.5037016 C42.9517496,24.6876617 45.0016022,20.3601093 45.5150047,20.1110217 C46.7452824,19.5142727 47.4624466,21.4744216 47.9437674,22.3986274 C50.3234924,26.9682265 52.933762,33.914413 51.670343,39.1364766 C51.0715822,41.6115358 49.3989055,43.3291279 46.9698538,43.6764831 L46.9698538,43.6764831 Z" id="Fill-7"></path>
                    <path d="M9.43644471,19.4025241 C12.8199274,18.4481669 12.3758217,14.3627029 11.8013972,11.6773125 C11.1947764,8.84136679 9.88116372,6.21658172 8.59422808,3.64181369 C8.4214919,3.51223327 7.26620371,5.88693316 7.17124992,6.08760634 C5.7705537,9.04909883 4.14734467,13.6838426 5.05007008,16.9161935 C5.39462254,18.1499806 6.31462156,19.1783551 7.6347757,19.4025241 L7.6347757,12.470022 C7.6347757,12.3106935 8.27441062,11.9241707 8.5260535,11.9383893 C8.86631311,11.957549 9.43644471,12.3804753 9.43644471,12.7070987 L9.43644471,19.4025241 Z M9.45198075,21.195776 C9.46189519,22.0169226 9.66233049,24.4884297 8.16933796,23.9144439 C7.20457062,23.5435514 7.80117481,22.0131915 7.62291925,21.1914399 C6.06808922,20.9847162 4.60034275,20.0616196 3.84909368,18.6935125 C1.46993389,14.3604844 4.61076824,6.69255027 6.89344108,2.73243139 C7.35124306,1.93841097 7.84185469,0.634236962 8.95370331,1.09669285 C9.43910219,1.29857612 11.2991336,4.99005512 11.6196665,5.69442808 C13.7172356,10.3036592 16.5793413,19.5667938 9.45198075,21.195776 L9.45198075,21.195776 Z" id="Fill-10"></path>
                    <path d="M33.9821902,42.7786135 C34.332349,42.7626291 34.6814774,42.2835891 34.812623,41.9736685 C35.843896,39.5358433 34.1184879,35.3254222 33.0260449,33.1045712 C31.7813793,35.0325714 29.8705875,40.720863 31.5578697,42.5775253 C31.6956662,42.7291802 31.8857337,42.8364338 32.0686819,42.9130013 L32.0686819,38.4116041 C32.0686819,38.0936912 32.6799141,37.6933894 33.0059984,37.712334 C33.3246822,37.7308838 33.9821902,38.252253 33.9821902,38.5459918 L33.9821902,42.7786135 Z M33.99493,44.9416443 C34.3830274,47.6409434 31.5904687,47.7334953 32.0630613,44.9341455 C27.7339443,43.8937752 28.9230604,38.1837764 30.0594372,34.9514652 C30.3787768,34.0431146 31.8290601,30.5551509 32.5077387,30.1410354 C33.6300642,29.4562697 34.3923949,31.4426823 34.8140281,32.2949886 C36.5314737,35.7677572 39.0928414,43.3796089 33.99493,44.9416443 L33.99493,44.9416443 Z" id="Fill-12"></path>
                    <path d="M27.7820872,4.30468545 C27.735492,4.30468545 27.688074,4.29783463 27.641273,4.28312551 C26.18057,3.82673991 24.5264918,3.35846612 22.7249135,2.8916028 C22.4778458,2.82752747 22.3304486,2.57928594 22.395867,2.33729075 C22.4612854,2.09529556 22.7148333,1.95173056 22.9617981,2.01489916 C24.7781881,2.48579238 26.447181,2.95829756 27.9226957,3.41931753 C28.1661634,3.4953818 28.3006003,3.75047415 28.2229416,3.98904393 C28.1601975,4.1816729 27.9781368,4.30468545 27.7820872,4.30468545 M37.7442032,8.96022154 C37.6393897,8.96022154 37.5340619,8.92556445 37.4474545,8.8546383 C36.3480958,7.95415828 34.9471539,7.12641786 33.1646046,6.32416653 C32.9323486,6.21969151 32.830518,5.95049453 32.9372858,5.72290621 C33.0439508,5.49541865 33.3188933,5.39567875 33.5511493,5.50025452 C35.409403,6.33655846 36.878129,7.20631053 38.0412605,8.15907844 C38.2373101,8.3197705 38.2633334,8.60559079 38.0994788,8.79771603 C38.0078313,8.90491124 37.8764801,8.96022154 37.7442032,8.96022154 M37.956196,18.0850118 C37.8344107,18.0850118 37.7127283,18.0381643 37.6218008,17.9452752 C37.4449859,17.7644337 37.4513632,17.4774044 37.6359954,17.3042197 C39.1305391,15.9024208 39.9516638,14.5754771 40.0765348,13.3602623 C40.1021468,13.1111141 40.3296712,12.929265 40.5835276,12.9545526 C40.8378984,12.9796387 41.0232506,13.2019882 40.9976387,13.4511364 C40.8478757,14.9074397 39.9577325,16.3819783 38.2761908,17.9590776 C38.1864976,18.0432017 38.0711925,18.0850118 37.956196,18.0850118 M28.7300373,24.118772 C28.5660798,24.118772 28.4072653,24.0332375 28.3233322,23.8824187 C28.2008269,23.6626886 28.2835257,23.3872453 28.5079644,23.267356 C30.24433,22.3394727 31.6928956,21.5157621 32.9364629,20.7491754 C33.1529815,20.6156851 33.4386214,20.6794582 33.5748069,20.8913299 C33.7109924,21.1032016 33.6460111,21.3831786 33.4296726,21.5165681 C32.1696478,22.2933304 30.7047276,23.1263096 28.9512874,24.0632602 C28.8809317,24.100839 28.8049188,24.118772 28.7300373,24.118772 M18.9023583,29.2267646 C18.7401494,29.2267646 18.582672,29.1430435 18.497916,28.9944411 C18.3731479,28.7759201 18.4529666,28.4996708 18.676171,28.3775649 C20.0920274,27.6024147 21.639235,26.8086261 23.2323177,25.9958971 C23.4591222,25.8803398 23.7384877,25.9664788 23.8566729,26.188526 C23.9746523,26.4105732 23.8867078,26.6844046 23.6600061,26.8000626 C22.0733006,27.6095677 20.5326761,28.3999309 19.1277227,29.1690363 C19.0563384,29.2081263 18.9787826,29.2267646 18.9023583,29.2267646 M10.7069513,36.3310663 C10.6384471,36.3310663 10.5689143,36.3160549 10.503393,36.2846218 C10.2738114,36.1742026 10.1790781,35.9025877 10.2917089,35.6778203 C11.2163099,33.8326322 12.445477,32.6816942 13.6252716,31.6610226 C13.8170011,31.4952931 14.1094297,31.5130247 14.2787359,31.700717 C14.4478364,31.8884094 14.4297331,32.1749349 14.2382094,32.3406644 C13.1278447,33.3010891 11.9728391,34.3808994 11.1228109,36.0772837 C11.0423751,36.237875 10.8779033,36.3310663 10.7069513,36.3310663 M9.94929071,47.0000116 C9.73050926,47.0000116 9.53589972,46.8473793 9.4946532,46.6291605 C9.16653245,44.89419 9.00000346,43.2715528 9.00000346,41.8064845 C9.00000346,41.7146029 9.00062062,41.623628 9.00195779,41.5333584 C9.00566072,41.2832027 9.21168763,41.0855363 9.47150988,41.0866399 C9.72721777,41.0902714 9.93129036,41.2961991 9.92769029,41.5465563 C9.92635312,41.6324938 9.92573596,41.7190358 9.92573596,41.8064845 C9.92573596,43.2163432 10.0870191,44.7832671 10.4049568,46.4640356 C10.451552,46.7101614 10.2854345,46.9467162 10.0341495,46.9923548 C10.0056575,46.9974929 9.97716554,47.0000116 9.94929071,47.0000116" id="Fill-14"></path>
                </g>
            </g>
        </g>
    </g>
</svg>