<?xml version="1.0" encoding="UTF-8"?>
<svg width="73px" height="73px" viewBox="0 0 73 73" version="1.1" xmlns="http://www.w3.org/2000/svg" xmlns:xlink="http://www.w3.org/1999/xlink">
    <title>Group 25</title>
    <g id="Page-1" stroke="none" stroke-width="1" fill="none" fill-rule="evenodd">
        <g id="1_-ZAR-DE-LAS-LLANTAS" transform="translate(-1365, -3059)">
            <g id="Group-25" transform="translate(1365, 3059)">
                <circle id="Oval" fill="#CC3333" cx="36.5" cy="36.5" r="36.5"></circle>
                <g id="Group-8" transform="translate(11, 7)" fill="#FFFFFF">
                    <path d="M12.7122529,14.4715774 C10.0132413,14.8648163 7.95186225,16.6362296 7.23509343,19.2315862 L3.14413112,41.8984223 C2.81557423,45.1465931 5.04764138,48.1627162 8.29465156,48.803307 C19.4064356,49.0479757 30.6146165,49.0479757 41.7250883,48.803307 C44.9720985,48.1628156 47.2041657,45.1464937 46.8756088,41.8984223 L42.6249608,18.6782493 C41.7476987,16.3235863 39.6570473,14.7446682 37.1281181,14.4450435 L12.7122529,14.4715774 Z M24.7853813,3.10382424 C19.4408558,3.34282839 19.6339524,11.4126223 25.0438864,11.3598526 C30.6411635,11.3050953 30.4458463,2.8507084 24.7853813,3.10382424 L24.7853813,3.10382424 Z M25.8350474,0.0317512797 C30.3897241,0.489983364 33.2908159,5.12487518 31.9946564,9.39077638 C31.7784448,10.1021243 31.298782,10.707734 31.0955915,11.3987094 L37.748692,11.3987094 C41.0562656,11.3987094 45.2222257,15.2138319 45.79556,18.400289 L49.9704028,41.5936299 C50.3714339,47.0733343 46.6670685,51.3977692 41.1512493,51.9938386 L9.06855193,52 C3.61460844,51.6707606 -0.500680204,46.9603415 0.049337158,41.5936299 C1.56150638,34.2842766 2.39556648,26.6671495 3.99787435,19.3955599 C4.58917582,16.7124525 5.78752526,14.4703849 8.16484383,12.9404601 C9.04553781,12.3737072 11.2520674,11.3987094 12.271048,11.3987094 L19.0273082,11.3987094 C17.0657579,8.55202583 17.2824743,4.77903965 19.6964337,2.26328488 C20.7485224,1.16684711 22.6571805,0.18538971 24.1846925,0.0317512797 C24.6054068,-0.0105837599 25.4143331,-0.0105837599 25.8350474,0.0317512797 L25.8350474,0.0317512797 Z" id="Fill-1"></path>
                    <path d="M32.7462089,33.6257083 C32.089196,33.645087 31.4147207,33.6963661 30.9256706,33.1836749 C30.0591081,32.2752603 30.5853038,30.8041674 31.7908199,30.6049144 C32.3485086,30.5126916 34.079413,30.5103066 34.6452778,30.5893121 C34.9217501,30.6279701 35.2778634,30.7999935 35.4783285,30.9875198 C36.333283,31.7877117 35.9525406,34.3721367 35.5033614,35.3741653 C33.7794219,39.2202938 28.0257901,39.1542074 26.3786652,35.2724022 C25.657657,33.5731374 25.7075209,29.273547 26.6068886,27.6355984 C28.2119218,24.7125924 32.7159271,24.1728704 34.8063767,26.8786359 C35.8614935,28.2443882 34.6779821,29.9152309 33.1019184,29.3674592 C32.3454805,29.1046044 32.0796068,28.187047 31.0345839,28.1545504 C30.3152916,28.1321904 29.4130976,28.6725087 29.2052639,29.3801796 C29.0457801,29.9229824 29.0526439,33.0263594 29.1334962,33.6782793 C29.3751445,35.6273806 32.6173096,35.6722 32.7462089,33.6257083" id="Fill-4"></path>
                    <path d="M17.1706236,29.9715683 L21.8171549,25.3585397 C23.0771782,24.6332788 24.4066476,25.5456685 24.1775157,26.9714451 C24.1122081,27.3784975 23.5492705,27.9735731 23.2590705,28.2996324 C22.8357318,28.7752556 19.9087996,31.4234813 19.962802,31.7336401 L23.7696207,35.6067 C25.0513458,37.1978416 23.2578592,39.1226946 21.551685,37.7890415 C20.0264946,36.5967039 18.7703071,34.6096402 17.1706236,33.4222716 L17.1706236,37.025222 C17.1706236,37.0673582 16.960973,37.4990564 16.9082828,37.5789563 C16.1055138,38.7957409 14.1782829,38.2544288 14.0709846,36.8272609 L14.1205457,26.209315 C14.4265931,25.0940947 15.9466356,24.746371 16.7502121,25.5643516 C16.8242005,25.6396801 17.1706236,26.226408 17.1706236,26.267153 L17.1706236,29.9715683 Z" id="Fill-6"></path>
                </g>
            </g>
        </g>
    </g>
</svg>