<?xml version="1.0" encoding="UTF-8"?>
<svg width="35px" height="35px" viewBox="0 0 35 35" version="1.1" xmlns="http://www.w3.org/2000/svg" xmlns:xlink="http://www.w3.org/1999/xlink">
    <title>Artboard</title>
    <g id="Artboard" stroke="none" stroke-width="1" fill="none" fill-rule="evenodd">
        <g id="Group-6-Copy" transform="translate(5, 3)" fill="#FFFFFF">
            <path d="M12.5000107,0 C8.36451067,0 5.00001067,3.1402 5.00001067,7 C5.00001067,10.8598 8.36451067,14 12.5000107,14 C16.6355107,14 20.0000107,10.8598 20.0000107,7 C20.0000107,3.1402 16.6355107,0 12.5000107,0" id="Fill-1"></path>
            <path d="M20.9581867,19.0195675 C18.9869867,17.0723599 16.3738133,16.0000156 13.6,16.0000156 L10.4,16.0000156 C7.62624,16.0000156 5.01301333,17.0723599 3.04181333,19.0195675 C1.08026667,20.9572278 0,23.5149354 0,26.2217137 C0,26.6515439 0.358186667,27.0000156 0.8,27.0000156 L23.2,27.0000156 C23.6418133,27.0000156 24,26.6515439 24,26.2217137 C24,23.5149354 22.9197333,20.9572278 20.9581867,19.0195675" id="Fill-3"></path>
        </g>
    </g>
</svg>