<?xml version="1.0" encoding="UTF-8"?>
<svg width="38px" height="42px" viewBox="0 0 38 42" version="1.1" xmlns="http://www.w3.org/2000/svg" xmlns:xlink="http://www.w3.org/1999/xlink">
    <title>Group 6</title>
    <g id="Page-1" stroke="none" stroke-width="1" fill="none" fill-rule="evenodd">
        <g id="Group-6" transform="translate(0.2759, 0)" fill="#414141">
            <path d="M19.393575,0 C12.9774101,0 7.75743992,4.88475274 7.75743992,10.8888826 C7.75743992,16.8930125 12.9774101,21.7777652 19.393575,21.7777652 C25.8097398,21.7777652 31.02971,16.8930125 31.02971,10.8888826 C31.02971,4.88475274 25.8097398,0 19.393575,0" id="Fill-1"></path>
            <path d="M32.5163054,29.5859768 C29.4580188,26.556989 25.4037204,24.8888988 21.1001916,24.8888988 L16.1354406,24.8888988 C11.8319945,24.8888988 7.77761336,26.556989 4.71932677,29.5859768 C1.67601718,32.6001134 0,36.5787673 0,40.7893089 C0,41.4579332 0.555721124,42 1.24118774,42 L35.9944444,42 C36.6799111,42 37.2356322,41.4579332 37.2356322,40.7893089 C37.2356322,36.5787673 35.559615,32.6001134 32.5163054,29.5859768" id="Fill-3"></path>
        </g>
    </g>
</svg>