<?xml version="1.0" encoding="UTF-8"?>
<svg width="122px" height="40px" viewBox="0 0 122 40" version="1.1" xmlns="http://www.w3.org/2000/svg" xmlns:xlink="http://www.w3.org/1999/xlink">
    <title>visa-10</title>
    <g id="Página-1" stroke="none" stroke-width="1" fill="none" fill-rule="evenodd">
        <g id="visa-10" transform="translate(-0, 0)" fill="#454545" fill-rule="nonzero">
            <path d="M79.3446082,0 C70.6950296,0 62.9653672,4.54344361 62.9653672,12.9378035 C62.9653672,22.5644765 76.6742415,23.2293224 76.6742415,28.0655207 C76.6742415,30.1018277 74.3715243,31.9247167 70.4385895,31.9247167 C64.8570243,31.9247167 60.6853308,29.3776646 60.6853308,29.3776646 L58.9003713,37.8485189 C58.9003713,37.8485189 63.7060315,40 70.0864264,40 C79.5431268,40 86.9844008,35.2333758 86.9844008,26.6956661 C86.9844008,16.5232758 73.2185804,15.8780786 73.2185804,11.3893798 C73.2185804,9.79399661 75.1087742,8.04624263 79.0304905,8.04624263 C83.4552098,8.04624263 87.065369,9.8986666 87.065369,9.8986666 L88.8122832,1.71735396 C88.8122832,1.71735396 84.884226,0 79.3446082,0 Z M0.209493129,0.617515849 L0,1.85242397 C0,1.85242397 3.63893712,2.52727969 6.91632178,3.87365455 C11.1361816,5.41738239 11.436886,6.31616021 12.147553,9.10752462 L19.8919702,39.3632061 L30.2737083,39.3632061 L46.2673746,0.617515849 L35.9095368,0.617515849 L25.6326672,26.9608631 L21.4391464,4.63093635 C21.0545473,2.07535745 19.1064319,0.617515849 16.7218928,0.617515849 L0.209493129,0.617515849 Z M50.4323615,0.617392271 L42.3070034,39.3630825 L52.1840313,39.3630825 L60.2808554,0.617392271 L50.4323615,0.617392271 L50.4323615,0.617392271 Z M105.519909,0.617515849 C103.138175,0.617515849 101.876338,1.90976384 100.950325,4.16789214 L86.4798125,39.3630825 L96.8376504,39.3630825 L98.8416143,33.4971145 L111.460344,33.4971145 L112.679014,39.3630825 L121.818182,39.3630825 L113.845127,0.617515849 L105.519909,0.617515849 L105.519909,0.617515849 Z M106.866982,11.0853796 L109.93719,25.6246215 L101.711841,25.6246215 L106.866982,11.0853796 Z" id="Shape"></path>
        </g>
    </g>
</svg>