<?xml version="1.0" encoding="UTF-8"?>
<svg width="71px" height="71px" viewBox="0 0 71 71" version="1.1" xmlns="http://www.w3.org/2000/svg" xmlns:xlink="http://www.w3.org/1999/xlink">
    <title>Group-13</title>
    <g id="Página-1" stroke="none" stroke-width="1" fill="none" fill-rule="evenodd">
        <g id="1_HOME-AMIE-WORLD" transform="translate(-1478, -4749)">
            <g id="whatsapp-icon" transform="translate(1463, 4737)">
                <g id="Group-13" transform="translate(16.7132, 14.4341)">
                    <path d="M66.8463172,35.7017496 L66.4234516,38.9405633 L66.4234516,38.9405633 C64.1329131,52.868495 52.8930547,64.1034656 38.9703114,66.3945825 L35.6825728,66.8237175 C34.2268729,66.7567162 32.6942392,66.9145778 31.2483398,66.8237175 C30.5740659,66.7813923 29.6983919,66.6416701 28.9827926,66.5462341 C23.932272,65.8716456 19.3381277,63.9684825 15.013497,61.3596815 L3.71097384,64.9402344 C3.31083587,65.066995 2.88370015,64.8453789 2.7569395,64.4452409 C2.70879112,64.2932537 2.70965949,64.1299734 2.75942174,63.9785069 L6.34659459,53.0598572 L6.34659459,53.0598572 C5.76362861,51.8520366 4.8935082,50.7586084 4.22919814,49.5651686 C-8.55211444,26.601379 9.31451046,-1.32295641 35.3552363,0.0486087916 C51.9363633,0.921913265 65.8509395,14.6599535 66.8527132,31.2184208 L66.8527132,35.6033577 C66.8527132,35.6362589 66.8505767,35.6691253 66.8463172,35.7017496 Z" id="Fill-1" stroke="#FFFFFF" stroke-width="3.04"></path>
                    <path d="M12.8842652,25.3681496 C13.8799414,32.7095956 23.3673595,43.1582607 29.4157478,47.2356515 C33.6200289,50.0697683 42.6251829,54.0010362 47.6630288,53.0266493 C51.3257583,52.3183397 54.6460361,49.8412756 55.367574,46.0916076 C55.5518077,45.1342567 55.8733761,43.1793361 55.0284848,42.5741204 C52.4037292,41.4051372 49.823749,39.8011223 47.1611202,38.7440145 C45.5729227,38.1136839 44.8650121,37.7921082 43.6026305,39.1873008 C42.6558,40.2335197 41.1937876,43.1777555 39.7763736,43.3806064 C38.7499032,43.5272562 38.1214556,43.2230676 37.2208163,42.8574091 C33.8286856,41.4804819 30.0666716,38.67429 27.6344677,35.9668014 C26.8093979,35.0484401 23.6420288,31.0049456 23.5988463,30.0047414 C23.5549558,28.9855693 25.2360665,27.6997932 25.8664609,26.9203541 C26.7594902,25.8160022 27.4944784,25.0992624 27.0640687,23.6364527 C26.6487022,22.2242241 23.8696221,15.5110012 23.1047247,14.5290623 C22.3601797,13.5734678 20.8896723,13.6316008 19.7656873,13.7201176 C14.5308652,14.1319663 12.2784706,20.902093 12.8842652,25.3681496 Z" id="Path" fill="#FFFFFF" fill-rule="nonzero"></path>
                </g>
            </g>
        </g>
    </g>
</svg>